{"glyphs":{"0":{"ha":863,"x_min":54,"x_max":808,"o":"m 54 267 l 54 736 q 124 944 54 872 q 324 1017 193 1017 l 551 1017 q 808 750 808 1017 l 808 267 q 741 71 808 142 q 550 0 674 0 l 322 0 q 122 69 189 0 q 54 267 54 139 m 324 324 q 338 268 324 288 q 367 245 353 249 q 403 242 382 242 l 461 242 q 520 256 501 242 q 539 322 539 271 l 539 694 q 472 775 539 775 l 393 775 q 324 694 324 775 l 324 324 z "},"1":{"ha":526,"x_min":31,"x_max":464,"o":"m 464 1017 l 464 0 l 194 0 l 194 761 l 31 733 l 31 904 l 197 1017 l 464 1017 z "},"2":{"ha":808,"x_min":31,"x_max":769,"o":"m 31 788 l 31 989 q 453 1031 221 1031 q 690 940 610 1031 q 769 697 769 850 q 653 422 769 561 q 563 322 597 357 q 478 242 528 288 l 769 242 l 769 0 l 42 0 l 42 233 q 332 469 164 314 q 500 689 500 625 q 467 770 500 753 q 342 788 433 788 l 31 788 z "},"3":{"ha":799,"x_min":24,"x_max":742,"o":"m 364 -10 q 32 29 140 -10 l 33 233 l 336 233 q 448 244 424 233 q 472 300 472 254 l 472 313 q 447 368 472 357 q 344 383 421 379 l 118 393 l 118 613 l 344 626 q 458 644 444 631 q 475 694 475 664 l 475 707 q 436 769 475 757 q 344 778 404 778 l 24 778 l 24 981 q 368 1021 140 1021 q 479 1019 422 1021 q 669 950 597 1017 q 742 763 742 883 l 742 708 q 625 506 742 547 q 742 292 742 468 l 742 251 q 669 58 742 126 q 469 -10 597 -10 q 364 -10 417 -10 z "},"4":{"ha":882,"x_min":15,"x_max":867,"o":"m 514 438 l 514 624 l 551 732 l 783 732 l 783 438 l 867 438 l 867 231 l 783 190 l 783 3 l 514 3 l 514 190 l 63 190 l 15 311 l 308 1017 l 597 1017 l 379 438 l 514 438 z "},"5":{"ha":822,"x_min":60,"x_max":778,"o":"m 349 633 q 492 664 397 664 l 544 661 q 719 578 661 651 q 778 389 778 504 l 778 258 q 694 60 778 126 q 482 -6 611 -6 q 272 0 353 -6 q 60 28 190 6 l 60 243 l 426 243 q 500 269 488 243 q 508 317 508 288 l 508 360 q 494 415 508 397 q 442 433 479 433 l 381 433 q 333 419 347 433 q 319 371 319 404 l 61 371 l 92 1017 l 735 1017 l 735 775 l 354 775 l 349 633 z "},"6":{"ha":829,"x_min":51,"x_max":785,"o":"m 99 156 q 88 185 99 156 q 64 310 76 215 q 51 535 51 404 q 71 760 51 665 q 126 908 90 856 q 200 985 161 960 q 417 1028 267 1028 q 751 989 568 1028 l 751 783 l 447 783 q 336 731 357 783 q 323 679 325 703 q 321 607 321 656 q 399 631 357 626 q 533 636 440 636 q 730 568 675 636 q 785 374 785 500 l 785 247 q 519 -1 785 -1 l 328 -1 q 233 12 274 -1 q 158 60 193 25 q 99 156 122 96 m 321 408 q 342 270 321 300 q 432 240 363 240 l 456 240 q 503 253 490 240 q 515 304 515 267 l 515 332 q 507 394 515 381 q 463 408 499 408 l 321 408 z "},"7":{"ha":779,"x_min":24,"x_max":757,"o":"m 24 775 l 24 1017 l 692 1017 l 757 908 l 439 0 l 153 0 l 428 775 l 24 775 z "},"8":{"ha":857,"x_min":58,"x_max":800,"o":"m 58 249 l 58 322 q 83 429 58 382 q 161 485 107 476 q 65 600 81 528 q 58 693 58 633 l 58 783 q 331 1024 58 1024 l 547 1024 q 738 967 675 1024 q 800 782 800 911 l 800 721 q 763 600 800 653 q 696 560 738 565 q 800 363 800 540 l 800 257 q 722 43 800 93 q 643 9 683 18 q 546 0 603 0 l 331 0 q 114 69 175 0 q 69 150 76 113 q 58 249 58 203 m 328 292 q 342 242 328 256 q 393 228 357 228 l 465 228 q 519 242 507 228 q 531 292 531 257 l 531 347 q 518 396 531 379 q 468 413 506 413 l 393 413 q 340 397 353 413 q 328 347 328 381 l 328 292 m 328 686 q 342 636 328 647 q 393 625 356 625 l 465 625 q 519 638 508 625 q 531 686 531 651 l 531 728 q 490 794 531 788 q 465 796 482 796 l 393 796 q 342 784 357 796 q 328 728 328 772 l 328 686 z "},"9":{"ha":829,"x_min":47,"x_max":781,"o":"m 47 643 l 47 769 q 313 1018 47 1018 l 504 1018 q 599 1005 558 1018 q 674 956 639 992 q 733 861 710 921 q 781 483 781 736 q 706 108 781 218 q 632 32 671 57 q 415 -11 565 -11 q 81 28 264 -11 l 81 233 l 385 233 q 496 286 475 233 q 509 338 507 314 q 511 410 511 361 q 433 385 475 390 q 299 381 392 381 q 102 449 157 381 q 47 643 47 517 m 317 685 q 325 622 317 636 q 369 608 333 608 l 511 608 q 490 747 511 717 q 400 776 469 776 l 376 776 q 329 763 342 776 q 317 713 317 750 l 317 685 z "},"\u0000":{"ha":931,"x_min":78,"x_max":853,"o":"m 833 703 l 483 369 l 833 35 l 833 703 m 115 18 l 819 18 l 468 356 l 115 18 m 97 31 l 453 369 l 97 704 l 97 31 m 821 719 l 111 719 l 468 383 l 821 719 m 78 0 l 78 738 l 853 738 l 853 0 l 78 0 z "},"\r":{"ha":781,"x_min":0,"x_max":0,"o":""}," ":{"ha":347,"x_min":0,"x_max":0,"o":""},"!":{"ha":385,"x_min":64,"x_max":319,"o":"m 75 32 l 75 194 q 108 229 75 229 l 268 229 q 300 194 300 229 l 300 32 q 268 0 300 0 l 108 0 q 75 32 75 0 m 64 1015 l 319 1015 l 290 272 l 88 272 l 64 1015 z "},"\"":{"ha":690,"x_min":67,"x_max":625,"o":"m 67 1017 l 322 1017 l 322 924 l 308 738 l 83 738 l 67 924 l 67 1017 m 369 1017 l 625 1017 l 625 924 l 611 738 l 383 738 l 369 924 l 369 1017 z "},"#":{"ha":1040,"x_min":15,"x_max":1026,"o":"m 15 267 l 43 450 l 247 450 l 269 568 l 63 568 l 92 751 l 306 751 l 357 1017 l 540 1017 l 489 751 l 611 751 l 661 1017 l 844 1017 l 794 751 l 1026 751 l 1000 568 l 767 568 l 744 449 l 978 449 l 953 265 l 703 265 l 651 0 l 468 0 l 519 265 l 396 267 l 344 0 l 161 0 l 213 267 l 15 267 m 431 450 l 561 449 l 583 568 l 453 568 l 431 450 z "},"$":{"ha":786,"x_min":43,"x_max":744,"o":"m 43 665 l 43 750 q 119 956 43 890 q 324 1025 196 1021 l 324 1144 l 474 1144 l 474 1025 q 707 979 593 1019 l 707 769 q 467 783 581 783 q 333 774 354 783 q 313 722 313 764 l 313 707 q 328 656 313 671 q 396 640 343 640 l 485 640 q 714 497 650 640 q 744 346 744 428 l 744 300 q 474 -11 744 -6 l 474 -125 l 324 -125 l 324 -11 q 250 -8 278 -11 q 215 -5 222 -6 q 194 -1 207 -4 q 175 4 181 3 q 153 10 169 6 q 131 17 136 15 q 105 26 126 19 q 75 36 83 33 l 75 246 q 393 231 228 231 q 456 244 438 231 q 475 288 475 257 l 475 310 q 460 356 475 342 q 401 371 444 371 l 318 371 q 188 396 243 371 q 107 454 133 421 q 64 533 81 488 q 43 665 43 597 z "},"%":{"ha":1344,"x_min":33,"x_max":1313,"o":"m 33 672 l 33 829 q 79 969 33 921 q 226 1017 125 1017 l 367 1017 q 557 829 557 1017 l 557 672 q 511 533 557 581 q 364 485 465 485 l 224 485 q 33 672 33 485 m 207 714 q 217 672 207 686 q 258 658 226 658 l 329 658 q 372 673 361 658 q 383 714 383 688 l 383 788 q 372 832 383 821 q 332 843 360 843 l 261 843 q 221 832 235 843 q 207 788 207 821 l 207 714 m 267 0 l 897 1017 l 1069 1017 l 449 0 l 267 0 m 789 192 l 789 349 q 834 488 789 440 q 981 536 879 536 l 1122 536 q 1313 349 1313 536 l 1313 192 q 1267 52 1313 100 q 1119 4 1221 4 l 978 4 q 789 192 789 4 m 963 233 q 972 192 963 206 q 1014 178 982 178 l 1083 178 q 1139 233 1139 178 l 1139 307 q 1126 351 1139 340 q 1086 363 1114 363 l 1017 363 q 976 351 990 363 q 963 307 963 340 l 963 233 z "},"&":{"ha":993,"x_min":26,"x_max":976,"o":"m 685 986 l 685 786 l 500 786 q 441 772 454 786 q 437 736 428 757 q 472 678 446 715 l 631 456 l 808 608 l 906 486 l 813 336 l 764 276 l 976 0 l 660 0 l 575 117 l 492 46 q 374 -4 449 10 q 310 -8 349 -8 q 213 11 271 -8 q 76 114 126 39 q 26 276 26 197 q 147 517 26 408 l 225 586 l 167 676 q 121 806 121 743 q 174 944 121 886 q 281 1013 226 1003 q 441 1025 356 1025 q 685 986 526 1025 m 311 363 q 281 310 281 333 q 300 263 281 288 q 344 239 319 239 q 394 264 369 239 l 431 301 l 353 403 l 311 363 z "},"'":{"ha":356,"x_min":43,"x_max":314,"o":"m 43 1017 l 314 1017 l 314 924 l 300 738 l 58 738 l 43 924 l 43 1017 z "},"(":{"ha":574,"x_min":58,"x_max":558,"o":"m 150 -48 q 133 -9 150 -48 q 87 164 115 29 q 58 447 58 299 q 85 724 58 594 q 150 935 113 853 q 294 1167 229 1103 l 321 1194 l 558 1194 q 484 1060 529 1151 q 408 887 439 969 q 353 685 378 804 q 328 448 328 565 q 351 208 328 331 q 408 0 375 86 q 535 -258 479 -178 l 558 -292 l 321 -292 q 292 -267 310 -283 q 230 -188 275 -251 q 150 -48 185 -125 z "},")":{"ha":574,"x_min":15,"x_max":515,"o":"m 165 1 q 181 42 165 1 q 221 207 196 83 q 246 448 246 331 q 222 683 246 565 q 164 889 199 801 q 39 1157 94 1068 l 15 1194 l 253 1194 q 338 1088 288 1164 q 424 934 389 1013 q 487 725 458 856 q 515 467 515 594 q 501 238 515 340 q 463 63 486 136 q 413 -72 440 -10 q 356 -172 385 -133 q 267 -281 296 -257 l 253 -292 l 15 -292 q 90 -167 46 -253 q 165 1 135 -81 z "},"*":{"ha":581,"x_min":39,"x_max":542,"o":"m 39 786 l 39 883 l 232 910 l 239 779 l 39 786 m 106 581 l 140 772 l 267 739 l 199 551 l 106 581 m 218 1003 l 311 1033 l 396 858 l 274 811 l 218 1003 m 244 638 l 315 747 l 474 624 l 415 546 l 244 638 m 319 793 l 485 906 l 542 826 l 401 692 l 319 793 z "},"+":{"ha":633,"x_min":28,"x_max":606,"o":"m 28 388 l 28 601 l 208 601 l 208 783 l 422 783 l 422 601 l 606 601 l 606 388 l 422 388 l 422 206 l 208 206 l 208 388 l 28 388 z "},",":{"ha":354,"x_min":67,"x_max":289,"o":"m 67 35 l 67 193 q 101 231 67 231 l 256 231 q 289 193 289 231 l 289 -15 q 267 -92 289 -64 q 215 -128 244 -121 q 169 -135 185 -135 q 96 -128 121 -135 l 74 -122 l 74 -36 q 109 -29 101 -37 q 117 -7 117 -21 l 117 0 l 101 0 q 67 35 67 0 z "},"-":{"ha":492,"x_min":28,"x_max":464,"o":"m 28 296 l 28 510 l 464 510 l 464 296 l 28 296 z "},".":{"ha":357,"x_min":67,"x_max":292,"o":"m 67 32 l 67 194 q 100 229 67 229 l 257 229 q 292 194 292 229 l 292 32 q 257 0 292 0 l 100 0 q 67 32 67 0 z "},"/":{"ha":697,"x_min":15,"x_max":682,"o":"m 15 -100 l 406 1069 l 682 1069 l 292 -100 l 15 -100 z "},":":{"ha":357,"x_min":67,"x_max":292,"o":"m 67 32 l 67 194 q 100 229 67 229 l 257 229 q 292 194 292 229 l 292 32 q 257 0 292 0 l 100 0 q 67 32 67 0 m 67 540 l 67 703 q 100 738 67 738 l 257 738 q 292 703 292 738 l 292 540 q 257 508 292 508 l 100 508 q 67 540 67 508 z "},";":{"ha":357,"x_min":67,"x_max":292,"o":"m 67 35 l 67 193 q 101 231 67 231 l 256 231 q 289 193 289 231 l 289 -15 q 267 -92 289 -64 q 215 -128 244 -121 q 169 -135 185 -135 q 96 -128 121 -135 l 74 -122 l 74 -36 q 109 -29 101 -37 q 117 -7 117 -21 l 117 0 l 101 0 q 67 35 67 0 m 67 540 l 67 703 q 100 738 67 738 l 257 738 q 292 703 292 738 l 292 540 q 257 508 292 508 l 100 508 q 67 540 67 508 z "},"<":{"ha":599,"x_min":39,"x_max":560,"o":"m 39 369 l 39 606 l 560 786 l 560 550 l 303 490 l 560 417 l 560 181 l 39 369 z "},"=":{"ha":649,"x_min":28,"x_max":621,"o":"m 28 225 l 28 439 l 621 439 l 621 225 l 28 225 m 28 529 l 28 743 l 621 743 l 621 529 l 28 529 z "},">":{"ha":599,"x_min":39,"x_max":560,"o":"m 39 181 l 39 417 l 296 490 l 39 550 l 39 786 l 560 606 l 560 369 l 39 181 z "},"?":{"ha":756,"x_min":15,"x_max":725,"o":"m 15 783 l 15 985 q 349 1028 178 1028 q 407 1026 378 1028 q 640 940 556 1026 q 725 742 725 854 l 725 671 q 662 452 725 521 q 453 383 599 383 q 429 383 442 383 l 429 271 l 228 271 l 228 579 l 356 579 q 433 603 410 582 q 457 676 457 624 l 457 697 q 336 783 457 783 l 15 783 m 215 32 l 215 194 q 249 229 215 229 l 406 229 q 440 194 440 229 l 440 32 q 406 0 440 0 l 249 0 q 215 32 215 0 z "},"@":{"ha":1233,"x_min":51,"x_max":1168,"o":"m 51 28 l 51 400 q 130 626 51 542 q 382 711 208 711 l 622 711 q 836 653 781 711 q 890 475 890 596 l 890 0 l 726 0 l 693 75 q 513 -12 613 -12 q 370 49 414 -12 q 326 192 326 110 l 326 238 q 547 436 326 436 l 690 436 q 690 458 692 457 q 677 501 690 492 q 629 511 664 511 l 382 511 q 286 486 321 511 q 251 386 251 461 l 251 56 q 291 -65 251 -29 q 382 -101 331 -101 l 825 -101 q 937 -62 906 -101 q 968 56 968 -22 l 968 628 q 929 750 968 707 q 825 793 890 793 l 264 793 l 264 956 q 689 993 447 993 q 706 993 697 993 l 825 993 q 1056 917 957 993 q 1138 803 1107 878 q 1168 628 1168 729 l 1168 56 q 1083 -218 1168 -133 q 839 -303 999 -303 l 382 -303 q 145 -225 239 -303 q 51 28 51 -147 m 589 188 q 690 235 669 188 l 690 294 l 582 286 q 549 276 558 283 q 540 246 540 269 q 539 238 539 244 q 540 229 539 231 q 551 197 540 207 q 589 188 561 188 z "},"A":{"ha":988,"x_min":35,"x_max":979,"o":"m 35 0 l 353 1017 l 671 1017 l 979 0 l 703 0 l 643 178 l 369 178 l 311 0 l 35 0 m 431 407 l 589 407 l 515 679 l 431 407 z "},"B":{"ha":849,"x_min":63,"x_max":835,"o":"m 63 0 l 63 1017 l 504 1017 q 810 739 810 1017 q 770 599 810 665 q 661 528 731 533 q 786 453 738 515 q 835 311 835 392 q 756 72 835 144 q 511 0 676 0 l 63 0 m 332 228 l 497 228 q 550 252 535 228 q 565 325 565 276 q 497 425 565 425 l 332 425 l 332 228 m 332 639 l 483 639 q 530 659 514 639 q 546 710 546 679 q 483 789 546 789 l 332 789 l 332 639 z "},"C":{"ha":788,"x_min":43,"x_max":761,"o":"m 761 763 q 508 786 619 786 q 371 771 396 786 q 313 508 313 736 q 344 285 313 336 q 479 233 375 233 q 722 242 624 233 l 761 246 l 761 36 q 628 0 694 8 q 494 -8 561 -8 q 394 -8 428 -8 q 124 122 206 -6 q 43 510 43 249 q 120 900 43 772 q 394 1028 197 1028 q 603 1017 539 1028 q 761 972 668 1007 l 761 763 z "},"D":{"ha":926,"x_min":63,"x_max":885,"o":"m 63 0 l 63 1017 l 539 1017 q 875 669 832 1017 q 885 504 885 596 q 800 120 885 240 q 539 0 715 0 l 63 0 m 332 228 l 511 228 q 592 292 569 228 q 615 491 615 356 q 602 690 615 626 q 568 772 589 754 q 511 789 547 789 l 332 789 l 332 228 z "},"E":{"ha":788,"x_min":56,"x_max":768,"o":"m 56 224 l 56 781 q 314 1017 56 1017 q 768 994 606 1017 l 768 768 l 397 768 q 347 755 364 768 q 327 728 329 742 q 325 690 325 715 l 325 629 l 699 614 l 699 390 l 325 378 l 325 317 q 354 253 325 264 q 411 244 378 244 l 768 244 l 768 19 q 406 -3 628 1 l 328 -4 q 301 -4 317 -4 q 259 -2 285 -4 q 194 14 233 0 q 125 51 154 28 q 76 118 96 74 q 56 224 56 163 z "},"F":{"ha":788,"x_min":56,"x_max":768,"o":"m 56 0 l 56 775 q 142 968 56 911 q 314 1017 214 1017 q 768 994 606 1017 l 768 768 l 397 768 q 347 755 364 768 q 327 728 329 742 q 325 690 325 715 l 325 629 l 699 614 l 699 390 l 325 378 l 325 0 l 56 0 z "},"G":{"ha":854,"x_min":43,"x_max":813,"o":"m 76 203 q 66 239 76 203 q 49 347 56 275 q 43 528 43 418 q 58 726 43 639 q 108 886 72 814 q 381 1028 181 1028 q 608 1021 550 1028 q 803 976 665 1014 l 803 769 q 782 773 801 769 q 730 781 763 776 q 658 789 697 785 q 461 800 553 800 q 341 742 369 800 q 313 510 313 685 q 333 288 313 335 q 443 240 354 240 q 507 256 482 240 q 538 289 532 272 l 543 304 l 543 408 l 475 408 l 475 575 q 718 610 540 610 q 813 606 763 610 l 813 0 l 622 0 l 546 68 q 483 14 515 28 q 359 -8 439 -8 q 224 16 279 -8 q 133 85 168 40 q 76 203 97 131 z "},"H":{"ha":883,"x_min":63,"x_max":838,"o":"m 63 0 l 63 1017 l 332 1017 l 332 613 l 568 613 l 568 1017 l 838 1017 l 838 0 l 568 0 l 568 371 l 332 371 l 332 0 l 63 0 z "},"I":{"ha":378,"x_min":63,"x_max":332,"o":"m 63 0 l 63 1017 l 332 1017 l 332 0 l 63 0 z "},"J":{"ha":493,"x_min":28,"x_max":447,"o":"m 372 25 q 206 -6 321 -6 q 28 35 90 -6 l 28 249 q 113 253 83 249 q 158 277 143 258 q 175 316 172 296 q 178 383 178 336 l 178 1017 l 447 1017 l 447 229 q 372 25 447 74 z "},"K":{"ha":917,"x_min":63,"x_max":890,"o":"m 63 0 l 63 1017 l 318 1017 l 318 617 l 374 617 l 581 1017 l 890 1017 l 611 506 l 890 0 l 581 0 l 374 389 l 319 389 l 319 0 l 63 0 z "},"L":{"ha":731,"x_min":63,"x_max":704,"o":"m 63 217 l 63 1017 l 332 1017 l 332 314 q 361 250 332 261 q 418 242 385 242 l 704 242 l 704 0 l 293 0 q 126 53 190 0 q 63 217 63 106 z "},"M":{"ha":1231,"x_min":43,"x_max":1189,"o":"m 43 0 l 151 1017 l 526 1017 l 613 446 l 704 1017 l 1079 1017 l 1189 0 l 924 0 l 854 554 l 769 0 l 461 0 l 372 554 l 308 0 l 43 0 z "},"N":{"ha":940,"x_min":63,"x_max":894,"o":"m 63 0 l 63 1017 l 335 1017 l 625 497 l 625 1017 l 894 1017 l 894 0 l 625 0 l 333 506 l 333 0 l 63 0 z "},"O":{"ha":926,"x_min":51,"x_max":893,"o":"m 106 165 q 92 192 106 165 q 65 303 78 219 q 51 494 51 388 q 63 680 51 601 q 94 813 75 758 q 144 907 113 868 q 208 968 175 946 q 286 1003 240 990 q 444 1024 358 1024 q 572 1019 529 1024 q 660 1003 614 1015 q 740 968 707 990 q 803 907 772 946 q 853 814 833 868 q 893 531 893 693 q 872 276 893 369 q 818 129 851 183 q 728 44 785 75 q 613 4 671 14 q 478 -6 556 -6 q 353 0 401 -6 q 253 23 306 6 q 167 75 200 40 q 106 165 133 110 m 377 763 q 362 754 377 763 q 334 686 347 744 q 321 482 321 628 q 347 286 321 336 q 468 236 374 236 q 593 289 563 236 q 624 468 624 342 q 618 646 624 594 q 595 730 613 697 q 550 772 578 763 q 465 782 522 782 q 377 763 407 782 z "},"P":{"ha":861,"x_min":61,"x_max":828,"o":"m 61 0 l 61 1017 l 514 1017 q 758 931 685 1017 q 808 835 789 897 q 828 683 828 772 q 807 526 828 594 q 755 423 786 458 q 678 368 724 388 q 604 346 633 349 q 554 343 575 343 q 504 345 533 343 q 406 358 475 347 q 331 372 336 369 l 331 0 l 61 0 m 331 572 l 486 572 q 557 680 557 572 q 486 788 557 788 l 331 788 l 331 572 z "},"Q":{"ha":926,"x_min":51,"x_max":893,"o":"m 106 165 q 92 192 106 165 q 65 303 78 219 q 51 494 51 388 q 63 680 51 601 q 94 813 75 758 q 144 907 113 868 q 208 968 175 946 q 286 1003 240 990 q 444 1024 358 1024 q 572 1019 529 1024 q 660 1003 614 1015 q 740 968 707 990 q 803 907 772 946 q 853 814 833 868 q 893 501 893 693 q 839 171 893 276 q 777 81 811 117 q 692 28 743 46 q 506 -4 610 -3 q 353 0 401 -6 q 253 23 306 6 q 167 75 200 40 q 106 165 133 110 m 377 763 q 362 754 377 763 q 334 686 347 744 q 321 482 321 628 q 347 286 321 336 q 468 236 374 236 q 593 289 563 236 q 624 468 624 342 q 618 646 624 594 q 595 730 613 697 q 550 772 578 763 q 465 782 522 782 q 377 763 407 782 m 397 -46 l 539 -46 q 646 -107 544 -107 q 758 -94 692 -107 l 758 -289 q 675 -294 718 -294 q 453 -207 535 -294 q 397 -46 397 -146 z "},"R":{"ha":860,"x_min":61,"x_max":851,"o":"m 61 0 l 61 1017 l 515 1017 q 744 942 663 1017 q 826 690 826 868 q 778 456 826 517 q 731 412 751 425 q 676 385 711 399 l 851 0 l 544 0 l 414 360 l 331 379 l 331 0 l 61 0 m 332 582 l 481 582 q 542 606 529 582 q 556 685 556 629 q 540 764 556 740 q 481 788 524 788 l 332 788 l 332 582 z "},"S":{"ha":828,"x_min":51,"x_max":794,"o":"m 51 665 l 51 750 q 127 949 51 881 q 326 1025 203 1017 q 432 1029 381 1029 q 757 979 622 1029 l 757 769 q 424 783 631 783 q 342 774 363 783 q 321 722 321 764 l 321 707 q 336 656 321 671 q 404 640 351 640 l 535 640 q 764 497 700 640 q 794 346 794 428 l 794 300 q 513 -11 794 -11 q 247 -5 310 -11 q 83 36 185 1 l 83 246 q 443 231 236 231 q 506 244 488 231 q 525 288 525 257 l 525 310 q 510 356 525 342 q 451 371 494 371 l 326 371 q 197 396 251 371 q 115 454 142 421 q 72 533 89 488 q 51 665 51 597 z "},"T":{"ha":843,"x_min":28,"x_max":817,"o":"m 28 775 l 28 1017 l 817 1017 l 817 775 l 553 775 l 553 0 l 283 0 l 283 775 l 28 775 z "},"U":{"ha":910,"x_min":63,"x_max":864,"o":"m 63 444 l 63 1017 l 332 1017 l 332 444 q 363 269 332 303 q 467 235 396 235 q 564 272 532 235 q 593 444 593 303 l 593 1017 l 864 1017 l 864 444 q 797 128 864 228 q 754 72 775 93 q 701 34 733 50 q 645 10 668 18 q 583 -1 622 3 q 498 -7 533 -7 q 421 -7 463 -7 q 340 -4 379 -7 q 238 22 300 -1 q 144 90 176 44 q 88 224 113 135 q 63 444 63 314 z "},"V":{"ha":971,"x_min":35,"x_max":951,"o":"m 35 1017 l 318 1017 l 486 331 l 668 1017 l 951 1017 l 647 0 l 322 0 l 35 1017 z "},"W":{"ha":1414,"x_min":35,"x_max":1396,"o":"m 35 1017 l 318 1017 l 486 331 l 613 1017 l 896 1017 l 844 806 l 986 331 l 1113 1017 l 1396 1017 l 1147 0 l 822 0 l 729 332 l 647 0 l 322 0 l 35 1017 z "},"X":{"ha":943,"x_min":35,"x_max":924,"o":"m 35 1017 l 333 1017 l 479 735 l 625 1017 l 924 1017 l 614 504 l 917 0 l 618 0 l 479 272 l 338 0 l 39 0 l 343 504 l 35 1017 z "},"Y":{"ha":943,"x_min":35,"x_max":924,"o":"m 603 0 l 333 0 l 333 278 l 35 1017 l 328 1017 l 474 567 l 631 1017 l 924 1017 l 603 278 l 603 0 z "},"Z":{"ha":767,"x_min":28,"x_max":740,"o":"m 28 0 l 28 242 l 425 775 l 28 775 l 28 1017 l 740 1017 l 740 775 l 385 242 l 740 242 l 740 0 l 28 0 z "},"[":{"ha":478,"x_min":67,"x_max":464,"o":"m 67 17 l 67 889 q 132 1099 67 1029 q 339 1169 197 1169 l 464 1169 l 464 956 l 422 956 q 358 931 381 956 q 336 847 336 907 l 336 31 q 358 -53 336 -29 q 422 -78 381 -78 l 464 -78 l 464 -292 l 339 -292 q 67 17 67 -292 z "},"\\":{"ha":697,"x_min":15,"x_max":682,"o":"m 15 1069 l 292 1069 l 682 -100 l 406 -100 l 15 1069 z "},"]":{"ha":478,"x_min":15,"x_max":413,"o":"m 15 -78 l 57 -78 q 121 -53 99 -78 q 143 31 143 -29 l 143 847 q 121 931 143 907 q 57 956 99 956 l 15 956 l 15 1169 l 140 1169 q 347 1099 282 1169 q 413 889 413 1029 l 413 17 q 140 -292 413 -292 l 15 -292 l 15 -78 z "},"^":{"ha":525,"x_min":39,"x_max":486,"o":"m 39 738 l 178 932 l 360 932 l 486 738 l 332 738 l 264 808 l 194 738 l 39 738 z "},"_":{"ha":936,"x_min":28,"x_max":908,"o":"m 28 -1 l 28 213 l 908 213 l 908 -1 l 28 -1 z "},"`":{"ha":339,"x_min":15,"x_max":324,"o":"m 15 936 l 217 936 l 324 738 l 172 738 l 15 936 z "},"a":{"ha":721,"x_min":31,"x_max":683,"o":"m 31 199 l 31 256 q 85 410 31 349 q 272 472 140 472 q 378 472 343 472 q 414 472 414 472 q 415 492 415 481 q 410 518 414 504 q 401 540 406 532 q 382 550 396 547 q 328 554 361 554 l 56 539 l 56 696 q 194 740 125 729 q 372 751 263 751 q 607 697 531 751 q 683 496 683 643 l 683 0 l 467 0 l 414 75 q 365 17 400 43 q 271 -8 329 -8 q 153 15 203 -8 q 78 69 103 38 q 31 199 31 132 m 344 192 l 358 192 q 397 203 383 192 q 413 225 411 214 l 414 238 l 414 321 l 342 314 q 311 299 321 313 q 301 278 301 286 q 300 251 300 269 l 300 243 q 317 197 300 204 q 322 194 321 196 q 344 192 328 192 z "},"b":{"ha":776,"x_min":47,"x_max":739,"o":"m 47 0 l 47 1090 l 317 1090 l 317 707 q 500 749 396 749 q 691 662 643 749 q 739 371 739 575 q 682 79 739 167 q 500 -8 625 -8 q 404 10 443 -8 q 318 68 365 29 l 278 0 l 47 0 m 408 210 q 456 242 442 210 q 469 381 469 274 q 456 522 469 489 q 408 556 442 556 q 318 535 338 556 l 318 240 q 408 210 336 210 z "},"c":{"ha":681,"x_min":39,"x_max":650,"o":"m 421 -8 l 282 -7 q 39 369 39 -7 q 103 659 39 574 q 282 744 167 744 q 350 744 315 744 q 640 694 511 744 l 640 536 q 473 544 557 544 q 372 542 389 544 q 337 524 356 540 q 313 471 318 507 q 308 368 308 435 q 313 267 308 301 q 334 216 317 233 q 370 196 351 199 q 439 193 389 193 q 625 201 547 193 l 650 204 l 650 46 q 421 -8 575 -8 z "},"d":{"ha":776,"x_min":39,"x_max":731,"o":"m 278 -8 q 95 76 151 -8 q 39 370 39 160 q 86 665 39 581 q 278 749 133 749 q 461 707 382 749 l 461 1090 l 731 1090 l 731 0 l 500 0 l 460 68 q 374 10 413 29 q 278 -8 335 -8 m 369 556 q 322 522 336 556 q 308 381 308 489 q 322 242 308 274 q 369 210 336 210 q 460 240 442 210 l 460 535 q 369 556 440 556 z "},"e":{"ha":729,"x_min":39,"x_max":699,"o":"m 685 32 q 397 -7 607 -7 q 282 -7 339 -7 q 92 83 146 -7 q 39 350 39 174 q 72 606 39 526 q 169 715 104 686 q 349 743 235 743 q 519 735 463 743 q 621 697 576 726 q 682 614 665 668 q 699 460 699 560 q 643 315 699 360 q 481 271 588 271 l 308 271 q 328 206 308 229 q 386 190 340 190 l 476 192 q 685 207 581 192 l 685 32 m 389 442 q 418 454 407 442 q 429 497 429 467 q 422 542 429 528 q 374 557 414 557 q 322 538 335 557 q 308 456 308 519 q 308 442 308 449 l 389 442 z "},"f":{"ha":565,"x_min":15,"x_max":550,"o":"m 15 551 l 15 714 l 115 738 l 115 875 q 177 1044 115 996 q 362 1092 239 1092 q 550 1058 485 1092 l 550 904 l 449 906 q 412 902 425 906 q 392 883 399 899 q 385 792 385 867 l 385 738 l 521 738 l 521 551 l 385 551 l 385 0 l 115 0 l 115 551 l 15 551 z "},"g":{"ha":786,"x_min":35,"x_max":771,"o":"m 35 128 q 124 272 35 236 q 42 478 42 325 q 310 740 42 740 l 771 740 l 771 593 l 714 568 q 729 427 729 524 q 669 269 729 331 q 458 207 608 207 q 341 207 381 207 q 294 206 301 207 q 284 204 288 206 q 276 200 281 203 q 269 182 269 196 q 278 161 269 168 q 325 153 288 153 l 494 153 q 744 -87 744 153 l 744 -161 q 494 -375 744 -375 l 286 -375 q 116 -321 182 -375 q 50 -161 50 -267 l 50 -87 l 122 -39 q 61 19 88 -24 q 35 128 35 61 m 321 -118 q 333 -165 321 -154 q 382 -175 344 -175 l 421 -175 q 469 -161 464 -175 q 476 -125 476 -146 l 476 -93 q 462 -62 476 -75 q 422 -49 447 -50 l 321 -49 l 321 -118 m 365 540 q 321 526 331 540 q 311 471 311 511 q 324 419 311 431 q 369 407 338 407 l 400 407 q 448 419 436 407 q 460 474 460 431 q 445 529 460 518 q 399 540 431 540 l 365 540 z "},"h":{"ha":771,"x_min":47,"x_max":733,"o":"m 47 0 l 47 1086 l 315 1086 l 315 665 q 363 706 342 692 q 425 735 383 721 q 528 750 467 750 q 633 730 589 750 q 699 668 678 710 q 726 583 719 626 q 733 472 733 539 l 733 0 l 464 0 l 464 478 q 453 535 464 519 q 418 550 442 550 q 317 499 339 550 l 317 0 l 47 0 z "},"i":{"ha":350,"x_min":39,"x_max":311,"o":"m 39 839 l 39 1001 q 72 1036 39 1036 l 281 1036 q 311 1001 311 1036 l 311 839 q 281 807 311 807 l 72 807 q 39 839 39 807 m 40 0 l 40 738 l 310 738 l 310 0 l 40 0 z "},"j":{"ha":367,"x_min":47,"x_max":321,"o":"m 47 839 l 47 1001 q 81 1036 47 1036 l 289 1036 q 321 1001 321 1036 l 321 839 q 289 807 321 807 l 81 807 q 47 839 47 807 m 50 -375 l 50 738 l 319 738 l 319 -6 q 319 -25 319 -15 q 256 -375 319 -264 l 50 -375 z "},"k":{"ha":840,"x_min":47,"x_max":825,"o":"m 47 0 l 47 1086 l 317 1086 l 317 503 l 344 503 l 494 738 l 825 738 l 590 410 l 825 0 l 510 0 l 344 317 l 317 317 l 317 0 l 47 0 z "},"l":{"ha":451,"x_min":47,"x_max":436,"o":"m 47 263 l 47 1088 l 317 1088 l 317 318 q 340 206 317 232 q 388 176 350 196 q 436 157 426 157 l 436 0 l 244 0 q 95 60 143 0 q 47 263 47 119 z "},"m":{"ha":1190,"x_min":47,"x_max":1153,"o":"m 732 508 l 733 472 l 733 0 l 464 0 l 464 478 q 453 535 464 519 q 418 550 442 550 q 317 499 339 550 l 317 0 l 47 0 l 47 738 l 272 738 l 317 665 q 368 709 350 696 q 426 736 386 722 q 519 750 467 750 q 700 665 653 750 q 768 706 743 693 q 841 735 793 719 q 949 750 889 750 q 1053 730 1008 750 q 1118 668 1097 710 q 1146 583 1139 626 q 1153 472 1153 539 l 1153 0 l 883 0 l 883 478 q 872 535 883 519 q 838 550 861 550 q 732 508 758 550 z "},"n":{"ha":771,"x_min":47,"x_max":733,"o":"m 47 0 l 47 738 l 272 738 l 317 665 q 366 708 347 694 q 426 736 385 722 q 528 750 467 750 q 633 730 589 750 q 699 668 678 710 q 726 583 719 626 q 733 472 733 539 l 733 0 l 464 0 l 464 478 q 453 535 464 519 q 418 550 442 550 q 317 499 339 550 l 317 0 l 47 0 z "},"o":{"ha":769,"x_min":39,"x_max":731,"o":"m 387 -7 q 289 -7 387 -7 q 115 76 192 -7 q 39 369 39 158 q 115 663 39 581 q 385 744 190 744 q 655 661 579 744 q 731 365 731 578 q 656 72 731 151 q 387 -7 582 -7 m 383 544 q 355 544 383 544 q 317 517 326 544 q 308 368 308 489 q 320 220 308 247 q 386 193 332 193 q 451 217 440 193 q 461 363 461 240 q 451 515 461 486 q 383 544 440 544 z "},"p":{"ha":776,"x_min":47,"x_max":739,"o":"m 47 -375 l 47 738 l 278 738 l 318 669 q 404 727 365 708 q 500 746 443 746 q 682 658 625 746 q 739 372 739 569 q 718 156 739 224 q 671 56 697 88 q 505 -11 614 -11 q 317 31 396 -11 l 317 -375 l 47 -375 m 408 182 q 456 215 442 182 q 469 356 469 249 q 456 496 469 464 q 408 528 442 528 q 318 497 336 528 l 318 203 q 408 182 338 182 z "},"q":{"ha":771,"x_min":39,"x_max":725,"o":"m 321 -14 q 102 76 165 -14 q 39 369 39 167 q 111 659 39 572 q 310 746 183 746 q 553 732 436 746 q 725 696 671 718 l 725 -375 l 456 -375 l 456 40 q 321 -14 414 -14 m 319 500 q 310 447 311 469 q 308 341 308 424 q 322 219 308 258 q 385 181 336 181 q 456 207 435 181 l 456 560 l 390 560 q 319 500 333 560 z "},"r":{"ha":569,"x_min":47,"x_max":542,"o":"m 47 0 l 47 738 l 286 738 l 317 644 q 380 715 336 685 q 472 744 424 744 q 542 738 519 744 l 542 479 l 432 479 q 325 444 343 479 q 317 396 317 425 l 317 0 l 47 0 z "},"s":{"ha":710,"x_min":31,"x_max":678,"o":"m 31 469 l 31 533 q 76 686 31 628 q 222 744 122 744 q 553 732 486 744 q 642 694 621 719 l 642 536 l 331 536 q 305 530 310 536 q 300 511 300 524 l 300 503 q 314 481 300 483 q 331 481 319 481 l 469 481 q 628 426 579 481 q 678 281 678 371 l 678 199 q 625 43 678 93 q 497 -7 572 -7 q 406 -7 481 -7 q 272 -6 331 -7 q 148 8 214 -4 q 61 44 82 19 l 61 203 l 383 203 q 404 208 400 203 q 408 226 408 214 l 408 233 q 403 253 408 247 q 383 258 399 258 l 250 258 q 90 312 149 258 q 31 469 31 365 z "},"t":{"ha":535,"x_min":15,"x_max":513,"o":"m 15 553 l 15 686 l 119 739 l 158 944 l 389 944 l 389 739 l 513 739 l 513 553 l 389 553 l 389 319 q 401 225 389 251 q 439 185 413 199 q 507 156 497 156 l 507 -1 l 299 -1 q 165 60 211 -1 q 119 264 119 122 l 119 553 l 15 553 z "},"u":{"ha":771,"x_min":39,"x_max":725,"o":"m 39 265 l 39 738 l 308 738 l 308 260 q 319 203 308 218 q 354 188 331 188 q 456 239 433 188 l 456 738 l 725 738 l 725 0 l 500 0 l 456 72 q 414 43 442 64 q 371 14 386 22 q 256 -12 328 -12 q 139 8 183 -12 q 74 69 94 28 q 46 155 53 111 q 39 265 39 199 z "},"v":{"ha":817,"x_min":15,"x_max":801,"o":"m 15 738 l 301 738 l 406 290 l 517 738 l 801 738 l 557 0 l 246 0 l 15 738 z "},"w":{"ha":1176,"x_min":15,"x_max":1163,"o":"m 15 738 l 301 738 l 392 290 l 475 738 l 736 738 l 704 569 l 794 290 l 875 738 l 1163 738 l 960 0 l 649 0 l 582 190 l 529 0 l 218 0 l 15 738 z "},"x":{"ha":850,"x_min":19,"x_max":831,"o":"m 19 0 l 264 369 l 19 738 l 342 738 l 424 568 l 508 738 l 831 738 l 582 365 l 819 0 l 508 0 l 425 168 l 342 0 l 19 0 z "},"y":{"ha":832,"x_min":17,"x_max":810,"o":"m 17 738 l 296 738 l 381 271 q 440 217 390 219 l 536 738 l 810 738 l 611 -233 l 513 -375 l 313 -375 l 394 0 q 132 217 181 0 l 17 738 z "},"z":{"ha":679,"x_min":24,"x_max":657,"o":"m 24 524 l 24 738 l 657 738 l 657 524 l 406 215 l 657 215 l 657 1 l 44 1 l 44 213 l 318 524 l 24 524 z "},"{":{"ha":447,"x_min":15,"x_max":432,"o":"m 99 632 l 99 911 q 432 1169 99 1169 l 432 956 q 378 927 389 956 q 368 800 368 899 l 368 611 q 331 503 368 538 q 222 464 294 469 q 367 321 367 435 l 367 44 q 377 -62 367 -33 q 432 -92 388 -92 l 432 -292 q 173 -237 249 -292 q 97 -53 97 -182 l 97 294 q 25 368 97 368 q 15 368 21 368 l 15 558 q 99 632 99 565 z "},"|":{"ha":347,"x_min":67,"x_max":281,"o":"m 67 -100 l 67 1069 l 281 1069 l 281 -100 l 67 -100 z "},"}":{"ha":447,"x_min":15,"x_max":432,"o":"m 15 -92 q 70 -62 60 -92 q 81 44 81 -33 l 81 321 q 225 464 81 435 q 116 503 153 469 q 79 611 79 538 l 79 800 q 69 927 79 899 q 15 956 58 956 l 15 1169 q 349 911 349 1169 l 349 632 q 432 558 349 565 l 432 368 q 422 368 426 368 q 350 294 350 368 l 350 -53 q 274 -237 350 -182 q 15 -292 199 -292 l 15 -92 z "},"~":{"ha":561,"x_min":39,"x_max":522,"o":"m 210 933 q 286 909 242 933 q 357 885 331 885 q 367 885 361 885 q 486 940 433 885 l 522 838 q 367 738 456 738 q 284 762 336 738 q 206 786 232 786 q 76 738 139 786 l 39 831 q 210 933 110 933 z "},"¡":{"ha":392,"x_min":65,"x_max":324,"o":"m 82 449 l 82 608 q 115 640 82 638 l 274 640 q 297 628 286 639 q 307 604 307 618 l 307 449 q 276 411 307 411 l 115 411 q 82 449 82 411 m 65 -375 l 93 368 l 297 368 l 324 -375 l 65 -375 z "},"¢":{"ha":674,"x_min":31,"x_max":642,"o":"m 31 369 q 95 659 31 574 q 275 744 160 744 l 275 881 l 425 881 l 425 742 q 633 694 542 732 l 633 536 q 465 544 549 544 q 364 542 381 544 q 328 524 347 540 q 305 471 310 507 q 300 368 300 435 q 304 267 300 301 q 326 216 308 233 q 362 196 343 199 q 431 193 381 193 q 617 201 539 193 l 642 204 l 642 46 q 419 -8 564 -8 l 419 -132 l 269 -132 l 269 -7 q 31 369 31 -1 z "},"£":{"ha":794,"x_min":39,"x_max":756,"o":"m 39 0 l 39 207 l 125 242 l 125 417 l 39 417 l 39 549 l 125 586 l 125 646 q 226 950 125 875 q 345 1003 279 989 q 478 1017 411 1017 q 711 1000 581 1017 l 756 994 l 756 776 l 500 776 q 415 759 436 776 q 394 676 394 742 l 394 586 l 646 563 l 646 417 l 394 417 l 394 242 l 754 242 l 754 0 l 39 0 z "},"¤":{"ha":607,"x_min":40,"x_max":568,"o":"m 185 613 q 304 650 240 650 q 421 617 368 650 l 483 683 l 568 610 l 499 538 q 526 423 526 489 q 485 300 526 357 l 547 240 l 475 156 l 397 229 q 299 210 354 210 q 192 243 244 210 l 128 175 l 46 253 l 115 324 q 88 431 88 376 q 111 529 88 485 l 40 596 l 117 678 l 185 613 m 245 492 q 232 478 245 492 q 219 429 219 465 q 245 367 219 393 q 307 342 271 342 q 369 367 343 342 q 394 429 394 393 q 369 492 394 465 q 307 518 343 518 q 245 492 271 518 z "},"¥":{"ha":919,"x_min":15,"x_max":904,"o":"m 747 488 l 747 350 l 583 350 l 583 315 l 747 315 l 747 178 l 583 178 l 583 0 l 314 0 l 314 178 l 154 178 l 154 315 l 314 315 l 314 350 l 154 350 l 154 488 l 229 488 l 15 1017 l 308 1017 l 454 567 l 611 1017 l 904 1017 l 674 488 l 747 488 z "},"¦":{"ha":347,"x_min":67,"x_max":281,"o":"m 67 -100 l 67 356 l 281 356 l 281 -100 l 67 -100 m 67 596 l 67 1069 l 281 1069 l 281 596 l 67 596 z "},"§":{"ha":739,"x_min":43,"x_max":699,"o":"m 44 499 q 147 650 44 615 q 43 819 43 700 l 43 861 q 95 1028 43 968 q 251 1089 147 1089 q 646 1063 543 1089 l 646 875 l 349 875 q 313 842 313 875 l 313 833 q 351 799 313 799 l 458 799 q 639 758 579 799 q 699 625 699 718 l 699 608 q 599 438 699 471 q 662 400 638 431 q 692 341 686 369 q 697 282 697 313 l 697 222 q 641 43 697 97 q 506 -11 585 -11 q 94 15 181 -11 l 94 203 l 392 203 q 422 209 414 203 q 429 232 429 215 l 429 249 q 390 278 429 278 l 279 278 q 105 316 165 278 q 44 449 44 354 l 44 499 m 313 524 q 324 487 313 496 q 363 478 336 478 l 376 478 q 419 487 408 478 q 429 525 429 496 l 429 550 q 420 586 429 575 q 376 597 411 597 l 363 597 q 327 590 339 597 q 314 574 315 582 q 313 547 313 565 l 313 524 z "},"¨":{"ha":614,"x_min":39,"x_max":575,"o":"m 66 744 q 52 757 66 744 q 39 808 39 771 q 66 872 39 846 q 131 899 93 899 q 194 872 168 899 q 221 808 221 846 q 194 744 221 771 q 131 717 168 717 q 66 744 93 717 m 420 744 q 407 757 420 744 q 393 808 393 771 q 420 872 393 846 q 485 899 447 899 q 549 872 522 899 q 575 808 575 846 q 549 744 575 771 q 485 717 522 717 q 420 744 447 717 z "},"©":{"ha":1100,"x_min":43,"x_max":1058,"o":"m 43 511 q 59 706 43 622 q 115 864 75 790 q 428 1017 199 1017 l 706 1017 q 989 875 911 1017 q 1058 499 1058 746 q 965 126 1058 251 q 706 0 871 0 l 428 0 q 138 135 233 0 q 43 511 43 271 m 428 872 q 261 795 321 872 q 201 528 201 718 q 428 144 201 144 l 692 144 q 847 227 793 144 q 900 511 900 310 q 871 756 900 689 q 836 814 857 786 q 706 872 796 872 l 428 872 m 301 507 q 352 739 301 668 q 501 810 403 810 q 763 776 675 810 l 763 649 q 557 665 646 665 q 480 633 500 665 q 460 508 460 600 q 485 383 460 417 q 567 349 510 349 q 771 371 660 349 l 771 243 q 608 206 710 210 q 514 204 576 204 q 301 507 301 204 z "},"ª":{"ha":511,"x_min":24,"x_max":489,"o":"m 24 358 l 24 467 l 489 467 l 489 358 l 24 358 m 24 651 l 24 688 q 190 825 24 825 q 263 825 239 825 q 286 831 292 825 q 272 869 286 864 q 217 876 256 876 q 61 867 138 876 l 40 864 l 40 983 q 247 1025 118 1025 q 432 989 375 1025 q 489 856 489 953 l 489 525 l 328 525 l 286 582 q 188 519 263 519 q 63 562 101 519 q 24 651 24 604 m 210 699 l 210 683 q 216 662 210 669 q 228 653 222 654 q 239 653 233 653 q 256 653 244 653 q 276 660 267 653 q 286 674 286 667 l 286 731 l 236 726 q 210 699 210 726 z "},"«":{"ha":843,"x_min":39,"x_max":804,"o":"m 39 492 l 325 774 l 460 642 l 307 492 l 461 339 l 332 203 l 39 492 m 382 492 l 668 774 l 803 642 l 650 492 l 804 339 l 675 203 l 382 492 z "},"¬":{"ha":649,"x_min":28,"x_max":621,"o":"m 28 314 l 28 514 l 621 514 l 621 221 l 421 221 l 421 314 l 28 314 z "},"­":{"ha":492,"x_min":28,"x_max":464,"o":"m 28 296 l 28 510 l 464 510 l 464 296 l 28 296 z "},"®":{"ha":1100,"x_min":43,"x_max":1058,"o":"m 43 511 q 59 706 43 622 q 115 864 75 790 q 428 1017 199 1017 l 706 1017 q 989 875 911 1017 q 1058 499 1058 746 q 965 126 1058 251 q 706 0 871 0 l 428 0 q 138 135 233 0 q 43 511 43 271 m 428 872 q 261 795 321 872 q 201 528 201 718 q 428 144 201 144 l 692 144 q 847 227 793 144 q 900 511 900 310 q 871 756 900 689 q 836 814 857 786 q 706 872 796 872 l 428 872 m 329 213 l 329 806 l 589 806 q 775 614 775 806 q 754 491 775 533 q 686 432 733 449 l 803 213 l 635 213 l 528 421 l 488 438 l 488 213 l 329 213 m 488 554 l 542 554 q 606 563 594 554 q 617 608 617 572 q 603 653 617 644 q 542 661 590 661 l 488 661 l 488 554 z "},"¯":{"ha":483,"x_min":39,"x_max":444,"o":"m 39 738 l 39 867 l 444 867 l 444 738 l 39 738 z "},"°":{"ha":360,"x_min":39,"x_max":321,"o":"m 81 777 q 60 798 81 777 q 39 878 39 818 q 81 979 39 938 q 181 1021 122 1021 q 280 979 239 1021 q 321 878 321 938 q 280 777 321 818 q 181 736 239 736 q 81 777 122 736 m 145 913 q 138 906 145 913 q 131 878 131 899 q 145 843 131 857 q 181 829 160 829 q 215 843 201 829 q 229 878 229 857 q 215 913 229 899 q 181 928 201 928 q 145 913 160 928 z "},"±":{"ha":665,"x_min":44,"x_max":622,"o":"m 44 79 l 44 293 l 622 293 l 622 79 l 44 79 m 44 524 l 44 738 l 225 738 l 225 919 l 439 919 l 439 738 l 622 738 l 622 524 l 439 524 l 439 342 l 225 342 l 225 524 l 44 524 z "},"²":{"ha":571,"x_min":24,"x_max":539,"o":"m 24 997 l 24 1149 q 318 1179 157 1179 q 483 1122 428 1179 q 539 967 539 1064 q 328 675 539 840 l 539 675 l 539 493 l 29 493 l 29 668 q 223 808 110 715 q 336 939 336 901 q 313 987 336 976 q 229 997 290 997 l 24 997 z "},"³":{"ha":571,"x_min":24,"x_max":525,"o":"m 236 486 q 29 515 117 486 l 31 668 l 232 668 q 306 672 290 668 q 322 699 322 676 l 322 704 q 304 731 322 725 q 238 738 286 736 l 88 744 l 88 910 l 238 919 q 322 933 314 919 q 325 951 325 940 l 325 957 q 304 985 325 979 q 238 990 283 990 l 24 990 l 24 1142 q 285 1174 107 1174 q 342 1172 313 1174 q 474 1126 424 1171 q 525 1000 525 1081 l 525 964 q 438 829 525 858 q 525 686 525 806 l 525 660 q 474 531 525 576 q 335 486 424 486 q 236 486 286 486 z "},"´":{"ha":339,"x_min":15,"x_max":324,"o":"m 15 738 l 122 936 l 324 936 l 167 738 l 15 738 z "},"µ":{"ha":811,"x_min":71,"x_max":757,"o":"m 71 -375 l 71 738 l 340 738 l 340 260 q 351 203 340 218 q 386 188 363 188 q 488 239 465 188 l 488 738 l 757 738 l 757 0 l 532 0 l 488 72 q 456 50 475 64 q 390 7 410 17 q 340 -8 369 -3 l 340 -375 l 71 -375 z "},"¶":{"ha":797,"x_min":31,"x_max":783,"o":"m 31 693 l 31 822 q 88 967 31 918 q 247 1017 146 1017 l 783 1017 l 783 842 l 728 842 l 728 0 l 556 0 l 556 844 l 494 844 l 494 -375 l 322 -375 l 322 517 q 311 510 321 517 q 247 493 288 493 q 83 549 136 493 q 31 693 31 604 m 203 721 q 215 674 203 683 q 261 665 228 665 l 322 665 l 322 844 l 261 844 q 212 833 221 844 q 203 775 203 821 l 203 721 z "},"·":{"ha":357,"x_min":67,"x_max":292,"o":"m 67 456 l 67 618 q 100 653 67 653 l 257 653 q 292 618 292 653 l 292 456 q 257 424 292 424 l 100 424 q 67 456 67 424 z "},"¸":{"ha":331,"x_min":39,"x_max":292,"o":"m 129 -51 l 292 -51 q 255 -207 292 -160 q 124 -254 218 -254 l 39 -254 l 39 -144 l 90 -124 q 124 -101 119 -111 q 129 -51 129 -92 z "},"¹":{"ha":375,"x_min":13,"x_max":325,"o":"m 325 1169 l 325 493 l 122 493 l 122 1000 l 13 982 l 13 1093 l 125 1169 l 325 1169 z "},"º":{"ha":553,"x_min":24,"x_max":531,"o":"m 278 521 q 206 521 278 521 q 79 576 135 521 q 24 772 24 631 q 78 967 24 913 q 276 1021 133 1021 q 475 965 419 1021 q 531 767 531 908 q 476 574 531 626 q 278 521 421 521 m 44 358 l 44 467 l 510 467 l 510 358 l 44 358 m 277 871 q 259 871 277 871 q 233 853 240 871 q 226 769 226 835 q 235 687 226 703 q 278 671 243 671 q 320 685 313 671 q 328 768 328 700 q 321 853 328 836 q 277 871 314 871 z "},"»":{"ha":843,"x_min":39,"x_max":804,"o":"m 39 339 l 193 492 l 40 642 l 175 774 l 461 492 l 168 203 l 39 339 m 382 339 l 536 492 l 383 642 l 518 774 l 804 492 l 511 203 l 382 339 z "},"¼":{"ha":1325,"x_min":13,"x_max":1310,"o":"m 325 1031 l 325 354 l 122 354 l 122 861 l 13 843 l 13 954 l 125 1031 l 325 1031 m 193 0 l 840 1069 l 1022 1069 l 375 0 l 193 0 m 1051 297 l 1051 418 l 1081 489 l 1254 489 l 1254 297 l 1310 297 l 1310 142 l 1254 111 l 1254 3 l 1051 3 l 1051 111 l 743 111 l 711 203 l 907 676 l 1114 676 l 968 297 l 1051 297 z "},"½":{"ha":1396,"x_min":13,"x_max":1365,"o":"m 325 1031 l 325 354 l 122 354 l 122 861 l 13 843 l 13 954 l 125 1031 l 325 1031 m 179 0 l 826 1069 l 1008 1069 l 361 0 l 179 0 m 842 504 l 842 656 q 1140 686 978 686 q 1308 628 1251 686 q 1365 474 1365 571 q 1147 182 1365 349 l 1365 182 l 1365 0 l 847 0 l 847 176 q 1047 326 932 229 q 1163 465 1163 422 q 1139 497 1163 490 q 1053 504 1115 504 l 842 504 z "},"¾":{"ha":1481,"x_min":24,"x_max":1442,"o":"m 240 347 q 29 376 117 347 l 31 529 l 238 529 q 314 533 297 529 q 331 560 331 538 l 331 565 q 312 592 331 586 q 243 599 293 597 l 88 606 l 88 769 l 243 781 q 331 794 322 781 q 333 813 333 801 l 333 819 q 312 847 333 842 q 243 853 290 853 l 24 853 l 24 1004 q 286 1035 104 1035 q 347 1033 315 1035 q 482 987 431 1032 q 533 861 533 942 l 533 825 q 446 690 533 719 q 533 547 533 667 l 533 521 q 483 392 533 438 q 340 347 432 347 q 240 347 290 347 m 339 0 l 986 1069 l 1168 1069 l 521 0 l 339 0 m 1183 297 l 1183 418 l 1213 489 l 1386 489 l 1386 297 l 1442 297 l 1442 142 l 1386 111 l 1386 3 l 1183 3 l 1183 111 l 875 111 l 843 203 l 1039 676 l 1246 676 l 1100 297 l 1183 297 z "},"¿":{"ha":756,"x_min":31,"x_max":740,"o":"m 31 -15 q 94 203 31 135 q 303 272 157 272 q 326 272 314 272 l 326 385 l 528 385 l 528 76 l 400 76 q 322 53 346 74 q 299 -21 299 32 l 299 -42 q 419 -128 299 -128 l 740 -128 l 740 -329 q 407 -372 578 -372 q 349 -371 378 -372 q 115 -285 200 -371 q 31 -86 31 -199 l 31 -15 m 315 461 l 315 624 q 350 656 315 656 l 507 656 q 540 624 540 656 l 540 461 q 507 426 540 426 l 350 426 q 315 461 315 426 z "},"À":{"ha":988,"x_min":35,"x_max":979,"o":"m 279 1306 l 481 1306 l 588 1107 l 436 1107 l 279 1306 m 35 0 l 353 1017 l 671 1017 l 979 0 l 703 0 l 643 178 l 369 178 l 311 0 l 35 0 m 431 407 l 589 407 l 515 679 l 431 407 z "},"Á":{"ha":988,"x_min":35,"x_max":979,"o":"m 436 1107 l 543 1306 l 744 1306 l 588 1107 l 436 1107 m 35 0 l 353 1017 l 671 1017 l 979 0 l 703 0 l 643 178 l 369 178 l 311 0 l 35 0 m 431 407 l 589 407 l 515 679 l 431 407 z "},"Â":{"ha":988,"x_min":35,"x_max":979,"o":"m 289 1107 l 428 1301 l 608 1301 l 736 1107 l 581 1107 l 514 1178 l 444 1107 l 289 1107 m 35 0 l 353 1017 l 671 1017 l 979 0 l 703 0 l 643 178 l 369 178 l 311 0 l 35 0 m 431 407 l 589 407 l 515 679 l 431 407 z "},"Ã":{"ha":988,"x_min":35,"x_max":979,"o":"m 442 1303 q 517 1278 472 1303 q 589 1254 561 1254 q 596 1254 593 1254 q 717 1310 664 1254 l 753 1207 q 597 1107 686 1107 q 515 1131 567 1107 q 431 1156 464 1156 q 308 1107 371 1156 l 269 1200 q 442 1303 342 1303 m 35 0 l 353 1017 l 671 1017 l 979 0 l 703 0 l 643 178 l 369 178 l 311 0 l 35 0 m 431 407 l 589 407 l 515 679 l 431 407 z "},"Ä":{"ha":988,"x_min":35,"x_max":979,"o":"m 271 1134 q 258 1148 271 1134 q 244 1199 244 1161 q 271 1263 244 1236 q 335 1289 297 1289 q 399 1263 372 1289 q 425 1199 425 1236 q 399 1134 425 1161 q 335 1107 372 1107 q 271 1134 297 1107 m 625 1134 q 611 1148 625 1134 q 597 1199 597 1161 q 624 1263 597 1236 q 690 1289 651 1289 q 754 1263 728 1289 q 781 1199 781 1236 q 753 1134 781 1161 q 690 1107 726 1107 q 625 1134 653 1107 m 35 0 l 353 1017 l 671 1017 l 979 0 l 703 0 l 643 178 l 369 178 l 311 0 l 35 0 m 431 407 l 589 407 l 515 679 l 431 407 z "},"Å":{"ha":988,"x_min":35,"x_max":979,"o":"m 371 1166 q 371 1141 371 1166 q 390 1084 371 1117 q 441 1033 408 1051 q 513 1014 474 1014 q 583 1033 551 1014 q 634 1084 615 1051 q 653 1166 653 1117 q 612 1257 653 1215 q 513 1299 571 1299 q 413 1257 454 1299 q 371 1166 371 1215 m 479 1123 q 472 1130 479 1123 q 465 1156 465 1136 q 479 1189 465 1175 q 513 1203 493 1203 q 545 1190 532 1203 q 558 1156 558 1176 q 545 1123 558 1136 q 513 1110 532 1110 q 479 1123 493 1110 m 35 0 l 353 1017 l 671 1017 l 979 0 l 703 0 l 643 178 l 369 178 l 311 0 l 35 0 m 431 407 l 589 407 l 515 679 l 431 407 z "},"Æ":{"ha":1363,"x_min":24,"x_max":1328,"o":"m 622 981 q 744 1012 690 1006 q 835 1018 797 1018 q 901 1017 874 1018 q 1328 994 1165 1017 l 1328 768 l 985 768 q 934 755 951 768 q 915 728 917 742 q 913 690 913 715 l 913 629 l 1258 614 l 1258 390 l 913 378 l 913 317 q 942 253 913 264 q 999 244 964 244 l 1328 244 l 1328 19 q 986 -3 1188 1 l 915 -4 q 880 -6 901 -6 q 824 -1 858 -6 q 744 20 789 4 q 671 74 699 36 q 643 168 643 113 l 643 232 l 439 232 l 322 0 l 24 0 l 400 767 q 622 981 481 931 m 643 460 l 643 669 l 547 460 l 643 460 z "},"Ç":{"ha":788,"x_min":43,"x_max":761,"o":"m 761 763 q 508 786 619 786 q 371 771 396 786 q 313 508 313 736 q 344 285 313 336 q 479 233 375 233 q 722 242 624 233 l 761 246 l 761 36 q 628 0 694 8 q 494 -8 561 -8 q 394 -8 428 -8 q 124 122 206 -6 q 43 510 43 249 q 120 900 43 772 q 394 1028 197 1028 q 603 1017 539 1028 q 761 972 668 1007 l 761 763 m 350 -50 l 513 -50 q 476 -206 513 -158 q 344 -253 439 -253 l 260 -253 l 260 -143 l 311 -122 q 345 -100 340 -110 q 350 -50 350 -90 z "},"È":{"ha":788,"x_min":56,"x_max":768,"o":"m 215 1307 l 417 1307 l 524 1108 l 372 1108 l 215 1307 m 56 224 l 56 781 q 314 1017 56 1017 q 768 994 606 1017 l 768 768 l 397 768 q 347 755 364 768 q 327 728 329 742 q 325 690 325 715 l 325 629 l 699 614 l 699 390 l 325 378 l 325 317 q 354 253 325 264 q 411 244 378 244 l 768 244 l 768 19 q 406 -3 628 1 l 328 -4 q 301 -4 317 -4 q 259 -2 285 -4 q 194 14 233 0 q 125 51 154 28 q 76 118 96 74 q 56 224 56 163 z "},"É":{"ha":788,"x_min":56,"x_max":768,"o":"m 369 1107 l 476 1306 l 678 1306 l 521 1107 l 369 1107 m 56 224 l 56 781 q 314 1017 56 1017 q 768 994 606 1017 l 768 768 l 397 768 q 347 755 364 768 q 327 728 329 742 q 325 690 325 715 l 325 629 l 699 614 l 699 390 l 325 378 l 325 317 q 354 253 325 264 q 411 244 378 244 l 768 244 l 768 19 q 406 -3 628 1 l 328 -4 q 301 -4 317 -4 q 259 -2 285 -4 q 194 14 233 0 q 125 51 154 28 q 76 118 96 74 q 56 224 56 163 z "},"Ê":{"ha":788,"x_min":56,"x_max":768,"o":"m 219 1107 l 358 1301 l 540 1301 l 667 1107 l 513 1107 l 444 1178 l 375 1107 l 219 1107 m 56 224 l 56 781 q 314 1017 56 1017 q 768 994 606 1017 l 768 768 l 397 768 q 347 755 364 768 q 327 728 329 742 q 325 690 325 715 l 325 629 l 699 614 l 699 390 l 325 378 l 325 317 q 354 253 325 264 q 411 244 378 244 l 768 244 l 768 19 q 406 -3 628 1 l 328 -4 q 301 -4 317 -4 q 259 -2 285 -4 q 194 14 233 0 q 125 51 154 28 q 76 118 96 74 q 56 224 56 163 z "},"Ë":{"ha":788,"x_min":56,"x_max":768,"o":"m 188 1134 q 175 1148 188 1134 q 161 1199 161 1161 q 188 1263 161 1236 q 253 1289 215 1289 q 317 1263 290 1289 q 343 1199 343 1236 q 317 1134 343 1161 q 253 1107 290 1107 q 188 1134 215 1107 m 542 1134 q 529 1148 542 1134 q 515 1199 515 1161 q 542 1263 515 1236 q 607 1289 569 1289 q 671 1263 644 1289 q 697 1199 697 1236 q 671 1134 697 1161 q 607 1107 644 1107 q 542 1134 569 1107 m 56 224 l 56 781 q 314 1017 56 1017 q 768 994 606 1017 l 768 768 l 397 768 q 347 755 364 768 q 327 728 329 742 q 325 690 325 715 l 325 629 l 699 614 l 699 390 l 325 378 l 325 317 q 354 253 325 264 q 411 244 378 244 l 768 244 l 768 19 q 406 -3 628 1 l 328 -4 q 301 -4 317 -4 q 259 -2 285 -4 q 194 14 233 0 q 125 51 154 28 q 76 118 96 74 q 56 224 56 163 z "},"Ì":{"ha":378,"x_min":-36,"x_max":332,"o":"m -36 1306 l 167 1306 l 272 1107 l 122 1107 l -36 1306 m 63 0 l 63 1017 l 332 1017 l 332 0 l 63 0 z "},"Í":{"ha":378,"x_min":63,"x_max":431,"o":"m 122 1107 l 228 1306 l 431 1306 l 272 1107 l 122 1107 m 63 0 l 63 1017 l 332 1017 l 332 0 l 63 0 z "},"Î":{"ha":378,"x_min":-26,"x_max":421,"o":"m -26 1107 l 113 1301 l 294 1301 l 421 1107 l 267 1107 l 199 1178 l 129 1107 l -26 1107 m 63 0 l 63 1017 l 332 1017 l 332 0 l 63 0 z "},"Ï":{"ha":378,"x_min":-71,"x_max":465,"o":"m -44 1134 q -57 1148 -44 1134 q -71 1199 -71 1161 q -44 1263 -71 1236 q 21 1289 -17 1289 q 85 1263 58 1289 q 111 1199 111 1236 q 85 1134 111 1161 q 21 1107 58 1107 q -44 1134 -17 1107 m 310 1134 q 297 1148 310 1134 q 283 1199 283 1161 q 310 1263 283 1236 q 375 1289 338 1289 q 439 1263 413 1289 q 465 1199 465 1236 q 439 1134 465 1161 q 375 1107 413 1107 q 310 1134 338 1107 m 63 0 l 63 1017 l 332 1017 l 332 0 l 63 0 z "},"Ð":{"ha":926,"x_min":-28,"x_max":885,"o":"m -28 467 l -28 569 l 63 569 l 63 1017 l 539 1017 q 875 669 832 1017 q 885 504 885 596 q 800 120 885 240 q 539 0 715 0 l 63 0 l 63 467 l -28 467 m 332 228 l 511 228 q 592 292 569 228 q 615 491 615 356 q 602 690 615 626 q 568 772 589 754 q 511 789 547 789 l 332 789 l 332 569 l 456 569 l 456 467 l 332 467 l 332 228 z "},"Ñ":{"ha":940,"x_min":63,"x_max":894,"o":"m 408 1303 q 483 1278 439 1303 q 556 1254 528 1254 q 563 1254 560 1254 q 683 1310 631 1254 l 719 1207 q 564 1107 653 1107 q 482 1131 533 1107 q 397 1156 431 1156 q 275 1107 338 1156 l 236 1200 q 408 1303 308 1303 m 63 0 l 63 1017 l 335 1017 l 625 497 l 625 1017 l 894 1017 l 894 0 l 625 0 l 333 506 l 333 0 l 63 0 z "},"Ò":{"ha":926,"x_min":51,"x_max":893,"o":"m 239 1306 l 442 1306 l 547 1107 l 397 1107 l 239 1306 m 106 165 q 92 192 106 165 q 65 303 78 219 q 51 494 51 388 q 63 680 51 601 q 94 813 75 758 q 144 907 113 868 q 208 968 175 946 q 286 1003 240 990 q 444 1024 358 1024 q 572 1019 529 1024 q 660 1003 614 1015 q 740 968 707 990 q 803 907 772 946 q 853 814 833 868 q 893 531 893 693 q 872 276 893 369 q 818 129 851 183 q 728 44 785 75 q 613 4 671 14 q 478 -6 556 -6 q 353 0 401 -6 q 253 23 306 6 q 167 75 200 40 q 106 165 133 110 m 377 763 q 362 754 377 763 q 334 686 347 744 q 321 482 321 628 q 347 286 321 336 q 468 236 374 236 q 593 289 563 236 q 624 468 624 342 q 618 646 624 594 q 595 730 613 697 q 550 772 578 763 q 465 782 522 782 q 377 763 407 782 z "},"Ó":{"ha":926,"x_min":51,"x_max":893,"o":"m 397 1107 l 503 1306 l 706 1306 l 547 1107 l 397 1107 m 106 165 q 92 192 106 165 q 65 303 78 219 q 51 494 51 388 q 63 680 51 601 q 94 813 75 758 q 144 907 113 868 q 208 968 175 946 q 286 1003 240 990 q 444 1024 358 1024 q 572 1019 529 1024 q 660 1003 614 1015 q 740 968 707 990 q 803 907 772 946 q 853 814 833 868 q 893 531 893 693 q 872 276 893 369 q 818 129 851 183 q 728 44 785 75 q 613 4 671 14 q 478 -6 556 -6 q 353 0 401 -6 q 253 23 306 6 q 167 75 200 40 q 106 165 133 110 m 377 763 q 362 754 377 763 q 334 686 347 744 q 321 482 321 628 q 347 286 321 336 q 468 236 374 236 q 593 289 563 236 q 624 468 624 342 q 618 646 624 594 q 595 730 613 697 q 550 772 578 763 q 465 782 522 782 q 377 763 407 782 z "},"Ô":{"ha":926,"x_min":51,"x_max":893,"o":"m 249 1107 l 388 1301 l 569 1301 l 696 1107 l 542 1107 l 474 1178 l 404 1107 l 249 1107 m 106 165 q 92 192 106 165 q 65 303 78 219 q 51 494 51 388 q 63 680 51 601 q 94 813 75 758 q 144 907 113 868 q 208 968 175 946 q 286 1003 240 990 q 444 1024 358 1024 q 572 1019 529 1024 q 660 1003 614 1015 q 740 968 707 990 q 803 907 772 946 q 853 814 833 868 q 893 531 893 693 q 872 276 893 369 q 818 129 851 183 q 728 44 785 75 q 613 4 671 14 q 478 -6 556 -6 q 353 0 401 -6 q 253 23 306 6 q 167 75 200 40 q 106 165 133 110 m 377 763 q 362 754 377 763 q 334 686 347 744 q 321 482 321 628 q 347 286 321 336 q 468 236 374 236 q 593 289 563 236 q 624 468 624 342 q 618 646 624 594 q 595 730 613 697 q 550 772 578 763 q 465 782 522 782 q 377 763 407 782 z "},"Õ":{"ha":926,"x_min":51,"x_max":893,"o":"m 401 1303 q 478 1278 433 1303 q 549 1254 522 1254 q 558 1254 553 1254 q 678 1310 625 1254 l 714 1207 q 558 1107 647 1107 q 476 1131 528 1107 q 397 1156 424 1156 q 268 1107 331 1156 l 231 1200 q 401 1303 301 1303 m 106 165 q 92 192 106 165 q 65 303 78 219 q 51 494 51 388 q 63 680 51 601 q 94 813 75 758 q 144 907 113 868 q 208 968 175 946 q 286 1003 240 990 q 444 1024 358 1024 q 572 1019 529 1024 q 660 1003 614 1015 q 740 968 707 990 q 803 907 772 946 q 853 814 833 868 q 893 531 893 693 q 872 276 893 369 q 818 129 851 183 q 728 44 785 75 q 613 4 671 14 q 478 -6 556 -6 q 353 0 401 -6 q 253 23 306 6 q 167 75 200 40 q 106 165 133 110 m 377 763 q 362 754 377 763 q 334 686 347 744 q 321 482 321 628 q 347 286 321 336 q 468 236 374 236 q 593 289 563 236 q 624 468 624 342 q 618 646 624 594 q 595 730 613 697 q 550 772 578 763 q 465 782 522 782 q 377 763 407 782 z "},"Ö":{"ha":926,"x_min":51,"x_max":893,"o":"m 231 1134 q 218 1148 231 1134 q 204 1199 204 1161 q 231 1263 204 1236 q 296 1289 258 1289 q 360 1263 333 1289 q 386 1199 386 1236 q 360 1134 386 1161 q 296 1107 333 1107 q 231 1134 258 1107 m 585 1134 q 572 1148 585 1134 q 558 1199 558 1161 q 585 1263 558 1236 q 650 1289 613 1289 q 714 1263 688 1289 q 740 1199 740 1236 q 714 1134 740 1161 q 650 1107 688 1107 q 585 1134 613 1107 m 106 165 q 92 192 106 165 q 65 303 78 219 q 51 494 51 388 q 63 680 51 601 q 94 813 75 758 q 144 907 113 868 q 208 968 175 946 q 286 1003 240 990 q 444 1024 358 1024 q 572 1019 529 1024 q 660 1003 614 1015 q 740 968 707 990 q 803 907 772 946 q 853 814 833 868 q 893 531 893 693 q 872 276 893 369 q 818 129 851 183 q 728 44 785 75 q 613 4 671 14 q 478 -6 556 -6 q 353 0 401 -6 q 253 23 306 6 q 167 75 200 40 q 106 165 133 110 m 377 763 q 362 754 377 763 q 334 686 347 744 q 321 482 321 628 q 347 286 321 336 q 468 236 374 236 q 593 289 563 236 q 624 468 624 342 q 618 646 624 594 q 595 730 613 697 q 550 772 578 763 q 465 782 522 782 q 377 763 407 782 z "},"×":{"ha":646,"x_min":44,"x_max":604,"o":"m 44 365 l 172 493 l 44 622 l 194 774 l 324 644 l 453 775 l 604 624 l 475 493 l 604 365 l 453 214 l 324 342 l 196 214 l 44 365 z "},"Ø":{"ha":947,"x_min":43,"x_max":906,"o":"m 156 907 q 220 968 188 946 q 300 1003 253 990 q 485 1024 371 1024 q 742 974 658 1024 l 772 1017 l 892 1017 l 814 908 q 906 501 906 785 q 831 129 906 251 q 740 44 797 75 q 626 4 683 14 q 485 -6 568 -6 q 203 56 286 -6 l 163 0 l 43 0 l 136 129 q 64 519 64 247 q 156 907 64 792 m 390 763 q 375 754 390 763 q 347 686 360 744 q 333 531 333 628 q 335 407 333 435 l 586 757 q 488 782 557 782 q 390 763 419 782 m 364 281 q 484 236 393 236 q 606 289 575 236 q 636 472 636 342 q 629 651 636 603 l 364 281 z "},"Ù":{"ha":910,"x_min":63,"x_max":864,"o":"m 231 1306 l 432 1306 l 539 1107 l 388 1107 l 231 1306 m 63 444 l 63 1017 l 332 1017 l 332 444 q 363 269 332 303 q 467 235 396 235 q 564 272 532 235 q 593 444 593 303 l 593 1017 l 864 1017 l 864 444 q 797 128 864 228 q 754 72 775 93 q 701 34 733 50 q 645 10 668 18 q 583 -1 622 3 q 498 -7 533 -7 q 421 -7 463 -7 q 340 -4 379 -7 q 238 22 300 -1 q 144 90 176 44 q 88 224 113 135 q 63 444 63 314 z "},"Ú":{"ha":910,"x_min":63,"x_max":864,"o":"m 388 1107 l 494 1306 l 696 1306 l 539 1107 l 388 1107 m 63 444 l 63 1017 l 332 1017 l 332 444 q 363 269 332 303 q 467 235 396 235 q 564 272 532 235 q 593 444 593 303 l 593 1017 l 864 1017 l 864 444 q 797 128 864 228 q 754 72 775 93 q 701 34 733 50 q 645 10 668 18 q 583 -1 622 3 q 498 -7 533 -7 q 421 -7 463 -7 q 340 -4 379 -7 q 238 22 300 -1 q 144 90 176 44 q 88 224 113 135 q 63 444 63 314 z "},"Û":{"ha":910,"x_min":63,"x_max":864,"o":"m 239 1107 l 378 1301 l 561 1301 l 686 1107 l 533 1107 l 464 1178 l 394 1107 l 239 1107 m 63 444 l 63 1017 l 332 1017 l 332 444 q 363 269 332 303 q 467 235 396 235 q 564 272 532 235 q 593 444 593 303 l 593 1017 l 864 1017 l 864 444 q 797 128 864 228 q 754 72 775 93 q 701 34 733 50 q 645 10 668 18 q 583 -1 622 3 q 498 -7 533 -7 q 421 -7 463 -7 q 340 -4 379 -7 q 238 22 300 -1 q 144 90 176 44 q 88 224 113 135 q 63 444 63 314 z "},"Ü":{"ha":910,"x_min":63,"x_max":864,"o":"m 222 1134 q 208 1148 222 1134 q 194 1199 194 1161 q 222 1263 194 1236 q 287 1289 249 1289 q 351 1263 325 1289 q 378 1199 378 1236 q 351 1134 378 1161 q 287 1107 324 1107 q 222 1134 250 1107 m 576 1134 q 563 1148 576 1134 q 550 1199 550 1161 q 576 1263 550 1236 q 640 1289 603 1289 q 704 1263 678 1289 q 731 1199 731 1236 q 704 1134 731 1161 q 640 1107 678 1107 q 576 1134 603 1107 m 63 444 l 63 1017 l 332 1017 l 332 444 q 363 269 332 303 q 467 235 396 235 q 564 272 532 235 q 593 444 593 303 l 593 1017 l 864 1017 l 864 444 q 797 128 864 228 q 754 72 775 93 q 701 34 733 50 q 645 10 668 18 q 583 -1 622 3 q 498 -7 533 -7 q 421 -7 463 -7 q 340 -4 379 -7 q 238 22 300 -1 q 144 90 176 44 q 88 224 113 135 q 63 444 63 314 z "},"Ý":{"ha":943,"x_min":35,"x_max":924,"o":"m 403 1107 l 511 1306 l 711 1306 l 556 1107 l 403 1107 m 603 0 l 333 0 l 333 278 l 35 1017 l 328 1017 l 474 567 l 631 1017 l 924 1017 l 603 278 l 603 0 z "},"Þ":{"ha":747,"x_min":47,"x_max":710,"o":"m 47 0 l 47 1013 l 317 1013 l 317 817 l 465 817 q 710 521 710 817 q 594 239 710 299 q 428 206 532 206 q 380 209 401 206 q 317 233 358 213 l 317 0 l 47 0 m 317 435 l 354 435 q 424 448 410 435 q 439 506 439 461 q 428 567 439 551 q 402 586 417 583 q 354 589 388 589 l 317 589 l 317 435 z "},"ß":{"ha":797,"x_min":47,"x_max":783,"o":"m 47 0 l 47 786 q 137 1002 47 915 q 399 1089 226 1089 q 627 1040 538 1089 q 744 917 717 992 q 764 825 764 867 q 696 600 764 699 q 661 558 683 581 q 628 519 639 536 q 618 483 618 503 q 644 440 618 464 q 701 394 669 417 q 758 329 732 372 q 783 235 783 286 l 783 211 q 717 38 783 86 q 544 -11 650 -11 q 358 15 438 -11 l 358 197 q 444 189 425 189 q 514 256 514 189 l 514 264 q 490 315 514 290 q 438 356 467 339 q 386 407 410 372 q 363 485 363 442 q 376 563 363 529 q 404 614 390 597 q 457 669 418 631 q 496 761 496 708 q 476 833 496 814 q 403 851 456 851 q 334 813 351 851 q 317 661 317 774 l 317 0 l 47 0 z "},"à":{"ha":721,"x_min":31,"x_max":683,"o":"m 139 1033 l 342 1033 l 447 835 l 297 835 l 139 1033 m 31 199 l 31 256 q 85 410 31 349 q 272 472 140 472 q 378 472 343 472 q 414 472 414 472 q 415 492 415 481 q 410 518 414 504 q 401 540 406 532 q 382 550 396 547 q 328 554 361 554 l 56 539 l 56 696 q 194 740 125 729 q 372 751 263 751 q 607 697 531 751 q 683 496 683 643 l 683 0 l 467 0 l 414 75 q 365 17 400 43 q 271 -8 329 -8 q 153 15 203 -8 q 78 69 103 38 q 31 199 31 132 m 344 192 l 358 192 q 397 203 383 192 q 413 225 411 214 l 414 238 l 414 321 l 342 314 q 311 299 321 313 q 301 278 301 286 q 300 251 300 269 l 300 243 q 317 197 300 204 q 322 194 321 196 q 344 192 328 192 z "},"á":{"ha":721,"x_min":31,"x_max":683,"o":"m 297 835 l 403 1033 l 606 1033 l 447 835 l 297 835 m 31 199 l 31 256 q 85 410 31 349 q 272 472 140 472 q 378 472 343 472 q 414 472 414 472 q 415 492 415 481 q 410 518 414 504 q 401 540 406 532 q 382 550 396 547 q 328 554 361 554 l 56 539 l 56 696 q 194 740 125 729 q 372 751 263 751 q 607 697 531 751 q 683 496 683 643 l 683 0 l 467 0 l 414 75 q 365 17 400 43 q 271 -8 329 -8 q 153 15 203 -8 q 78 69 103 38 q 31 199 31 132 m 344 192 l 358 192 q 397 203 383 192 q 413 225 411 214 l 414 238 l 414 321 l 342 314 q 311 299 321 313 q 301 278 301 286 q 300 251 300 269 l 300 243 q 317 197 300 204 q 322 194 321 196 q 344 192 328 192 z "},"â":{"ha":721,"x_min":31,"x_max":683,"o":"m 149 835 l 288 1029 l 469 1029 l 596 835 l 442 835 l 374 906 l 304 835 l 149 835 m 31 199 l 31 256 q 85 410 31 349 q 272 472 140 472 q 378 472 343 472 q 414 472 414 472 q 415 492 415 481 q 410 518 414 504 q 401 540 406 532 q 382 550 396 547 q 328 554 361 554 l 56 539 l 56 696 q 194 740 125 729 q 372 751 263 751 q 607 697 531 751 q 683 496 683 643 l 683 0 l 467 0 l 414 75 q 365 17 400 43 q 271 -8 329 -8 q 153 15 203 -8 q 78 69 103 38 q 31 199 31 132 m 344 192 l 358 192 q 397 203 383 192 q 413 225 411 214 l 414 238 l 414 321 l 342 314 q 311 299 321 313 q 301 278 301 286 q 300 251 300 269 l 300 243 q 317 197 300 204 q 322 194 321 196 q 344 192 328 192 z "},"ã":{"ha":721,"x_min":31,"x_max":683,"o":"m 301 1031 q 378 1006 333 1031 q 449 982 422 982 q 458 982 453 982 q 578 1038 525 982 l 614 935 q 458 835 547 835 q 376 859 428 835 q 297 883 324 883 q 168 835 231 883 l 131 928 q 301 1031 201 1031 m 31 199 l 31 256 q 85 410 31 349 q 272 472 140 472 q 378 472 343 472 q 414 472 414 472 q 415 492 415 481 q 410 518 414 504 q 401 540 406 532 q 382 550 396 547 q 328 554 361 554 l 56 539 l 56 696 q 194 740 125 729 q 372 751 263 751 q 607 697 531 751 q 683 496 683 643 l 683 0 l 467 0 l 414 75 q 365 17 400 43 q 271 -8 329 -8 q 153 15 203 -8 q 78 69 103 38 q 31 199 31 132 m 344 192 l 358 192 q 397 203 383 192 q 413 225 411 214 l 414 238 l 414 321 l 342 314 q 311 299 321 313 q 301 278 301 286 q 300 251 300 269 l 300 243 q 317 197 300 204 q 322 194 321 196 q 344 192 328 192 z "},"ä":{"ha":721,"x_min":31,"x_max":683,"o":"m 131 862 q 118 875 131 862 q 104 926 104 889 q 131 990 104 964 q 196 1017 158 1017 q 260 990 233 1017 q 286 926 286 964 q 260 862 286 889 q 196 835 233 835 q 131 862 158 835 m 485 862 q 472 875 485 862 q 458 926 458 889 q 485 990 458 964 q 550 1017 513 1017 q 614 990 588 1017 q 640 926 640 964 q 614 862 640 889 q 550 835 588 835 q 485 862 513 835 m 31 199 l 31 256 q 85 410 31 349 q 272 472 140 472 q 378 472 343 472 q 414 472 414 472 q 415 492 415 481 q 410 518 414 504 q 401 540 406 532 q 382 550 396 547 q 328 554 361 554 l 56 539 l 56 696 q 194 740 125 729 q 372 751 263 751 q 607 697 531 751 q 683 496 683 643 l 683 0 l 467 0 l 414 75 q 365 17 400 43 q 271 -8 329 -8 q 153 15 203 -8 q 78 69 103 38 q 31 199 31 132 m 344 192 l 358 192 q 397 203 383 192 q 413 225 411 214 l 414 238 l 414 321 l 342 314 q 311 299 321 313 q 301 278 301 286 q 300 251 300 269 l 300 243 q 317 197 300 204 q 322 194 321 196 q 344 192 328 192 z "},"å":{"ha":721,"x_min":31,"x_max":683,"o":"m 276 876 q 266 885 276 876 q 245 921 257 894 q 233 981 233 947 q 253 1048 233 1015 q 305 1100 272 1081 q 385 1119 338 1119 q 475 1078 433 1119 q 517 987 517 1036 q 498 905 517 938 q 447 853 479 872 q 381 835 414 835 q 321 846 347 835 q 276 876 294 857 m 376 1024 q 366 1024 376 1024 q 342 1010 356 1024 q 328 980 328 996 q 335 953 328 964 q 372 931 349 931 q 409 944 396 931 q 422 976 422 957 q 409 1010 422 996 q 376 1024 396 1024 m 31 199 l 31 256 q 85 410 31 349 q 272 472 140 472 q 378 472 343 472 q 414 472 414 472 q 415 492 415 481 q 410 518 414 504 q 401 540 406 532 q 382 550 396 547 q 328 554 361 554 l 56 539 l 56 696 q 194 740 125 729 q 372 751 263 751 q 607 697 531 751 q 683 496 683 643 l 683 0 l 467 0 l 414 75 q 365 17 400 43 q 271 -8 329 -8 q 153 15 203 -8 q 78 69 103 38 q 31 199 31 132 m 344 192 l 358 192 q 397 203 383 192 q 413 225 411 214 l 414 238 l 414 321 l 342 314 q 311 299 321 313 q 301 278 301 286 q 300 251 300 269 l 300 243 q 317 197 300 204 q 322 194 321 196 q 344 192 328 192 z "},"æ":{"ha":1139,"x_min":31,"x_max":1108,"o":"m 1094 32 q 807 -7 1017 -7 q 692 -7 750 -7 q 500 88 557 -7 q 409 19 482 47 q 271 -8 336 -8 q 153 15 203 -8 q 78 69 103 38 q 31 199 31 132 l 31 242 q 85 397 31 335 q 272 458 140 458 q 378 458 343 458 q 414 458 414 458 q 415 492 415 481 q 410 518 414 504 q 401 540 406 532 q 382 550 396 547 q 328 554 361 554 l 56 538 l 56 696 q 194 740 125 729 q 372 751 263 751 q 581 710 525 746 q 769 743 654 743 q 1035 693 963 743 q 1108 485 1108 643 q 1053 340 1108 378 q 889 301 999 301 l 718 301 q 758 212 718 232 q 894 192 797 192 q 1094 207 990 192 l 1094 32 m 332 190 l 358 192 q 397 203 383 192 q 413 225 411 214 l 414 238 l 414 307 l 342 300 q 311 285 321 299 q 301 264 301 272 q 300 238 300 256 l 300 236 q 311 197 300 203 q 332 190 322 190 m 797 458 q 827 471 815 458 q 839 512 839 483 q 831 549 839 540 q 804 557 824 557 q 770 557 785 557 q 747 556 756 557 q 731 544 739 554 q 718 503 718 533 q 718 458 718 474 l 797 458 z "},"ç":{"ha":681,"x_min":39,"x_max":650,"o":"m 421 -8 l 282 -7 q 39 369 39 -7 q 103 659 39 574 q 282 744 167 744 q 350 744 315 744 q 640 694 511 744 l 640 536 q 473 544 557 544 q 372 542 389 544 q 337 524 356 540 q 313 471 318 507 q 308 368 308 435 q 313 267 308 301 q 334 216 317 233 q 370 196 351 199 q 439 193 389 193 q 625 201 547 193 l 650 204 l 650 46 q 421 -8 575 -8 m 290 -53 l 453 -53 q 416 -208 453 -161 q 285 -256 379 -256 l 200 -256 l 200 -146 l 251 -125 q 285 -103 281 -112 q 290 -53 290 -93 z "},"è":{"ha":729,"x_min":39,"x_max":699,"o":"m 139 1026 l 339 1026 l 447 828 l 294 828 l 139 1026 m 685 32 q 397 -7 607 -7 q 282 -7 339 -7 q 92 83 146 -7 q 39 350 39 174 q 72 606 39 526 q 169 715 104 686 q 349 743 235 743 q 519 735 463 743 q 621 697 576 726 q 682 614 665 668 q 699 460 699 560 q 643 315 699 360 q 481 271 588 271 l 308 271 q 328 206 308 229 q 386 190 340 190 l 476 192 q 685 207 581 192 l 685 32 m 389 442 q 418 454 407 442 q 429 497 429 467 q 422 542 429 528 q 374 557 414 557 q 322 538 335 557 q 308 456 308 519 q 308 442 308 449 l 389 442 z "},"é":{"ha":729,"x_min":39,"x_max":699,"o":"m 294 828 l 403 1026 l 603 1026 l 447 828 l 294 828 m 685 32 q 397 -7 607 -7 q 282 -7 339 -7 q 92 83 146 -7 q 39 350 39 174 q 72 606 39 526 q 169 715 104 686 q 349 743 235 743 q 519 735 463 743 q 621 697 576 726 q 682 614 665 668 q 699 460 699 560 q 643 315 699 360 q 481 271 588 271 l 308 271 q 328 206 308 229 q 386 190 340 190 l 476 192 q 685 207 581 192 l 685 32 m 389 442 q 418 454 407 442 q 429 497 429 467 q 422 542 429 528 q 374 557 414 557 q 322 538 335 557 q 308 456 308 519 q 308 442 308 449 l 389 442 z "},"ê":{"ha":729,"x_min":39,"x_max":699,"o":"m 138 828 l 276 1022 l 458 1022 l 585 828 l 431 828 l 363 899 l 293 828 l 138 828 m 685 32 q 397 -7 607 -7 q 282 -7 339 -7 q 92 83 146 -7 q 39 350 39 174 q 72 606 39 526 q 169 715 104 686 q 349 743 235 743 q 519 735 463 743 q 621 697 576 726 q 682 614 665 668 q 699 460 699 560 q 643 315 699 360 q 481 271 588 271 l 308 271 q 328 206 308 229 q 386 190 340 190 l 476 192 q 685 207 581 192 l 685 32 m 389 442 q 418 454 407 442 q 429 497 429 467 q 422 542 429 528 q 374 557 414 557 q 322 538 335 557 q 308 456 308 519 q 308 442 308 449 l 389 442 z "},"ë":{"ha":729,"x_min":39,"x_max":699,"o":"m 120 855 q 107 868 120 855 q 93 919 93 882 q 120 983 93 957 q 185 1010 147 1010 q 249 983 222 1010 q 275 919 275 957 q 249 855 275 882 q 185 828 222 828 q 120 855 147 828 m 474 855 q 461 868 474 855 q 447 919 447 882 q 474 983 447 957 q 539 1010 501 1010 q 603 983 576 1010 q 629 919 629 957 q 603 855 629 882 q 539 828 576 828 q 474 855 501 828 m 685 32 q 397 -7 607 -7 q 282 -7 339 -7 q 92 83 146 -7 q 39 350 39 174 q 72 606 39 526 q 169 715 104 686 q 349 743 235 743 q 519 735 463 743 q 621 697 576 726 q 682 614 665 668 q 699 460 699 560 q 643 315 699 360 q 481 271 588 271 l 308 271 q 328 206 308 229 q 386 190 340 190 l 476 192 q 685 207 581 192 l 685 32 m 389 442 q 418 454 407 442 q 429 497 429 467 q 422 542 429 528 q 374 557 414 557 q 322 538 335 557 q 308 456 308 519 q 308 442 308 449 l 389 442 z "},"ì":{"ha":363,"x_min":-51,"x_max":317,"o":"m -50 1026 l 150 1026 l 258 828 l 106 828 l -50 1026 m 47 0 l 47 738 l 317 738 l 317 0 l 47 0 z "},"í":{"ha":363,"x_min":47,"x_max":415,"o":"m 106 828 l 214 1026 l 414 1026 l 258 828 l 106 828 m 47 0 l 47 738 l 317 738 l 317 0 l 47 0 z "},"î":{"ha":363,"x_min":-42,"x_max":406,"o":"m -42 828 l 97 1022 l 279 1022 l 406 828 l 251 828 l 183 899 l 114 828 l -42 828 m 47 0 l 47 738 l 317 738 l 317 0 l 47 0 z "},"ï":{"ha":363,"x_min":-86,"x_max":450,"o":"m -59 855 q -73 868 -59 855 q -86 919 -86 882 q -59 983 -86 957 q 6 1010 -32 1010 q 69 983 43 1010 q 96 919 96 957 q 69 855 96 882 q 6 828 43 828 q -59 855 -32 828 m 295 855 q 282 868 295 855 q 268 919 268 882 q 295 983 268 957 q 360 1010 322 1010 q 424 983 397 1010 q 450 919 450 957 q 424 855 450 882 q 360 828 397 828 q 295 855 322 828 m 47 0 l 47 738 l 317 738 l 317 0 l 47 0 z "},"ð":{"ha":754,"x_min":31,"x_max":722,"o":"m 31 367 q 300 738 31 738 l 328 738 q 439 731 411 738 q 378 825 422 790 l 256 756 l 211 833 l 269 867 q 180 872 231 872 q 100 872 129 872 l 100 1088 q 508 1003 367 1088 l 608 1058 l 653 981 l 586 943 q 694 724 665 860 q 722 380 722 588 q 649 86 722 172 q 453 0 575 0 l 300 0 q 94 89 158 0 q 31 367 31 178 m 311 472 q 306 459 311 472 q 300 367 300 447 q 308 265 300 286 q 358 244 317 244 l 397 244 q 445 263 438 244 q 453 370 453 281 q 445 478 453 460 q 397 496 438 496 l 358 496 q 311 472 322 496 z "},"ñ":{"ha":771,"x_min":47,"x_max":733,"o":"m 319 1029 q 394 1005 350 1029 q 467 981 439 981 q 476 981 471 981 q 596 1036 543 981 l 632 933 q 476 833 565 833 q 394 858 446 833 q 315 882 342 882 q 186 833 249 882 l 149 926 q 319 1029 219 1029 m 47 0 l 47 738 l 272 738 l 317 665 q 366 708 347 694 q 426 736 385 722 q 528 750 467 750 q 633 730 589 750 q 699 668 678 710 q 726 583 719 626 q 733 472 733 539 l 733 0 l 464 0 l 464 478 q 453 535 464 519 q 418 550 442 550 q 317 499 339 550 l 317 0 l 47 0 z "},"ò":{"ha":769,"x_min":39,"x_max":731,"o":"m 153 1026 l 353 1026 l 461 828 l 308 828 l 153 1026 m 387 -7 q 289 -7 387 -7 q 115 76 192 -7 q 39 369 39 158 q 115 663 39 581 q 385 744 190 744 q 655 661 579 744 q 731 365 731 578 q 656 72 731 151 q 387 -7 582 -7 m 383 544 q 355 544 383 544 q 317 517 326 544 q 308 368 308 489 q 320 220 308 247 q 386 193 332 193 q 451 217 440 193 q 461 363 461 240 q 451 515 461 486 q 383 544 440 544 z "},"ó":{"ha":769,"x_min":39,"x_max":731,"o":"m 308 828 l 417 1026 l 617 1026 l 461 828 l 308 828 m 387 -7 q 289 -7 387 -7 q 115 76 192 -7 q 39 369 39 158 q 115 663 39 581 q 385 744 190 744 q 655 661 579 744 q 731 365 731 578 q 656 72 731 151 q 387 -7 582 -7 m 383 544 q 355 544 383 544 q 317 517 326 544 q 308 368 308 489 q 320 220 308 247 q 386 193 332 193 q 451 217 440 193 q 461 363 461 240 q 451 515 461 486 q 383 544 440 544 z "},"ô":{"ha":769,"x_min":39,"x_max":731,"o":"m 161 828 l 300 1022 l 482 1022 l 608 828 l 454 828 l 386 899 l 317 828 l 161 828 m 387 -7 q 289 -7 387 -7 q 115 76 192 -7 q 39 369 39 158 q 115 663 39 581 q 385 744 190 744 q 655 661 579 744 q 731 365 731 578 q 656 72 731 151 q 387 -7 582 -7 m 383 544 q 355 544 383 544 q 317 517 326 544 q 308 368 308 489 q 320 220 308 247 q 386 193 332 193 q 451 217 440 193 q 461 363 461 240 q 451 515 461 486 q 383 544 440 544 z "},"õ":{"ha":769,"x_min":39,"x_max":731,"o":"m 314 1024 q 389 999 344 1024 q 461 975 433 975 q 471 975 465 975 q 590 1031 538 975 l 626 928 q 471 828 560 828 q 388 852 440 828 q 310 876 336 876 q 181 828 243 876 l 143 921 q 314 1024 214 1024 m 387 -7 q 289 -7 387 -7 q 115 76 192 -7 q 39 369 39 158 q 115 663 39 581 q 385 744 190 744 q 655 661 579 744 q 731 365 731 578 q 656 72 731 151 q 387 -7 582 -7 m 383 544 q 355 544 383 544 q 317 517 326 544 q 308 368 308 489 q 320 220 308 247 q 386 193 332 193 q 451 217 440 193 q 461 363 461 240 q 451 515 461 486 q 383 544 440 544 z "},"ö":{"ha":769,"x_min":39,"x_max":731,"o":"m 144 855 q 130 868 144 855 q 117 919 117 882 q 144 983 117 957 q 208 1010 171 1010 q 272 983 246 1010 q 299 919 299 957 q 272 855 299 882 q 208 828 246 828 q 144 855 171 828 m 498 855 q 484 868 498 855 q 471 919 471 882 q 498 983 471 957 q 563 1010 525 1010 q 626 983 600 1010 q 653 919 653 957 q 626 855 653 882 q 563 828 600 828 q 498 855 525 828 m 387 -7 q 289 -7 387 -7 q 115 76 192 -7 q 39 369 39 158 q 115 663 39 581 q 385 744 190 744 q 655 661 579 744 q 731 365 731 578 q 656 72 731 151 q 387 -7 582 -7 m 383 544 q 355 544 383 544 q 317 517 326 544 q 308 368 308 489 q 320 220 308 247 q 386 193 332 193 q 451 217 440 193 q 461 363 461 240 q 451 515 461 486 q 383 544 440 544 z "},"÷":{"ha":671,"x_min":39,"x_max":632,"o":"m 39 383 l 39 597 l 632 597 l 632 383 l 39 383 m 229 194 l 229 301 q 263 336 229 336 l 392 336 q 426 301 426 336 l 426 194 q 392 163 426 163 l 263 163 q 229 194 229 163 m 229 671 l 229 778 q 263 813 229 813 l 392 813 q 426 778 426 813 l 426 671 q 392 639 426 639 l 263 639 q 229 671 229 639 z "},"ø":{"ha":822,"x_min":39,"x_max":783,"o":"m 67 358 q 142 663 67 581 q 413 744 218 744 q 633 701 558 744 l 664 738 l 783 738 l 700 639 q 758 352 758 553 q 684 72 758 151 q 413 -7 610 -7 q 190 38 267 -7 l 158 0 l 39 0 l 124 100 q 67 358 67 182 m 336 358 l 336 350 l 478 517 q 410 544 465 544 q 345 517 354 544 q 336 358 336 489 m 347 222 q 413 193 358 193 q 478 217 468 193 q 489 358 489 240 l 489 390 l 347 222 z "},"ù":{"ha":771,"x_min":39,"x_max":725,"o":"m 150 1026 l 350 1026 l 458 828 l 306 828 l 150 1026 m 39 265 l 39 738 l 308 738 l 308 260 q 319 203 308 218 q 354 188 331 188 q 456 239 433 188 l 456 738 l 725 738 l 725 0 l 500 0 l 456 72 q 414 43 442 64 q 371 14 386 22 q 256 -12 328 -12 q 139 8 183 -12 q 74 69 94 28 q 46 155 53 111 q 39 265 39 199 z "},"ú":{"ha":771,"x_min":39,"x_max":725,"o":"m 306 828 l 414 1026 l 614 1026 l 458 828 l 306 828 m 39 265 l 39 738 l 308 738 l 308 260 q 319 203 308 218 q 354 188 331 188 q 456 239 433 188 l 456 738 l 725 738 l 725 0 l 500 0 l 456 72 q 414 43 442 64 q 371 14 386 22 q 256 -12 328 -12 q 139 8 183 -12 q 74 69 94 28 q 46 155 53 111 q 39 265 39 199 z "},"û":{"ha":771,"x_min":39,"x_max":725,"o":"m 158 828 l 297 1022 l 479 1022 l 606 828 l 451 828 l 383 899 l 314 828 l 158 828 m 39 265 l 39 738 l 308 738 l 308 260 q 319 203 308 218 q 354 188 331 188 q 456 239 433 188 l 456 738 l 725 738 l 725 0 l 500 0 l 456 72 q 414 43 442 64 q 371 14 386 22 q 256 -12 328 -12 q 139 8 183 -12 q 74 69 94 28 q 46 155 53 111 q 39 265 39 199 z "},"ü":{"ha":771,"x_min":39,"x_max":725,"o":"m 141 855 q 127 868 141 855 q 114 919 114 882 q 141 983 114 957 q 206 1010 168 1010 q 269 983 243 1010 q 296 919 296 957 q 269 855 296 882 q 206 828 243 828 q 141 855 168 828 m 495 855 q 482 868 495 855 q 468 919 468 882 q 495 983 468 957 q 560 1010 522 1010 q 624 983 597 1010 q 650 919 650 957 q 624 855 650 882 q 560 828 597 828 q 495 855 522 828 m 39 265 l 39 738 l 308 738 l 308 260 q 319 203 308 218 q 354 188 331 188 q 456 239 433 188 l 456 738 l 725 738 l 725 0 l 500 0 l 456 72 q 414 43 442 64 q 371 14 386 22 q 256 -12 328 -12 q 139 8 183 -12 q 74 69 94 28 q 46 155 53 111 q 39 265 39 199 z "},"ý":{"ha":832,"x_min":17,"x_max":810,"o":"m 338 828 l 444 1026 l 646 1026 l 489 828 l 338 828 m 17 738 l 296 738 l 381 271 q 440 217 390 219 l 536 738 l 810 738 l 611 -233 l 513 -375 l 313 -375 l 394 0 q 132 217 181 0 l 17 738 z "},"þ":{"ha":775,"x_min":54,"x_max":744,"o":"m 54 -375 l 54 1086 l 324 1086 l 324 660 q 410 717 371 699 q 506 736 449 736 q 688 648 631 736 q 744 363 744 560 q 724 146 744 214 q 676 47 703 78 q 508 -21 619 -21 q 324 26 396 -21 l 324 -375 l 54 -375 m 414 172 q 461 206 447 172 q 475 347 475 239 q 461 486 475 454 q 414 518 447 518 q 324 488 342 518 l 324 193 q 414 172 343 172 z "},"ÿ":{"ha":832,"x_min":17,"x_max":810,"o":"m 172 855 q 158 868 172 855 q 144 919 144 882 q 172 983 144 957 q 237 1010 199 1010 q 301 983 275 1010 q 328 919 328 957 q 301 855 328 882 q 237 828 274 828 q 172 855 200 828 m 526 855 q 513 868 526 855 q 500 919 500 882 q 526 983 500 957 q 590 1010 553 1010 q 654 983 628 1010 q 681 919 681 957 q 654 855 681 882 q 590 828 628 828 q 526 855 553 828 m 17 738 l 296 738 l 381 271 q 440 217 390 219 l 536 738 l 810 738 l 611 -233 l 513 -375 l 313 -375 l 394 0 q 132 217 181 0 l 17 738 z "},"Ā":{"ha":988,"x_min":35,"x_max":979,"o":"m 308 1107 l 308 1236 l 714 1236 l 714 1107 l 308 1107 m 35 0 l 353 1017 l 671 1017 l 979 0 l 703 0 l 643 178 l 369 178 l 311 0 l 35 0 m 431 407 l 589 407 l 515 679 l 431 407 z "},"ā":{"ha":721,"x_min":31,"x_max":683,"o":"m 169 835 l 169 964 l 575 964 l 575 835 l 169 835 m 31 199 l 31 256 q 85 410 31 349 q 272 472 140 472 q 378 472 343 472 q 414 472 414 472 q 415 492 415 481 q 410 518 414 504 q 401 540 406 532 q 382 550 396 547 q 328 554 361 554 l 56 539 l 56 696 q 194 740 125 729 q 372 751 263 751 q 607 697 531 751 q 683 496 683 643 l 683 0 l 467 0 l 414 75 q 365 17 400 43 q 271 -8 329 -8 q 153 15 203 -8 q 78 69 103 38 q 31 199 31 132 m 344 192 l 358 192 q 397 203 383 192 q 413 225 411 214 l 414 238 l 414 321 l 342 314 q 311 299 321 313 q 301 278 301 286 q 300 251 300 269 l 300 243 q 317 197 300 204 q 322 194 321 196 q 344 192 328 192 z "},"Ă":{"ha":988,"x_min":35,"x_max":979,"o":"m 444 1265 q 511 1200 444 1200 q 578 1265 578 1200 l 672 1265 q 596 1126 672 1168 q 517 1107 560 1107 q 445 1119 475 1107 q 396 1150 415 1131 q 353 1265 353 1194 l 444 1265 m 35 0 l 353 1017 l 671 1017 l 979 0 l 703 0 l 643 178 l 369 178 l 311 0 l 35 0 m 431 407 l 589 407 l 515 679 l 431 407 z "},"ă":{"ha":721,"x_min":31,"x_max":683,"o":"m 213 993 l 306 993 q 372 928 306 928 q 439 993 439 928 l 532 993 q 488 878 532 922 q 372 835 444 835 q 256 878 299 835 q 213 993 213 922 m 31 199 l 31 256 q 85 410 31 349 q 272 472 140 472 q 378 472 343 472 q 414 472 414 472 q 415 492 415 481 q 410 518 414 504 q 401 540 406 532 q 382 550 396 547 q 328 554 361 554 l 56 539 l 56 696 q 194 740 125 729 q 372 751 263 751 q 607 697 531 751 q 683 496 683 643 l 683 0 l 467 0 l 414 75 q 365 17 400 43 q 271 -8 329 -8 q 153 15 203 -8 q 78 69 103 38 q 31 199 31 132 m 344 192 l 358 192 q 397 203 383 192 q 413 225 411 214 l 414 238 l 414 321 l 342 314 q 311 299 321 313 q 301 278 301 286 q 300 251 300 269 l 300 243 q 317 197 300 204 q 322 194 321 196 q 344 192 328 192 z "},"Ą":{"ha":988,"x_min":35,"x_max":979,"o":"m 799 3 l 894 3 q 854 -114 810 -56 q 913 -137 878 -144 l 913 -262 q 876 -269 892 -269 q 842 -268 861 -269 q 797 -250 822 -267 q 714 -122 714 -197 q 799 3 714 -46 m 35 0 l 353 1017 l 671 1017 l 979 0 l 703 0 l 643 178 l 369 178 l 311 0 l 35 0 m 431 407 l 589 407 l 515 679 l 431 407 z "},"ą":{"ha":721,"x_min":31,"x_max":683,"o":"m 533 0 l 629 0 q 589 -115 544 -57 q 647 -140 613 -146 l 647 -265 q 611 -271 626 -271 q 576 -269 596 -271 q 532 -251 557 -268 q 449 -124 449 -199 q 533 0 449 -49 m 31 199 l 31 256 q 85 410 31 349 q 272 472 140 472 q 378 472 343 472 q 414 472 414 472 q 415 492 415 481 q 410 518 414 504 q 401 540 406 532 q 382 550 396 547 q 328 554 361 554 l 56 539 l 56 696 q 194 740 125 729 q 372 751 263 751 q 607 697 531 751 q 683 496 683 643 l 683 0 l 467 0 l 414 75 q 365 17 400 43 q 271 -8 329 -8 q 153 15 203 -8 q 78 69 103 38 q 31 199 31 132 m 344 192 l 358 192 q 397 203 383 192 q 413 225 411 214 l 414 238 l 414 321 l 342 314 q 311 299 321 313 q 301 278 301 286 q 300 251 300 269 l 300 243 q 317 197 300 204 q 322 194 321 196 q 344 192 328 192 z "},"Ć":{"ha":788,"x_min":43,"x_max":761,"o":"m 389 1111 l 494 1310 l 697 1310 l 539 1111 l 389 1111 m 761 763 q 508 786 619 786 q 371 771 396 786 q 313 508 313 736 q 344 285 313 336 q 479 233 375 233 q 722 242 624 233 l 761 246 l 761 36 q 628 0 694 8 q 494 -8 561 -8 q 394 -8 428 -8 q 124 122 206 -6 q 43 510 43 249 q 120 900 43 772 q 394 1028 197 1028 q 603 1017 539 1028 q 761 972 668 1007 l 761 763 z "},"ć":{"ha":681,"x_min":39,"x_max":650,"o":"m 313 828 l 419 1026 l 621 1026 l 464 828 l 313 828 m 421 -8 l 282 -7 q 39 369 39 -7 q 103 659 39 574 q 282 744 167 744 q 350 744 315 744 q 640 694 511 744 l 640 536 q 473 544 557 544 q 372 542 389 544 q 337 524 356 540 q 313 471 318 507 q 308 368 308 435 q 313 267 308 301 q 334 216 317 233 q 370 196 351 199 q 439 193 389 193 q 625 201 547 193 l 650 204 l 650 46 q 421 -8 575 -8 z "},"Ĉ":{"ha":788,"x_min":43,"x_max":761,"o":"m 238 1111 l 376 1306 l 558 1306 l 685 1111 l 531 1111 l 463 1182 l 393 1111 l 238 1111 m 761 763 q 508 786 619 786 q 371 771 396 786 q 313 508 313 736 q 344 285 313 336 q 479 233 375 233 q 722 242 624 233 l 761 246 l 761 36 q 628 0 694 8 q 494 -8 561 -8 q 394 -8 428 -8 q 124 122 206 -6 q 43 510 43 249 q 120 900 43 772 q 394 1028 197 1028 q 603 1017 539 1028 q 761 972 668 1007 l 761 763 z "},"ĉ":{"ha":681,"x_min":39,"x_max":650,"o":"m 136 828 l 275 1022 l 457 1022 l 583 828 l 429 828 l 361 899 l 292 828 l 136 828 m 421 -8 l 282 -7 q 39 369 39 -7 q 103 659 39 574 q 282 744 167 744 q 350 744 315 744 q 640 694 511 744 l 640 536 q 473 544 557 544 q 372 542 389 544 q 337 524 356 540 q 313 471 318 507 q 308 368 308 435 q 313 267 308 301 q 334 216 317 233 q 370 196 351 199 q 439 193 389 193 q 625 201 547 193 l 650 204 l 650 46 q 421 -8 575 -8 z "},"Ċ":{"ha":788,"x_min":43,"x_max":761,"o":"m 356 1143 l 356 1274 q 389 1308 356 1308 l 514 1308 q 546 1274 546 1308 l 546 1143 q 514 1111 546 1111 l 389 1111 q 356 1143 356 1111 m 761 763 q 508 786 619 786 q 371 771 396 786 q 313 508 313 736 q 344 285 313 336 q 479 233 375 233 q 722 242 624 233 l 761 246 l 761 36 q 628 0 694 8 q 494 -8 561 -8 q 394 -8 428 -8 q 124 122 206 -6 q 43 510 43 249 q 120 900 43 772 q 394 1028 197 1028 q 603 1017 539 1028 q 761 972 668 1007 l 761 763 z "},"ċ":{"ha":681,"x_min":39,"x_max":650,"o":"m 289 860 l 289 990 q 322 1025 289 1025 l 447 1025 q 479 990 479 1025 l 479 860 q 447 828 479 828 l 322 828 q 289 860 289 828 m 421 -8 l 282 -7 q 39 369 39 -7 q 103 659 39 574 q 282 744 167 744 q 350 744 315 744 q 640 694 511 744 l 640 536 q 473 544 557 544 q 372 542 389 544 q 337 524 356 540 q 313 471 318 507 q 308 368 308 435 q 313 267 308 301 q 334 216 317 233 q 370 196 351 199 q 439 193 389 193 q 625 201 547 193 l 650 204 l 650 46 q 421 -8 575 -8 z "},"Č":{"ha":788,"x_min":43,"x_max":761,"o":"m 251 1306 l 406 1306 l 474 1235 l 543 1306 l 699 1306 l 560 1111 l 378 1111 l 251 1306 m 761 763 q 508 786 619 786 q 371 771 396 786 q 313 508 313 736 q 344 285 313 336 q 479 233 375 233 q 722 242 624 233 l 761 246 l 761 36 q 628 0 694 8 q 494 -8 561 -8 q 394 -8 428 -8 q 124 122 206 -6 q 43 510 43 249 q 120 900 43 772 q 394 1028 197 1028 q 603 1017 539 1028 q 761 972 668 1007 l 761 763 z "},"č":{"ha":681,"x_min":39,"x_max":650,"o":"m 156 1022 l 310 1022 l 378 951 l 447 1022 l 603 1022 l 464 828 l 282 828 l 156 1022 m 421 -8 l 282 -7 q 39 369 39 -7 q 103 659 39 574 q 282 744 167 744 q 350 744 315 744 q 640 694 511 744 l 640 536 q 473 544 557 544 q 372 542 389 544 q 337 524 356 540 q 313 471 318 507 q 308 368 308 435 q 313 267 308 301 q 334 216 317 233 q 370 196 351 199 q 439 193 389 193 q 625 201 547 193 l 650 204 l 650 46 q 421 -8 575 -8 z "},"Ď":{"ha":926,"x_min":63,"x_max":885,"o":"m 218 1301 l 372 1301 l 440 1231 l 510 1301 l 665 1301 l 526 1107 l 344 1107 l 218 1301 m 63 0 l 63 1017 l 539 1017 q 875 669 832 1017 q 885 504 885 596 q 800 120 885 240 q 539 0 715 0 l 63 0 m 332 228 l 511 228 q 592 292 569 228 q 615 491 615 356 q 602 690 615 626 q 568 772 589 754 q 511 789 547 789 l 332 789 l 332 228 z "},"ď":{"ha":906,"x_min":39,"x_max":964,"o":"m 278 -8 q 95 76 151 -8 q 39 370 39 160 q 86 665 39 581 q 278 749 133 749 q 461 707 382 749 l 461 1090 l 731 1090 l 731 0 l 500 0 l 461 68 q 375 10 415 29 q 278 -8 335 -8 m 369 556 q 322 522 336 556 q 308 381 308 489 q 322 242 308 274 q 369 210 336 210 q 461 240 443 210 l 461 535 q 369 556 442 556 m 806 1086 l 964 1086 l 964 993 l 950 807 l 819 807 l 806 993 l 806 1086 z "},"Đ":{"ha":926,"x_min":-28,"x_max":885,"o":"m -28 467 l -28 569 l 63 569 l 63 1017 l 539 1017 q 875 669 832 1017 q 885 504 885 596 q 800 120 885 240 q 539 0 715 0 l 63 0 l 63 467 l -28 467 m 332 228 l 511 228 q 592 292 569 228 q 615 491 615 356 q 602 690 615 626 q 568 772 589 754 q 511 789 547 789 l 332 789 l 332 569 l 456 569 l 456 467 l 332 467 l 332 228 z "},"đ":{"ha":794,"x_min":31,"x_max":806,"o":"m 269 -8 q 87 76 143 -8 q 31 370 31 160 q 78 665 31 581 q 269 749 125 749 q 453 707 374 749 l 453 828 l 322 828 l 322 931 l 453 931 l 453 1090 l 722 1090 l 722 931 l 806 931 l 806 828 l 722 828 l 722 0 l 492 0 l 453 68 q 367 10 407 29 q 269 -8 326 -8 m 361 556 q 314 522 328 556 q 300 381 300 489 q 314 242 300 274 q 361 210 328 210 q 453 240 435 210 l 453 535 q 361 556 433 556 z "},"Ē":{"ha":788,"x_min":56,"x_max":768,"o":"m 222 1107 l 222 1236 l 628 1236 l 628 1107 l 222 1107 m 56 224 l 56 781 q 314 1017 56 1017 q 768 994 606 1017 l 768 768 l 397 768 q 347 755 364 768 q 327 728 329 742 q 325 690 325 715 l 325 629 l 699 614 l 699 390 l 325 378 l 325 317 q 354 253 325 264 q 411 244 378 244 l 768 244 l 768 19 q 406 -3 628 1 l 328 -4 q 301 -4 317 -4 q 259 -2 285 -4 q 194 14 233 0 q 125 51 154 28 q 76 118 96 74 q 56 224 56 163 z "},"ē":{"ha":729,"x_min":39,"x_max":699,"o":"m 172 828 l 172 957 l 578 957 l 578 828 l 172 828 m 685 32 q 397 -7 607 -7 q 282 -7 339 -7 q 92 83 146 -7 q 39 350 39 174 q 72 606 39 526 q 169 715 104 686 q 349 743 235 743 q 519 735 463 743 q 621 697 576 726 q 682 614 665 668 q 699 460 699 560 q 643 315 699 360 q 481 271 588 271 l 308 271 q 328 206 308 229 q 386 190 340 190 l 476 192 q 685 207 581 192 l 685 32 m 389 442 q 418 454 407 442 q 429 497 429 467 q 422 542 429 528 q 374 557 414 557 q 322 538 335 557 q 308 456 308 519 q 308 442 308 449 l 389 442 z "},"Ė":{"ha":788,"x_min":56,"x_max":768,"o":"m 361 1139 l 361 1269 q 394 1304 361 1304 l 519 1304 q 551 1269 551 1304 l 551 1139 q 519 1107 551 1107 l 394 1107 q 361 1139 361 1107 m 56 224 l 56 781 q 314 1017 56 1017 q 768 994 606 1017 l 768 768 l 397 768 q 347 755 364 768 q 327 728 329 742 q 325 690 325 715 l 325 629 l 699 614 l 699 390 l 325 378 l 325 317 q 354 253 325 264 q 411 244 378 244 l 768 244 l 768 19 q 406 -3 628 1 l 328 -4 q 301 -4 317 -4 q 259 -2 285 -4 q 194 14 233 0 q 125 51 154 28 q 76 118 96 74 q 56 224 56 163 z "},"ė":{"ha":729,"x_min":39,"x_max":699,"o":"m 281 860 l 281 990 q 314 1025 281 1025 l 439 1025 q 461 1015 453 1025 q 469 990 469 1006 l 469 860 q 439 828 469 828 l 314 828 q 290 837 299 828 q 281 860 281 846 m 685 32 q 397 -7 607 -7 q 282 -7 339 -7 q 92 83 146 -7 q 39 350 39 174 q 72 606 39 526 q 169 715 104 686 q 349 743 235 743 q 519 735 463 743 q 621 697 576 726 q 682 614 665 668 q 699 460 699 560 q 643 315 699 360 q 481 271 588 271 l 308 271 q 328 206 308 229 q 386 190 340 190 l 476 192 q 685 207 581 192 l 685 32 m 389 442 q 418 454 407 442 q 429 497 429 467 q 422 542 429 528 q 374 557 414 557 q 322 538 335 557 q 308 456 308 519 q 308 442 308 449 l 389 442 z "},"Ę":{"ha":788,"x_min":56,"x_max":786,"o":"m 672 21 l 768 21 q 728 -94 683 -37 q 786 -119 751 -125 l 786 -244 q 750 -251 765 -251 q 715 -249 735 -251 q 671 -232 696 -247 q 588 -103 588 -179 q 672 21 588 -28 m 56 224 l 56 781 q 314 1017 56 1017 q 768 994 606 1017 l 768 768 l 397 768 q 347 755 364 768 q 327 728 329 742 q 325 690 325 715 l 325 629 l 699 614 l 699 390 l 325 378 l 325 317 q 354 253 325 264 q 411 244 378 244 l 768 244 l 768 19 q 406 -3 628 1 l 328 -4 q 301 -4 317 -4 q 259 -2 285 -4 q 194 14 233 0 q 125 51 154 28 q 76 118 96 74 q 56 224 56 163 z "},"ę":{"ha":729,"x_min":39,"x_max":703,"o":"m 703 -233 q 664 -240 681 -240 q 624 -235 647 -240 q 571 -210 601 -229 q 503 -96 511 -172 q 503 -76 503 -92 q 524 -27 503 -60 q 589 32 544 6 l 685 32 q 641 -12 654 11 q 631 -52 628 -35 q 644 -83 633 -69 q 703 -108 669 -114 l 703 -233 m 685 32 q 397 -7 607 -7 q 282 -7 339 -7 q 92 83 146 -7 q 39 350 39 174 q 72 606 39 526 q 169 715 104 686 q 349 743 235 743 q 519 735 463 743 q 621 697 576 726 q 682 614 665 668 q 699 460 699 560 q 643 315 699 360 q 481 271 588 271 l 308 271 q 328 206 308 229 q 386 190 340 190 l 476 192 q 685 207 581 192 l 685 32 m 389 442 q 418 454 407 442 q 429 497 429 467 q 422 542 429 528 q 374 557 414 557 q 322 538 335 557 q 308 456 308 519 q 308 442 308 449 l 389 442 z "},"Ě":{"ha":788,"x_min":56,"x_max":768,"o":"m 225 1301 l 379 1301 l 447 1231 l 517 1301 l 672 1301 l 533 1107 l 351 1107 l 225 1301 m 56 224 l 56 781 q 314 1017 56 1017 q 768 994 606 1017 l 768 768 l 397 768 q 347 755 364 768 q 327 728 329 742 q 325 690 325 715 l 325 629 l 699 614 l 699 390 l 325 378 l 325 317 q 354 253 325 264 q 411 244 378 244 l 768 244 l 768 19 q 406 -3 628 1 l 328 -4 q 301 -4 317 -4 q 259 -2 285 -4 q 194 14 233 0 q 125 51 154 28 q 76 118 96 74 q 56 224 56 163 z "},"ě":{"ha":729,"x_min":39,"x_max":699,"o":"m 158 1022 l 313 1022 l 381 951 l 450 1022 l 606 1022 l 467 828 l 285 828 l 158 1022 m 685 32 q 397 -7 607 -7 q 282 -7 339 -7 q 92 83 146 -7 q 39 350 39 174 q 72 606 39 526 q 169 715 104 686 q 349 743 235 743 q 519 735 463 743 q 621 697 576 726 q 682 614 665 668 q 699 460 699 560 q 643 315 699 360 q 481 271 588 271 l 308 271 q 328 206 308 229 q 386 190 340 190 l 476 192 q 685 207 581 192 l 685 32 m 389 442 q 418 454 407 442 q 429 497 429 467 q 422 542 429 528 q 374 557 414 557 q 322 538 335 557 q 308 456 308 519 q 308 442 308 449 l 389 442 z "},"Ĝ":{"ha":854,"x_min":43,"x_max":813,"o":"m 238 1111 l 376 1306 l 558 1306 l 685 1111 l 531 1111 l 463 1182 l 393 1111 l 238 1111 m 76 203 q 66 239 76 203 q 49 347 56 275 q 43 528 43 418 q 58 726 43 639 q 108 886 72 814 q 381 1028 181 1028 q 608 1021 550 1028 q 803 976 665 1014 l 803 769 q 782 773 801 769 q 730 781 763 776 q 658 789 697 785 q 461 800 553 800 q 341 742 369 800 q 313 510 313 685 q 333 288 313 335 q 443 240 354 240 q 507 256 482 240 q 538 289 532 272 l 543 304 l 543 408 l 475 408 l 475 575 q 718 610 540 610 q 813 606 763 610 l 813 0 l 622 0 l 546 68 q 483 14 515 28 q 359 -8 439 -8 q 224 16 279 -8 q 133 85 168 40 q 76 203 97 131 z "},"ĝ":{"ha":786,"x_min":35,"x_max":771,"o":"m 165 828 l 304 1022 l 486 1022 l 613 828 l 458 828 l 390 899 l 321 828 l 165 828 m 35 128 q 124 272 35 236 q 42 478 42 325 q 310 740 42 740 l 771 740 l 771 593 l 714 568 q 729 427 729 524 q 669 269 729 331 q 458 207 608 207 q 341 207 381 207 q 294 206 301 207 q 284 204 288 206 q 276 200 281 203 q 269 182 269 196 q 278 161 269 168 q 325 153 288 153 l 494 153 q 744 -87 744 153 l 744 -161 q 494 -375 744 -375 l 286 -375 q 116 -321 182 -375 q 50 -161 50 -267 l 50 -87 l 122 -39 q 61 19 88 -24 q 35 128 35 61 m 321 -118 q 333 -165 321 -154 q 382 -175 344 -175 l 421 -175 q 469 -161 464 -175 q 476 -125 476 -146 l 476 -93 q 462 -62 476 -75 q 422 -49 447 -50 l 321 -49 l 321 -118 m 365 540 q 321 526 331 540 q 311 471 311 511 q 324 419 311 431 q 369 407 338 407 l 400 407 q 448 419 436 407 q 460 474 460 431 q 445 529 460 518 q 399 540 431 540 l 365 540 z "},"Ğ":{"ha":854,"x_min":43,"x_max":813,"o":"m 283 1269 l 376 1269 q 443 1204 376 1204 q 510 1269 510 1204 l 603 1269 q 559 1155 603 1199 q 442 1111 515 1111 q 326 1155 369 1111 q 283 1269 283 1199 m 76 203 q 66 239 76 203 q 49 347 56 275 q 43 528 43 418 q 58 726 43 639 q 108 886 72 814 q 381 1028 181 1028 q 608 1021 550 1028 q 803 976 665 1014 l 803 769 q 782 773 801 769 q 730 781 763 776 q 658 789 697 785 q 461 800 553 800 q 341 742 369 800 q 313 510 313 685 q 333 288 313 335 q 443 240 354 240 q 507 256 482 240 q 538 289 532 272 l 543 304 l 543 408 l 475 408 l 475 575 q 718 610 540 610 q 813 606 763 610 l 813 0 l 622 0 l 546 68 q 483 14 515 28 q 359 -8 439 -8 q 224 16 279 -8 q 133 85 168 40 q 76 203 97 131 z "},"ğ":{"ha":786,"x_min":35,"x_max":771,"o":"m 232 986 l 325 986 q 392 921 325 921 q 458 986 458 921 l 551 986 q 508 872 551 915 q 391 828 464 828 q 275 872 318 828 q 232 986 232 915 m 35 128 q 124 272 35 236 q 42 478 42 325 q 310 740 42 740 l 771 740 l 771 593 l 714 568 q 729 427 729 524 q 669 269 729 331 q 458 207 608 207 q 341 207 381 207 q 294 206 301 207 q 284 204 288 206 q 276 200 281 203 q 269 182 269 196 q 278 161 269 168 q 325 153 288 153 l 494 153 q 744 -87 744 153 l 744 -161 q 494 -375 744 -375 l 286 -375 q 116 -321 182 -375 q 50 -161 50 -267 l 50 -87 l 122 -39 q 61 19 88 -24 q 35 128 35 61 m 321 -118 q 333 -165 321 -154 q 382 -175 344 -175 l 421 -175 q 469 -161 464 -175 q 476 -125 476 -146 l 476 -93 q 462 -62 476 -75 q 422 -49 447 -50 l 321 -49 l 321 -118 m 365 540 q 321 526 331 540 q 311 471 311 511 q 324 419 311 431 q 369 407 338 407 l 400 407 q 448 419 436 407 q 460 474 460 431 q 445 529 460 518 q 399 540 431 540 l 365 540 z "},"Ġ":{"ha":854,"x_min":43,"x_max":813,"o":"m 356 1143 l 356 1274 q 389 1308 356 1308 l 514 1308 q 546 1274 546 1308 l 546 1143 q 514 1111 546 1111 l 389 1111 q 356 1143 356 1111 m 76 203 q 66 239 76 203 q 49 347 56 275 q 43 528 43 418 q 58 726 43 639 q 108 886 72 814 q 381 1028 181 1028 q 608 1021 550 1028 q 803 976 665 1014 l 803 769 q 782 773 801 769 q 730 781 763 776 q 658 789 697 785 q 461 800 553 800 q 341 742 369 800 q 313 510 313 685 q 333 288 313 335 q 443 240 354 240 q 507 256 482 240 q 538 289 532 272 l 543 304 l 543 408 l 475 408 l 475 575 q 718 610 540 610 q 813 606 763 610 l 813 0 l 622 0 l 546 68 q 483 14 515 28 q 359 -8 439 -8 q 224 16 279 -8 q 133 85 168 40 q 76 203 97 131 z "},"ġ":{"ha":786,"x_min":35,"x_max":771,"o":"m 299 860 l 299 990 q 332 1025 299 1025 l 457 1025 q 489 990 489 1025 l 489 860 q 457 828 489 828 l 332 828 q 299 860 299 828 m 35 128 q 124 272 35 236 q 42 478 42 325 q 310 740 42 740 l 771 740 l 771 593 l 714 568 q 729 427 729 524 q 669 269 729 331 q 458 207 608 207 q 341 207 381 207 q 294 206 301 207 q 284 204 288 206 q 276 200 281 203 q 269 182 269 196 q 278 161 269 168 q 325 153 288 153 l 494 153 q 744 -87 744 153 l 744 -161 q 494 -375 744 -375 l 286 -375 q 116 -321 182 -375 q 50 -161 50 -267 l 50 -87 l 122 -39 q 61 19 88 -24 q 35 128 35 61 m 321 -118 q 333 -165 321 -154 q 382 -175 344 -175 l 421 -175 q 469 -161 464 -175 q 476 -125 476 -146 l 476 -93 q 462 -62 476 -75 q 422 -49 447 -50 l 321 -49 l 321 -118 m 365 540 q 321 526 331 540 q 311 471 311 511 q 324 419 311 431 q 369 407 338 407 l 400 407 q 448 419 436 407 q 460 474 460 431 q 445 529 460 518 q 399 540 431 540 l 365 540 z "},"Ģ":{"ha":854,"x_min":43,"x_max":813,"o":"m 325 -286 l 325 -143 q 357 -110 325 -110 l 496 -110 q 525 -143 525 -110 l 525 -331 q 505 -399 525 -374 q 457 -431 485 -425 q 403 -437 429 -437 l 400 -437 q 351 -432 371 -437 l 332 -426 l 332 -349 q 368 -336 364 -350 q 371 -322 371 -331 l 371 -317 l 357 -317 q 325 -286 325 -317 m 76 203 q 66 239 76 203 q 49 347 56 275 q 43 528 43 418 q 58 726 43 639 q 108 886 72 814 q 381 1028 181 1028 q 608 1021 550 1028 q 803 976 665 1014 l 803 769 q 782 773 801 769 q 730 781 763 776 q 658 789 697 785 q 461 800 553 800 q 341 742 369 800 q 313 510 313 685 q 333 288 313 335 q 443 240 354 240 q 507 256 482 240 q 538 289 532 272 l 543 304 l 543 408 l 475 408 l 475 575 q 718 610 540 610 q 813 606 763 610 l 813 0 l 622 0 l 546 68 q 483 14 515 28 q 359 -8 439 -8 q 224 16 279 -8 q 133 85 168 40 q 76 203 97 131 z "},"ģ":{"ha":786,"x_min":35,"x_max":772,"o":"m 440 1038 l 440 1031 l 454 1031 q 486 1000 486 1031 l 486 857 q 454 824 486 824 l 315 824 q 286 857 286 824 l 286 1044 q 306 1115 286 1089 q 354 1146 326 1140 q 408 1151 382 1151 l 411 1151 q 460 1146 440 1151 l 479 1142 l 479 1064 q 443 1050 447 1065 q 440 1038 440 1046 m 42 478 q 310 740 42 740 l 771 740 l 771 593 l 714 568 q 729 455 729 524 q 717 347 729 386 q 675 275 704 308 q 458 207 615 207 l 325 207 q 313 207 322 207 q 301 207 304 207 q 290 206 297 207 q 279 201 282 204 q 269 185 269 194 q 271 172 269 176 q 276 164 272 167 q 282 159 279 161 q 291 156 285 157 q 301 155 297 156 q 313 153 304 154 q 325 153 321 153 l 506 135 q 643 105 601 125 q 703 58 685 85 q 744 -115 744 0 l 744 -161 q 685 -318 744 -261 q 494 -375 625 -375 l 286 -375 q 116 -321 182 -375 q 50 -161 50 -267 l 50 -72 l 136 -26 q 35 133 35 17 q 124 272 35 249 q 62 356 82 299 q 42 478 42 414 m 321 -118 q 344 -171 321 -164 q 382 -175 356 -175 l 421 -175 q 469 -161 464 -175 q 476 -125 476 -146 l 476 -107 q 422 -71 476 -75 l 376 -67 l 321 -62 l 321 -118 m 329 542 q 323 535 329 542 q 314 515 317 529 q 311 465 311 501 q 369 393 311 393 l 400 393 q 447 411 433 393 q 460 467 460 429 q 456 521 460 504 q 442 543 451 538 q 399 554 428 554 l 365 554 q 329 542 342 554 z "},"Ĥ":{"ha":883,"x_min":63,"x_max":838,"o":"m 226 1107 l 365 1301 l 547 1301 l 674 1107 l 519 1107 l 451 1178 l 382 1107 l 226 1107 m 63 0 l 63 1017 l 332 1017 l 332 613 l 568 613 l 568 1017 l 838 1017 l 838 0 l 568 0 l 568 371 l 332 371 l 332 0 l 63 0 z "},"ĥ":{"ha":771,"x_min":-140,"x_max":626,"o":"m -140 1169 l -1 1364 l 181 1364 l 307 1169 l 153 1169 l 85 1240 l 15 1169 l -140 1169 m -60 0 l -60 1086 l 208 1086 l 208 665 q 256 706 235 692 q 318 735 276 721 q 421 750 360 750 q 526 730 482 750 q 592 668 571 710 q 619 583 613 626 q 626 472 626 539 l 626 0 l 357 0 l 357 478 q 346 535 357 519 q 311 550 335 550 q 210 499 232 550 l 210 0 l -60 0 z "},"Ħ":{"ha":986,"x_min":15,"x_max":971,"o":"m 15 717 l 15 819 l 106 819 l 106 1017 l 375 1017 l 375 819 l 611 819 l 611 1017 l 881 1017 l 881 819 l 971 819 l 971 717 l 881 717 l 881 0 l 611 0 l 611 371 l 375 371 l 375 0 l 106 0 l 106 717 l 15 717 m 375 613 l 611 613 l 611 717 l 375 717 l 375 613 z "},"ħ":{"ha":807,"x_min":0,"x_max":769,"o":"m 0 833 l 0 936 l 83 936 l 83 1086 l 351 1086 l 351 936 l 483 936 l 483 833 l 351 833 l 351 665 q 393 694 365 674 q 436 725 421 715 q 552 750 479 750 q 669 730 625 750 q 735 668 714 710 q 763 583 756 626 q 769 472 769 539 l 769 0 l 500 0 l 500 478 q 489 535 500 519 q 454 550 478 550 q 353 499 375 550 l 353 0 l 83 0 l 83 833 l 0 833 z "},"Ĩ":{"ha":378,"x_min":-44,"x_max":439,"o":"m 126 1303 q 203 1278 158 1303 q 274 1254 247 1254 q 283 1254 278 1254 q 403 1310 350 1254 l 439 1207 q 283 1107 372 1107 q 201 1131 253 1107 q 122 1156 149 1156 q -7 1107 56 1156 l -44 1200 q 126 1303 26 1303 m 63 0 l 63 1017 l 332 1017 l 332 0 l 63 0 z "},"ĩ":{"ha":363,"x_min":-60,"x_max":424,"o":"m 111 1024 q 186 999 142 1024 q 258 975 231 975 q 268 975 263 975 q 388 1031 335 975 l 424 928 q 268 828 357 828 q 185 852 238 828 q 107 876 133 876 q -22 828 40 876 l -60 921 q 111 1024 11 1024 m 47 0 l 47 738 l 317 738 l 317 0 l 47 0 z "},"Ī":{"ha":378,"x_min":-6,"x_max":400,"o":"m -6 1107 l -6 1236 l 400 1236 l 400 1107 l -6 1107 m 63 0 l 63 1017 l 332 1017 l 332 0 l 63 0 z "},"ī":{"ha":363,"x_min":-21,"x_max":385,"o":"m -21 828 l -21 957 l 385 957 l 385 828 l -21 828 m 47 0 l 47 738 l 317 738 l 317 0 l 47 0 z "},"Į":{"ha":378,"x_min":63,"x_max":332,"o":"m 164 1 l 258 1 q 218 -115 175 -57 q 278 -139 242 -146 l 278 -264 q 240 -271 256 -271 q 206 -269 225 -271 q 161 -251 186 -268 q 79 -123 79 -199 q 164 1 79 -47 m 63 0 l 63 1017 l 332 1017 l 332 0 l 63 0 z "},"į":{"ha":350,"x_min":39,"x_max":311,"o":"m 133 1 l 231 1 q 189 -115 146 -57 q 247 -139 213 -146 l 247 -264 q 211 -271 226 -271 q 176 -269 196 -271 q 132 -251 157 -268 q 50 -123 50 -199 q 133 1 50 -47 m 39 839 l 39 1001 q 72 1036 39 1036 l 281 1036 q 311 1001 311 1036 l 311 839 q 281 807 311 807 l 72 807 q 39 839 39 807 m 40 0 l 40 738 l 310 738 l 310 0 l 40 0 z "},"İ":{"ha":378,"x_min":63,"x_max":332,"o":"m 103 1139 l 103 1269 q 136 1304 103 1304 l 261 1304 q 283 1294 275 1304 q 292 1269 292 1285 l 292 1139 q 261 1107 292 1107 l 136 1107 q 112 1116 121 1107 q 103 1139 103 1125 m 63 0 l 63 1017 l 332 1017 l 332 0 l 63 0 z "},"ı":{"ha":363,"x_min":47,"x_max":317,"o":"m 47 0 l 47 738 l 317 738 l 317 0 l 47 0 z "},"Ĵ":{"ha":493,"x_min":28,"x_max":536,"o":"m 89 1107 l 228 1301 l 410 1301 l 536 1107 l 382 1107 l 314 1178 l 244 1107 l 89 1107 m 372 25 q 206 -6 321 -6 q 28 35 90 -6 l 28 249 q 113 253 83 249 q 158 277 143 258 q 175 316 172 296 q 178 383 178 336 l 178 1017 l 447 1017 l 447 229 q 372 25 447 74 z "},"ĵ":{"ha":367,"x_min":-31,"x_max":417,"o":"m -31 825 l 108 1019 l 289 1019 l 417 825 l 261 825 l 192 896 l 125 825 l -31 825 m 58 -375 l 58 738 l 328 738 l 328 -6 q 328 -25 328 -15 q 264 -375 328 -264 l 58 -375 z "},"Ķ":{"ha":917,"x_min":63,"x_max":890,"o":"m 340 -278 l 340 -136 q 372 -103 340 -103 l 511 -103 q 540 -136 540 -103 l 540 -324 q 520 -392 540 -367 q 472 -424 500 -418 q 418 -431 444 -431 l 415 -431 q 367 -425 386 -431 l 347 -419 l 347 -342 q 383 -329 379 -343 q 386 -317 386 -324 l 386 -310 l 372 -310 q 340 -278 340 -310 m 63 0 l 63 1017 l 318 1017 l 318 617 l 374 617 l 581 1017 l 890 1017 l 611 506 l 890 0 l 581 0 l 374 389 l 319 389 l 319 0 l 63 0 z "},"ķ":{"ha":840,"x_min":47,"x_max":825,"o":"m 300 -278 l 300 -136 q 332 -103 300 -103 l 471 -103 q 500 -136 500 -103 l 500 -324 q 480 -392 500 -367 q 432 -424 460 -418 q 378 -431 404 -431 l 375 -431 q 326 -425 346 -431 l 307 -419 l 307 -342 q 339 -336 333 -343 q 346 -317 346 -326 l 346 -310 l 332 -310 q 300 -278 300 -310 m 47 0 l 47 1086 l 317 1086 l 317 503 l 344 503 l 494 738 l 825 738 l 590 410 l 825 0 l 510 0 l 344 317 l 317 317 l 317 0 l 47 0 z "},"ĸ":{"ha":849,"x_min":47,"x_max":833,"o":"m 47 0 l 47 738 l 318 738 l 318 458 l 350 458 l 514 738 l 833 738 l 593 367 l 800 0 l 493 0 l 346 272 l 318 272 l 318 0 l 47 0 z "},"Ĺ":{"ha":731,"x_min":63,"x_max":704,"o":"m 122 1107 l 228 1306 l 431 1306 l 272 1107 l 122 1107 m 63 217 l 63 1017 l 332 1017 l 332 314 q 361 250 332 261 q 418 242 385 242 l 704 242 l 704 0 l 293 0 q 126 53 190 0 q 63 217 63 106 z "},"ĺ":{"ha":451,"x_min":47,"x_max":436,"o":"m 106 1171 l 214 1369 l 414 1369 l 258 1171 l 106 1171 m 47 263 l 47 1088 l 317 1088 l 317 318 q 340 206 317 232 q 388 176 350 196 q 436 157 426 157 l 436 0 l 244 0 q 95 60 143 0 q 47 263 47 119 z "},"Ļ":{"ha":731,"x_min":63,"x_max":704,"o":"m 290 -272 l 290 -129 q 322 -96 290 -96 l 461 -96 q 490 -129 490 -96 l 490 -317 q 470 -385 490 -360 q 422 -417 450 -411 q 368 -424 394 -424 l 365 -424 q 317 -418 336 -424 l 297 -412 l 297 -335 q 329 -329 324 -336 q 336 -308 336 -319 l 336 -303 l 322 -303 q 290 -272 290 -303 m 63 217 l 63 1017 l 332 1017 l 332 314 q 361 250 332 261 q 418 242 385 242 l 704 242 l 704 0 l 293 0 q 126 53 190 0 q 63 217 63 106 z "},"ļ":{"ha":451,"x_min":47,"x_max":436,"o":"m 142 -272 l 142 -131 q 174 -97 142 -97 l 313 -97 q 342 -131 342 -97 l 342 -318 q 322 -387 342 -361 q 274 -419 301 -412 q 219 -425 246 -425 l 217 -425 q 168 -419 188 -425 l 149 -414 l 149 -336 q 181 -331 175 -337 q 188 -311 188 -321 l 188 -304 l 174 -304 q 142 -272 142 -304 m 47 263 l 47 1088 l 317 1088 l 317 318 q 340 206 317 232 q 388 176 350 196 q 436 157 426 157 l 436 0 l 244 0 q 95 60 143 0 q 47 263 47 119 z "},"Ľ":{"ha":731,"x_min":63,"x_max":704,"o":"m 63 217 l 63 1017 l 332 1017 l 332 314 q 361 250 332 261 q 418 242 385 242 l 704 242 l 704 0 l 293 0 q 126 53 190 0 q 63 217 63 106 m 401 1072 l 560 1072 l 560 979 l 546 793 l 417 793 l 401 979 l 401 1072 z "},"ľ":{"ha":564,"x_min":47,"x_max":553,"o":"m 47 263 l 47 1088 l 317 1088 l 317 318 q 340 206 317 232 q 388 176 350 196 q 436 157 426 157 l 436 0 l 244 0 q 95 60 143 0 q 47 263 47 119 m 394 1086 l 553 1086 l 553 993 l 539 807 l 410 807 l 394 993 l 394 1086 z "},"Ł":{"ha":808,"x_min":39,"x_max":783,"o":"m 142 1017 l 411 1017 l 411 678 l 536 731 l 536 618 l 411 565 l 411 314 q 440 250 411 261 q 497 242 463 242 l 783 242 l 783 0 l 372 0 q 206 53 269 0 q 142 217 142 106 l 142 450 l 39 407 l 39 519 l 142 563 l 142 1017 z "},"ł":{"ha":528,"x_min":15,"x_max":513,"o":"m 114 1088 l 383 1088 l 383 733 l 513 789 l 513 676 l 383 621 l 383 318 q 407 206 383 232 q 455 176 417 196 q 503 157 493 157 l 503 0 l 311 0 q 162 60 210 0 q 114 263 114 119 l 114 507 l 15 465 l 15 578 l 114 619 l 114 1088 z "},"Ń":{"ha":940,"x_min":63,"x_max":894,"o":"m 403 1107 l 510 1306 l 711 1306 l 554 1107 l 403 1107 m 63 0 l 63 1017 l 335 1017 l 625 497 l 625 1017 l 894 1017 l 894 0 l 625 0 l 333 506 l 333 0 l 63 0 z "},"ń":{"ha":771,"x_min":47,"x_max":733,"o":"m 314 833 l 422 1032 l 622 1032 l 467 833 l 314 833 m 47 0 l 47 738 l 272 738 l 317 665 q 366 708 347 694 q 426 736 385 722 q 528 750 467 750 q 633 730 589 750 q 699 668 678 710 q 726 583 719 626 q 733 472 733 539 l 733 0 l 464 0 l 464 478 q 453 535 464 519 q 418 550 442 550 q 317 499 339 550 l 317 0 l 47 0 z "},"Ņ":{"ha":940,"x_min":63,"x_max":894,"o":"m 369 -278 l 369 -136 q 401 -103 369 -103 l 540 -103 q 569 -136 569 -103 l 569 -324 q 549 -392 569 -367 q 501 -424 529 -418 q 447 -431 474 -431 l 444 -431 q 396 -425 415 -431 l 376 -419 l 376 -342 q 413 -329 408 -343 q 415 -317 415 -324 l 415 -310 l 401 -310 q 369 -278 369 -310 m 63 0 l 63 1017 l 335 1017 l 625 497 l 625 1017 l 894 1017 l 894 0 l 625 0 l 333 506 l 333 0 l 63 0 z "},"ņ":{"ha":771,"x_min":47,"x_max":733,"o":"m 281 -278 l 281 -136 q 313 -103 281 -103 l 451 -103 q 481 -136 481 -103 l 481 -324 q 460 -392 481 -367 q 413 -424 440 -418 q 358 -431 385 -431 l 356 -431 q 307 -425 326 -431 l 288 -419 l 288 -342 q 319 -336 314 -343 q 326 -317 326 -326 l 326 -310 l 313 -310 q 281 -278 281 -310 m 47 0 l 47 738 l 272 738 l 317 665 q 366 708 347 694 q 426 736 385 722 q 528 750 467 750 q 633 730 589 750 q 699 668 678 710 q 726 583 719 626 q 733 472 733 539 l 733 0 l 464 0 l 464 478 q 453 535 464 519 q 418 550 442 550 q 317 499 339 550 l 317 0 l 47 0 z "},"Ň":{"ha":940,"x_min":63,"x_max":894,"o":"m 256 1301 l 408 1301 l 478 1231 l 547 1301 l 703 1301 l 564 1107 l 381 1107 l 256 1301 m 63 0 l 63 1017 l 335 1017 l 625 497 l 625 1017 l 894 1017 l 894 0 l 625 0 l 333 506 l 333 0 l 63 0 z "},"ň":{"ha":771,"x_min":47,"x_max":733,"o":"m 167 1028 l 321 1028 l 389 957 l 458 1028 l 614 1028 l 475 833 l 293 833 l 167 1028 m 47 0 l 47 738 l 272 738 l 317 665 q 366 708 347 694 q 426 736 385 722 q 528 750 467 750 q 633 730 589 750 q 699 668 678 710 q 726 583 719 626 q 733 472 733 539 l 733 0 l 464 0 l 464 478 q 453 535 464 519 q 418 550 442 550 q 317 499 339 550 l 317 0 l 47 0 z "},"Ŋ":{"ha":940,"x_min":63,"x_max":894,"o":"m 63 0 l 63 1017 l 335 1017 l 625 497 l 625 1017 l 894 1017 l 894 -89 q 590 -362 894 -362 q 500 -357 549 -362 l 500 -167 q 617 -131 599 -167 q 625 -83 625 -112 l 625 0 l 333 506 l 333 0 l 63 0 z "},"ŋ":{"ha":779,"x_min":47,"x_max":733,"o":"m 47 0 l 47 738 l 272 738 l 317 665 q 358 694 331 674 q 401 725 386 715 q 517 750 444 750 q 633 730 589 750 q 699 668 678 710 q 726 583 719 626 q 733 472 733 539 l 733 0 l 732 -69 q 708 -195 732 -139 q 650 -283 685 -251 q 432 -372 550 -372 q 422 -372 426 -372 l 367 -222 q 445 -182 428 -206 q 464 -75 463 -158 l 464 478 q 453 535 464 519 q 418 550 442 550 q 317 499 339 550 l 317 0 l 47 0 z "},"Ō":{"ha":926,"x_min":51,"x_max":893,"o":"m 269 1107 l 269 1236 l 675 1236 l 675 1107 l 269 1107 m 106 165 q 92 192 106 165 q 65 303 78 219 q 51 494 51 388 q 63 680 51 601 q 94 813 75 758 q 144 907 113 868 q 208 968 175 946 q 286 1003 240 990 q 444 1024 358 1024 q 572 1019 529 1024 q 660 1003 614 1015 q 740 968 707 990 q 803 907 772 946 q 853 814 833 868 q 893 531 893 693 q 872 276 893 369 q 818 129 851 183 q 728 44 785 75 q 613 4 671 14 q 478 -6 556 -6 q 353 0 401 -6 q 253 23 306 6 q 167 75 200 40 q 106 165 133 110 m 377 763 q 362 754 377 763 q 334 686 347 744 q 321 482 321 628 q 347 286 321 336 q 468 236 374 236 q 593 289 563 236 q 624 468 624 342 q 618 646 624 594 q 595 730 613 697 q 550 772 578 763 q 465 782 522 782 q 377 763 407 782 z "},"ō":{"ha":769,"x_min":39,"x_max":731,"o":"m 182 828 l 182 957 l 588 957 l 588 828 l 182 828 m 387 -7 q 289 -7 387 -7 q 115 76 192 -7 q 39 369 39 158 q 115 663 39 581 q 385 744 190 744 q 655 661 579 744 q 731 365 731 578 q 656 72 731 151 q 387 -7 582 -7 m 383 544 q 355 544 383 544 q 317 517 326 544 q 308 368 308 489 q 320 220 308 247 q 386 193 332 193 q 451 217 440 193 q 461 363 461 240 q 451 515 461 486 q 383 544 440 544 z "},"Ő":{"ha":926,"x_min":51,"x_max":893,"o":"m 276 1107 l 383 1306 l 585 1306 l 428 1107 l 276 1107 m 517 1107 l 624 1306 l 825 1306 l 668 1107 l 517 1107 m 106 165 q 92 192 106 165 q 65 303 78 219 q 51 494 51 388 q 63 680 51 601 q 94 813 75 758 q 144 907 113 868 q 208 968 175 946 q 286 1003 240 990 q 444 1024 358 1024 q 572 1019 529 1024 q 660 1003 614 1015 q 740 968 707 990 q 803 907 772 946 q 853 814 833 868 q 893 531 893 693 q 872 276 893 369 q 818 129 851 183 q 728 44 785 75 q 613 4 671 14 q 478 -6 556 -6 q 353 0 401 -6 q 253 23 306 6 q 167 75 200 40 q 106 165 133 110 m 377 763 q 362 754 377 763 q 334 686 347 744 q 321 482 321 628 q 347 286 321 336 q 468 236 374 236 q 593 289 563 236 q 624 468 624 342 q 618 646 624 594 q 595 730 613 697 q 550 772 578 763 q 465 782 522 782 q 377 763 407 782 z "},"ő":{"ha":769,"x_min":39,"x_max":738,"o":"m 189 828 l 296 1026 l 497 1026 l 340 828 l 189 828 m 429 828 l 536 1026 l 738 1026 l 581 828 l 429 828 m 387 -7 q 289 -7 387 -7 q 115 76 192 -7 q 39 369 39 158 q 115 663 39 581 q 385 744 190 744 q 655 661 579 744 q 731 365 731 578 q 656 72 731 151 q 387 -7 582 -7 m 383 544 q 355 544 383 544 q 317 517 326 544 q 308 368 308 489 q 320 220 308 247 q 386 193 332 193 q 451 217 440 193 q 461 363 461 240 q 451 515 461 486 q 383 544 440 544 z "},"Œ":{"ha":1349,"x_min":51,"x_max":1307,"o":"m 377 763 q 362 754 377 763 q 334 686 347 744 q 321 482 321 628 q 347 286 321 336 q 468 236 374 236 q 592 288 563 236 q 622 510 622 340 q 594 731 622 679 q 472 782 567 782 q 377 763 407 782 m 64 303 q 51 494 51 388 q 63 680 51 601 q 94 813 75 758 q 144 907 113 868 q 208 968 175 946 q 286 1003 240 990 q 495 1024 358 1024 q 714 982 632 1024 q 856 1017 769 1017 q 881 1017 868 1017 q 1307 994 1144 1017 l 1307 768 l 964 768 q 913 755 931 768 q 894 728 896 742 q 892 690 892 715 l 892 629 l 1238 614 l 1238 390 l 892 378 l 892 317 q 921 253 892 264 q 978 244 944 244 l 1307 244 l 1307 19 q 967 -3 1167 1 l 894 -4 q 863 -6 878 -6 q 706 32 764 -6 q 472 -6 625 -6 q 167 75 244 -6 q 64 303 88 157 z "},"œ":{"ha":1151,"x_min":39,"x_max":1121,"o":"m 1107 32 q 819 -7 1029 -7 q 696 -7 761 -7 q 579 21 631 -7 q 385 -7 508 -7 q 115 76 192 -7 q 39 369 39 158 q 115 663 39 581 q 385 744 190 744 q 586 711 514 744 q 768 743 651 743 q 942 735 885 743 q 1043 697 999 726 q 1104 614 1088 668 q 1121 460 1121 560 q 1065 315 1121 360 q 903 271 1010 271 l 731 271 q 750 206 731 229 q 808 190 763 190 l 899 192 q 1107 207 1003 192 l 1107 32 m 383 544 q 355 544 383 544 q 317 517 326 544 q 308 368 308 489 q 320 220 308 247 q 386 193 332 193 q 451 218 440 193 q 461 304 461 243 l 461 372 q 450 517 461 489 q 383 544 439 544 m 811 442 q 840 454 829 442 q 851 497 851 467 q 844 542 851 528 q 797 557 836 557 q 744 538 757 557 q 731 456 731 519 q 731 442 731 449 l 811 442 z "},"Ŕ":{"ha":860,"x_min":61,"x_max":851,"o":"m 363 1107 l 469 1306 l 671 1306 l 514 1107 l 363 1107 m 61 0 l 61 1017 l 515 1017 q 744 942 663 1017 q 826 690 826 868 q 778 456 826 517 q 731 412 751 425 q 676 385 711 399 l 851 0 l 544 0 l 414 360 l 331 379 l 331 0 l 61 0 m 332 582 l 481 582 q 542 606 529 582 q 556 685 556 629 q 540 764 556 740 q 481 788 524 788 l 332 788 l 332 582 z "},"ŕ":{"ha":569,"x_min":47,"x_max":542,"o":"m 219 828 l 325 1026 l 528 1026 l 369 828 l 219 828 m 47 0 l 47 738 l 286 738 l 317 644 q 380 715 336 685 q 472 744 424 744 q 542 738 519 744 l 542 479 l 432 479 q 325 444 343 479 q 317 396 317 425 l 317 0 l 47 0 z "},"Ŗ":{"ha":860,"x_min":61,"x_max":851,"o":"m 314 -269 l 314 -126 q 346 -93 314 -93 l 485 -93 q 514 -126 514 -93 l 514 -314 q 494 -383 514 -357 q 446 -415 474 -408 q 392 -421 418 -421 l 389 -421 q 340 -415 360 -421 l 321 -410 l 321 -332 q 357 -319 353 -333 q 360 -306 360 -314 l 360 -300 l 346 -300 q 314 -269 314 -300 m 61 0 l 61 1017 l 515 1017 q 744 942 663 1017 q 826 690 826 868 q 778 456 826 517 q 731 412 751 425 q 676 385 711 399 l 851 0 l 544 0 l 414 360 l 331 379 l 331 0 l 61 0 m 332 582 l 481 582 q 542 606 529 582 q 556 685 556 629 q 540 764 556 740 q 481 788 524 788 l 332 788 l 332 582 z "},"ŗ":{"ha":569,"x_min":36,"x_max":531,"o":"m 61 -278 l 61 -136 q 93 -103 61 -103 l 232 -103 q 261 -136 261 -103 l 261 -324 q 241 -392 261 -367 q 193 -424 221 -418 q 139 -431 165 -431 l 136 -431 q 88 -425 107 -431 l 68 -419 l 68 -342 q 104 -329 100 -343 q 107 -317 107 -324 l 107 -310 l 93 -310 q 61 -278 61 -310 m 36 0 l 36 738 l 275 738 l 306 644 q 369 715 325 685 q 460 744 413 744 q 531 738 508 744 l 531 479 l 421 479 q 314 444 332 479 q 306 396 306 425 l 306 0 l 36 0 z "},"Ř":{"ha":860,"x_min":61,"x_max":851,"o":"m 221 1301 l 375 1301 l 443 1231 l 513 1301 l 668 1301 l 529 1107 l 347 1107 l 221 1301 m 61 0 l 61 1017 l 515 1017 q 744 942 663 1017 q 826 690 826 868 q 778 456 826 517 q 731 412 751 425 q 676 385 711 399 l 851 0 l 544 0 l 414 360 l 331 379 l 331 0 l 61 0 m 332 582 l 481 582 q 542 606 529 582 q 556 685 556 629 q 540 764 556 740 q 481 788 524 788 l 332 788 l 332 582 z "},"ř":{"ha":569,"x_min":47,"x_max":542,"o":"m 71 1022 l 225 1022 l 293 951 l 363 1022 l 518 1022 l 379 828 l 197 828 l 71 1022 m 47 0 l 47 738 l 286 738 l 317 644 q 380 715 336 685 q 472 744 424 744 q 542 738 519 744 l 542 479 l 432 479 q 325 444 343 479 q 317 396 317 425 l 317 0 l 47 0 z "},"Ś":{"ha":828,"x_min":51,"x_max":794,"o":"m 350 1110 l 457 1308 l 658 1308 l 501 1110 l 350 1110 m 51 665 l 51 750 q 127 949 51 881 q 326 1025 203 1017 q 432 1029 381 1029 q 757 979 622 1029 l 757 769 q 424 783 631 783 q 342 774 363 783 q 321 722 321 764 l 321 707 q 336 656 321 671 q 404 640 351 640 l 535 640 q 764 497 700 640 q 794 346 794 428 l 794 300 q 513 -11 794 -11 q 247 -5 310 -11 q 83 36 185 1 l 83 246 q 443 231 236 231 q 506 244 488 231 q 525 288 525 257 l 525 310 q 510 356 525 342 q 451 371 494 371 l 326 371 q 197 396 251 371 q 115 454 142 421 q 72 533 89 488 q 51 665 51 597 z "},"ś":{"ha":710,"x_min":31,"x_max":678,"o":"m 288 828 l 394 1026 l 596 1026 l 439 828 l 288 828 m 31 469 l 31 533 q 76 686 31 628 q 222 744 122 744 q 553 732 486 744 q 642 694 621 719 l 642 536 l 331 536 q 305 530 310 536 q 300 511 300 524 l 300 503 q 314 481 300 483 q 331 481 319 481 l 469 481 q 628 426 579 481 q 678 281 678 371 l 678 199 q 625 43 678 93 q 497 -7 572 -7 q 406 -7 481 -7 q 272 -6 331 -7 q 148 8 214 -4 q 61 44 82 19 l 61 203 l 383 203 q 404 208 400 203 q 408 226 408 214 l 408 233 q 403 253 408 247 q 383 258 399 258 l 250 258 q 90 312 149 258 q 31 469 31 365 z "},"Ŝ":{"ha":828,"x_min":51,"x_max":794,"o":"m 203 1110 l 342 1304 l 524 1304 l 650 1110 l 496 1110 l 428 1181 l 358 1110 l 203 1110 m 51 665 l 51 750 q 127 949 51 881 q 326 1025 203 1017 q 432 1029 381 1029 q 757 979 622 1029 l 757 769 q 424 783 631 783 q 342 774 363 783 q 321 722 321 764 l 321 707 q 336 656 321 671 q 404 640 351 640 l 535 640 q 764 497 700 640 q 794 346 794 428 l 794 300 q 513 -11 794 -11 q 247 -5 310 -11 q 83 36 185 1 l 83 246 q 443 231 236 231 q 506 244 488 231 q 525 288 525 257 l 525 310 q 510 356 525 342 q 451 371 494 371 l 326 371 q 197 396 251 371 q 115 454 142 421 q 72 533 89 488 q 51 665 51 597 z "},"ŝ":{"ha":710,"x_min":31,"x_max":678,"o":"m 133 828 l 272 1022 l 454 1022 l 581 828 l 426 828 l 358 899 l 289 828 l 133 828 m 31 469 l 31 533 q 76 686 31 628 q 222 744 122 744 q 553 732 486 744 q 642 694 621 719 l 642 536 l 331 536 q 305 530 310 536 q 300 511 300 524 l 300 503 q 314 481 300 483 q 331 481 319 481 l 469 481 q 628 426 579 481 q 678 281 678 371 l 678 199 q 625 43 678 93 q 497 -7 572 -7 q 406 -7 481 -7 q 272 -6 331 -7 q 148 8 214 -4 q 61 44 82 19 l 61 203 l 383 203 q 404 208 400 203 q 408 226 408 214 l 408 233 q 403 253 408 247 q 383 258 399 258 l 250 258 q 90 312 149 258 q 31 469 31 365 z "},"Ş":{"ha":828,"x_min":51,"x_max":794,"o":"m 363 -60 l 525 -60 q 488 -215 525 -168 q 357 -262 451 -262 l 272 -262 l 272 -153 l 324 -132 q 358 -110 353 -119 q 363 -60 363 -100 m 51 665 l 51 750 q 127 949 51 881 q 326 1025 203 1017 q 432 1029 381 1029 q 757 979 622 1029 l 757 769 q 424 783 631 783 q 342 774 363 783 q 321 722 321 764 l 321 707 q 336 656 321 671 q 404 640 351 640 l 535 640 q 764 497 700 640 q 794 346 794 428 l 794 300 q 513 -11 794 -11 q 247 -5 310 -11 q 83 36 185 1 l 83 246 q 443 231 236 231 q 506 244 488 231 q 525 288 525 257 l 525 310 q 510 356 525 342 q 451 371 494 371 l 326 371 q 197 396 251 371 q 115 454 142 421 q 72 533 89 488 q 51 665 51 597 z "},"ş":{"ha":710,"x_min":31,"x_max":678,"o":"m 31 469 l 31 533 q 76 686 31 628 q 222 744 122 744 q 553 732 486 744 q 642 694 621 719 l 642 536 l 331 536 q 305 530 310 536 q 300 511 300 524 l 300 503 q 314 481 300 483 q 331 481 319 481 l 469 481 q 628 426 579 481 q 678 281 678 371 l 678 199 q 625 43 678 93 q 497 -7 572 -7 q 406 -7 481 -7 q 272 -6 331 -7 q 148 8 214 -4 q 61 44 82 19 l 61 203 l 383 203 q 404 208 400 203 q 408 226 408 214 l 408 233 q 403 253 408 247 q 383 258 399 258 l 250 258 q 90 312 149 258 q 31 469 31 365 m 285 -54 l 447 -54 q 410 -210 447 -162 q 279 -257 374 -257 l 194 -257 l 194 -147 l 246 -126 q 280 -104 275 -114 q 285 -54 285 -94 z "},"Š":{"ha":828,"x_min":51,"x_max":794,"o":"m 213 1304 l 367 1304 l 435 1233 l 504 1304 l 660 1304 l 521 1110 l 339 1110 l 213 1304 m 51 665 l 51 750 q 127 949 51 881 q 326 1025 203 1017 q 432 1029 381 1029 q 757 979 622 1029 l 757 769 q 424 783 631 783 q 342 774 363 783 q 321 722 321 764 l 321 707 q 336 656 321 671 q 404 640 351 640 l 535 640 q 764 497 700 640 q 794 346 794 428 l 794 300 q 513 -11 794 -11 q 247 -5 310 -11 q 83 36 185 1 l 83 246 q 443 231 236 231 q 506 244 488 231 q 525 288 525 257 l 525 310 q 510 356 525 342 q 451 371 494 371 l 326 371 q 197 396 251 371 q 115 454 142 421 q 72 533 89 488 q 51 665 51 597 z "},"š":{"ha":710,"x_min":31,"x_max":678,"o":"m 142 1022 l 296 1022 l 364 951 l 433 1022 l 589 1022 l 450 828 l 268 828 l 142 1022 m 31 469 l 31 533 q 76 686 31 628 q 222 744 122 744 q 553 732 486 744 q 642 694 621 719 l 642 536 l 331 536 q 305 530 310 536 q 300 511 300 524 l 300 503 q 314 481 300 483 q 331 481 319 481 l 469 481 q 628 426 579 481 q 678 281 678 371 l 678 199 q 625 43 678 93 q 497 -7 572 -7 q 406 -7 481 -7 q 272 -6 331 -7 q 148 8 214 -4 q 61 44 82 19 l 61 203 l 383 203 q 404 208 400 203 q 408 226 408 214 l 408 233 q 403 253 408 247 q 383 258 399 258 l 250 258 q 90 312 149 258 q 31 469 31 365 z "},"Ţ":{"ha":843,"x_min":28,"x_max":817,"o":"m 28 775 l 28 1017 l 817 1017 l 817 775 l 553 775 l 553 0 l 283 0 l 283 775 l 28 775 m 342 -68 l 504 -68 q 467 -224 504 -176 q 336 -271 431 -271 l 251 -271 l 251 -161 l 303 -140 q 337 -118 332 -128 q 342 -68 342 -108 z "},"ţ":{"ha":535,"x_min":15,"x_max":513,"o":"m 15 553 l 15 686 l 119 739 l 158 944 l 389 944 l 389 739 l 513 739 l 513 553 l 389 553 l 389 319 q 401 225 389 251 q 439 185 413 199 q 507 156 497 156 l 507 -1 l 299 -1 q 165 60 211 -1 q 119 264 119 122 l 119 553 l 15 553 m 225 -71 l 388 -71 q 351 -226 388 -179 q 219 -274 314 -274 l 135 -274 l 135 -164 l 186 -143 q 220 -121 215 -131 q 225 -71 225 -111 z "},"Ť":{"ha":843,"x_min":28,"x_max":817,"o":"m 199 1301 l 353 1301 l 421 1231 l 490 1301 l 646 1301 l 507 1107 l 325 1107 l 199 1301 m 28 775 l 28 1017 l 817 1017 l 817 775 l 553 775 l 553 0 l 283 0 l 283 775 l 28 775 z "},"ť":{"ha":626,"x_min":15,"x_max":611,"o":"m 15 553 l 15 686 l 119 739 l 158 944 l 389 944 l 389 739 l 513 739 l 513 553 l 389 553 l 389 319 q 401 225 389 251 q 439 185 413 199 q 507 156 497 156 l 507 -1 l 299 -1 q 165 60 211 -1 q 119 264 119 122 l 119 553 l 15 553 m 453 1113 l 611 1113 l 611 1019 l 597 833 l 468 833 l 453 1019 l 453 1113 z "},"Ŧ":{"ha":819,"x_min":15,"x_max":804,"o":"m 15 775 l 15 1017 l 804 1017 l 804 775 l 540 775 l 540 589 l 651 589 l 651 486 l 540 486 l 540 0 l 271 0 l 271 486 l 160 486 l 160 589 l 271 589 l 271 775 l 15 775 z "},"ŧ":{"ha":528,"x_min":15,"x_max":513,"o":"m 15 553 l 15 686 l 119 739 l 158 944 l 389 944 l 389 739 l 513 739 l 513 553 l 389 553 l 389 447 l 478 447 l 478 344 l 389 344 l 389 319 q 401 225 389 251 q 439 185 413 199 q 507 156 497 156 l 507 -1 l 299 -1 q 165 60 211 -1 q 119 264 119 122 l 119 344 l 33 344 l 33 447 l 119 447 l 119 553 l 15 553 z "},"Ũ":{"ha":910,"x_min":63,"x_max":864,"o":"m 392 1303 q 468 1278 424 1303 q 539 1254 513 1254 q 547 1254 544 1254 q 669 1310 615 1254 l 706 1207 q 550 1107 639 1107 q 467 1131 519 1107 q 382 1156 414 1156 q 258 1107 322 1156 l 222 1200 q 392 1303 293 1303 m 63 444 l 63 1017 l 332 1017 l 332 444 q 363 269 332 303 q 467 235 396 235 q 564 272 532 235 q 593 444 593 303 l 593 1017 l 864 1017 l 864 444 q 797 128 864 228 q 754 72 775 93 q 701 34 733 50 q 645 10 668 18 q 583 -1 622 3 q 498 -7 533 -7 q 421 -7 463 -7 q 340 -4 379 -7 q 238 22 300 -1 q 144 90 176 44 q 88 224 113 135 q 63 444 63 314 z "},"ũ":{"ha":771,"x_min":39,"x_max":725,"o":"m 311 1024 q 386 999 342 1024 q 458 975 431 975 q 468 975 463 975 q 588 1031 535 975 l 624 928 q 468 828 557 828 q 385 852 438 828 q 307 876 333 876 q 178 828 240 876 l 140 921 q 311 1024 211 1024 m 39 265 l 39 738 l 308 738 l 308 260 q 319 203 308 218 q 354 188 331 188 q 456 239 433 188 l 456 738 l 725 738 l 725 0 l 500 0 l 456 72 q 414 43 442 64 q 371 14 386 22 q 256 -12 328 -12 q 139 8 183 -12 q 74 69 94 28 q 46 155 53 111 q 39 265 39 199 z "},"Ū":{"ha":910,"x_min":63,"x_max":864,"o":"m 261 1107 l 261 1236 l 667 1236 l 667 1107 l 261 1107 m 63 444 l 63 1017 l 332 1017 l 332 444 q 363 269 332 303 q 467 235 396 235 q 564 272 532 235 q 593 444 593 303 l 593 1017 l 864 1017 l 864 444 q 797 128 864 228 q 754 72 775 93 q 701 34 733 50 q 645 10 668 18 q 583 -1 622 3 q 498 -7 533 -7 q 421 -7 463 -7 q 340 -4 379 -7 q 238 22 300 -1 q 144 90 176 44 q 88 224 113 135 q 63 444 63 314 z "},"ū":{"ha":771,"x_min":39,"x_max":725,"o":"m 179 828 l 179 957 l 585 957 l 585 828 l 179 828 m 39 265 l 39 738 l 308 738 l 308 260 q 319 203 308 218 q 354 188 331 188 q 456 239 433 188 l 456 738 l 725 738 l 725 0 l 500 0 l 456 72 q 414 43 442 64 q 371 14 386 22 q 256 -12 328 -12 q 139 8 183 -12 q 74 69 94 28 q 46 155 53 111 q 39 265 39 199 z "},"Ŭ":{"ha":910,"x_min":63,"x_max":864,"o":"m 397 1265 q 464 1200 397 1200 q 531 1265 531 1200 l 622 1265 q 547 1126 622 1168 q 463 1107 511 1107 q 378 1126 414 1107 q 303 1265 303 1168 l 397 1265 m 63 444 l 63 1017 l 332 1017 l 332 444 q 363 269 332 303 q 467 235 396 235 q 564 272 532 235 q 593 444 593 303 l 593 1017 l 864 1017 l 864 444 q 797 128 864 228 q 754 72 775 93 q 701 34 733 50 q 645 10 668 18 q 583 -1 622 3 q 498 -7 533 -7 q 421 -7 463 -7 q 340 -4 379 -7 q 238 22 300 -1 q 144 90 176 44 q 88 224 113 135 q 63 444 63 314 z "},"ŭ":{"ha":771,"x_min":39,"x_max":725,"o":"m 222 986 l 315 986 q 382 921 315 921 q 449 986 449 921 l 542 986 q 498 872 542 915 q 381 828 454 828 q 265 872 308 828 q 222 986 222 915 m 39 265 l 39 738 l 308 738 l 308 260 q 319 203 308 218 q 354 188 331 188 q 456 239 433 188 l 456 738 l 725 738 l 725 0 l 500 0 l 456 72 q 414 43 442 64 q 371 14 386 22 q 256 -12 328 -12 q 139 8 183 -12 q 74 69 94 28 q 46 155 53 111 q 39 265 39 199 z "},"Ů":{"ha":910,"x_min":63,"x_max":864,"o":"m 364 1148 q 343 1168 364 1148 q 322 1249 322 1189 q 364 1350 322 1308 q 464 1392 406 1392 q 563 1350 522 1392 q 604 1249 604 1308 q 563 1148 604 1189 q 464 1107 522 1107 q 364 1148 406 1107 m 431 1282 q 424 1275 431 1282 q 417 1249 417 1268 q 431 1216 417 1229 q 464 1203 444 1203 q 497 1216 483 1203 q 510 1249 510 1229 q 497 1282 510 1268 q 464 1296 483 1296 q 431 1282 444 1296 m 63 444 l 63 1017 l 332 1017 l 332 444 q 363 269 332 303 q 467 235 396 235 q 564 272 532 235 q 593 444 593 303 l 593 1017 l 864 1017 l 864 444 q 797 128 864 228 q 754 72 775 93 q 701 34 733 50 q 645 10 668 18 q 583 -1 622 3 q 498 -7 533 -7 q 421 -7 463 -7 q 340 -4 379 -7 q 238 22 300 -1 q 144 90 176 44 q 88 224 113 135 q 63 444 63 314 z "},"ů":{"ha":771,"x_min":39,"x_max":725,"o":"m 283 869 q 273 878 283 869 q 253 914 264 888 q 242 974 242 940 q 260 1041 242 1008 q 312 1093 279 1074 q 383 1113 344 1113 q 453 1093 421 1113 q 504 1041 486 1074 q 522 969 522 1008 q 504 898 522 931 q 453 847 486 865 q 388 828 421 828 q 328 839 354 828 q 283 869 301 850 m 383 1017 q 373 1017 383 1017 q 349 1003 363 1017 q 336 973 336 989 q 342 946 336 957 q 379 924 356 924 q 415 937 403 924 q 428 969 428 950 q 415 1003 428 989 q 383 1017 403 1017 m 39 265 l 39 738 l 308 738 l 308 260 q 319 203 308 218 q 354 188 331 188 q 456 239 433 188 l 456 738 l 725 738 l 725 0 l 500 0 l 456 72 q 414 43 442 64 q 371 14 386 22 q 256 -12 328 -12 q 139 8 183 -12 q 74 69 94 28 q 46 155 53 111 q 39 265 39 199 z "},"Ű":{"ha":910,"x_min":63,"x_max":864,"o":"m 267 1107 l 375 1306 l 575 1306 l 419 1107 l 267 1107 m 508 1107 l 614 1306 l 817 1306 l 658 1107 l 508 1107 m 63 444 l 63 1017 l 332 1017 l 332 444 q 363 269 332 303 q 467 235 396 235 q 564 272 532 235 q 593 444 593 303 l 593 1017 l 864 1017 l 864 444 q 797 128 864 228 q 754 72 775 93 q 701 34 733 50 q 645 10 668 18 q 583 -1 622 3 q 498 -7 533 -7 q 421 -7 463 -7 q 340 -4 379 -7 q 238 22 300 -1 q 144 90 176 44 q 88 224 113 135 q 63 444 63 314 z "},"ű":{"ha":771,"x_min":39,"x_max":735,"o":"m 186 828 l 293 1026 l 494 1026 l 338 828 l 186 828 m 426 828 l 533 1026 l 735 1026 l 578 828 l 426 828 m 39 265 l 39 738 l 308 738 l 308 260 q 319 203 308 218 q 354 188 331 188 q 456 239 433 188 l 456 738 l 725 738 l 725 0 l 500 0 l 456 72 q 414 43 442 64 q 371 14 386 22 q 256 -12 328 -12 q 139 8 183 -12 q 74 69 94 28 q 46 155 53 111 q 39 265 39 199 z "},"Ų":{"ha":910,"x_min":63,"x_max":864,"o":"m 536 -265 q 497 -272 514 -272 q 458 -267 481 -272 q 404 -242 435 -261 q 336 -128 344 -204 q 336 -108 336 -124 q 357 -59 336 -92 q 422 0 378 -26 l 518 0 q 474 -44 488 -21 q 464 -84 461 -67 q 478 -115 467 -101 q 536 -140 503 -146 l 536 -265 m 63 444 l 63 1017 l 332 1017 l 332 444 q 363 269 332 303 q 467 235 396 235 q 564 272 532 235 q 593 444 593 303 l 593 1017 l 864 1017 l 864 444 q 797 128 864 228 q 754 72 775 93 q 701 34 733 50 q 645 10 668 18 q 583 -1 622 3 q 498 -7 533 -7 q 421 -7 463 -7 q 340 -4 379 -7 q 238 22 300 -1 q 144 90 176 44 q 88 224 113 135 q 63 444 63 314 z "},"ų":{"ha":771,"x_min":39,"x_max":725,"o":"m 569 -3 l 665 -3 q 611 -92 604 -44 q 632 -128 615 -115 q 683 -143 660 -147 l 683 -268 q 647 -275 663 -275 q 613 -274 632 -275 q 568 -256 593 -272 q 485 -127 485 -203 q 569 -3 485 -51 m 39 265 l 39 738 l 308 738 l 308 260 q 319 203 308 218 q 354 188 331 188 q 456 239 433 188 l 456 738 l 725 738 l 725 0 l 500 0 l 456 72 q 414 43 442 64 q 371 14 386 22 q 256 -12 328 -12 q 139 8 183 -12 q 74 69 94 28 q 46 155 53 111 q 39 265 39 199 z "},"Ŵ":{"ha":1414,"x_min":35,"x_max":1396,"o":"m 503 1107 l 642 1301 l 824 1301 l 950 1107 l 796 1107 l 728 1178 l 658 1107 l 503 1107 m 35 1017 l 318 1017 l 486 331 l 613 1017 l 896 1017 l 844 806 l 986 331 l 1113 1017 l 1396 1017 l 1147 0 l 822 0 l 729 332 l 647 0 l 322 0 l 35 1017 z "},"ŵ":{"ha":1176,"x_min":15,"x_max":1163,"o":"m 379 828 l 518 1022 l 700 1022 l 826 828 l 672 828 l 604 899 l 535 828 l 379 828 m 15 738 l 301 738 l 392 290 l 475 738 l 736 738 l 704 569 l 794 290 l 875 738 l 1163 738 l 960 0 l 649 0 l 582 190 l 529 0 l 218 0 l 15 738 z "},"Ŷ":{"ha":943,"x_min":35,"x_max":924,"o":"m 256 1107 l 394 1301 l 576 1301 l 703 1107 l 549 1107 l 481 1178 l 411 1107 l 256 1107 m 603 0 l 333 0 l 333 278 l 35 1017 l 328 1017 l 474 567 l 631 1017 l 924 1017 l 603 278 l 603 0 z "},"ŷ":{"ha":832,"x_min":17,"x_max":810,"o":"m 189 828 l 328 1022 l 511 1022 l 636 828 l 483 828 l 414 899 l 344 828 l 189 828 m 17 738 l 296 738 l 381 271 q 440 217 390 219 l 536 738 l 810 738 l 611 -233 l 513 -375 l 313 -375 l 394 0 q 132 217 181 0 l 17 738 z "},"Ÿ":{"ha":943,"x_min":35,"x_max":924,"o":"m 238 1134 q 225 1148 238 1134 q 211 1199 211 1161 q 238 1263 211 1236 q 303 1289 265 1289 q 367 1263 340 1289 q 393 1199 393 1236 q 367 1134 393 1161 q 303 1107 340 1107 q 238 1134 265 1107 m 592 1134 q 579 1148 592 1134 q 565 1199 565 1161 q 592 1263 565 1236 q 657 1289 619 1289 q 721 1263 694 1289 q 747 1199 747 1236 q 721 1134 747 1161 q 657 1107 694 1107 q 592 1134 619 1107 m 603 0 l 333 0 l 333 278 l 35 1017 l 328 1017 l 474 567 l 631 1017 l 924 1017 l 603 278 l 603 0 z "},"Ź":{"ha":767,"x_min":28,"x_max":740,"o":"m 308 1107 l 415 1306 l 617 1306 l 460 1107 l 308 1107 m 28 0 l 28 242 l 425 775 l 28 775 l 28 1017 l 740 1017 l 740 775 l 385 242 l 740 242 l 740 0 l 28 0 z "},"ź":{"ha":679,"x_min":24,"x_max":657,"o":"m 264 828 l 372 1026 l 572 1026 l 417 828 l 264 828 m 24 524 l 24 738 l 657 738 l 657 524 l 406 215 l 657 215 l 657 1 l 44 1 l 44 213 l 318 524 l 24 524 z "},"Ż":{"ha":767,"x_min":28,"x_max":740,"o":"m 289 1139 l 289 1269 q 322 1304 289 1304 l 447 1304 q 479 1269 479 1304 l 479 1139 q 447 1107 479 1107 l 322 1107 q 289 1139 289 1107 m 28 0 l 28 242 l 425 775 l 28 775 l 28 1017 l 740 1017 l 740 775 l 385 242 l 740 242 l 740 0 l 28 0 z "},"ż":{"ha":679,"x_min":24,"x_max":657,"o":"m 244 860 l 244 990 q 278 1025 244 1025 l 403 1025 q 427 1015 418 1025 q 436 990 436 1006 l 436 860 q 403 828 436 828 l 278 828 q 254 837 264 828 q 244 860 244 846 m 24 524 l 24 738 l 657 738 l 657 524 l 406 215 l 657 215 l 657 1 l 44 1 l 44 213 l 318 524 l 24 524 z "},"Ž":{"ha":767,"x_min":28,"x_max":740,"o":"m 161 1301 l 314 1301 l 383 1231 l 453 1301 l 608 1301 l 469 1107 l 286 1107 l 161 1301 m 28 0 l 28 242 l 425 775 l 28 775 l 28 1017 l 740 1017 l 740 775 l 385 242 l 740 242 l 740 0 l 28 0 z "},"ž":{"ha":679,"x_min":24,"x_max":657,"o":"m 117 1022 l 271 1022 l 339 951 l 408 1022 l 564 1022 l 425 828 l 243 828 l 117 1022 m 24 524 l 24 738 l 657 738 l 657 524 l 406 215 l 657 215 l 657 1 l 44 1 l 44 213 l 318 524 l 24 524 z "},"ƒ":{"ha":825,"x_min":15,"x_max":810,"o":"m 97 -83 q 206 8 175 -83 q 232 122 221 51 l 290 496 l 188 496 l 217 682 l 319 682 l 324 703 q 429 999 353 888 q 622 1111 506 1111 q 797 1083 732 1111 q 810 1076 808 1078 l 785 911 l 732 911 q 638 860 667 911 q 593 703 610 810 l 589 682 l 721 682 l 692 496 l 560 496 l 501 122 q 399 -181 471 -78 q 206 -283 328 -283 q 15 -249 63 -283 l 42 -83 l 97 -83 z "},"ˆ":{"ha":525,"x_min":39,"x_max":486,"o":"m 39 738 l 178 932 l 360 932 l 486 738 l 332 738 l 264 808 l 194 738 l 39 738 z "},"ˇ":{"ha":525,"x_min":39,"x_max":486,"o":"m 39 932 l 193 932 l 261 861 l 331 932 l 486 932 l 347 738 l 165 738 l 39 932 z "},"˘":{"ha":396,"x_min":39,"x_max":358,"o":"m 39 894 l 132 894 q 199 829 132 829 q 265 894 265 829 l 358 894 q 315 780 358 824 q 198 736 271 736 q 82 780 125 736 q 39 894 39 824 z "},"˙":{"ha":268,"x_min":39,"x_max":229,"o":"m 39 744 l 39 875 q 72 910 39 910 l 197 910 q 229 875 229 910 l 229 744 q 197 713 229 713 l 72 713 q 39 744 39 713 z "},"˚":{"ha":360,"x_min":39,"x_max":321,"o":"m 81 777 q 60 798 81 777 q 39 878 39 818 q 81 979 39 938 q 181 1021 122 1021 q 280 979 239 1021 q 321 878 321 938 q 280 777 321 818 q 181 736 239 736 q 81 777 122 736 m 147 911 q 140 904 147 911 q 133 878 133 897 q 147 845 133 858 q 181 832 161 832 q 213 845 200 832 q 226 878 226 858 q 213 911 226 897 q 181 925 200 925 q 147 911 161 925 z "},"˛":{"ha":274,"x_min":36,"x_max":236,"o":"m 236 -265 q 197 -272 214 -272 q 158 -267 181 -272 q 104 -242 135 -261 q 36 -128 44 -204 q 36 -108 36 -124 q 57 -59 36 -92 q 122 0 78 -26 l 218 0 q 174 -44 188 -21 q 164 -84 161 -67 q 178 -115 167 -101 q 236 -140 203 -146 l 236 -265 z "},"˜":{"ha":561,"x_min":39,"x_max":522,"o":"m 210 933 q 286 909 242 933 q 357 885 331 885 q 367 885 361 885 q 486 940 433 885 l 522 838 q 367 738 456 738 q 284 762 336 738 q 206 786 232 786 q 76 738 139 786 l 39 831 q 210 933 110 933 z "},"˝":{"ha":582,"x_min":15,"x_max":564,"o":"m 15 738 l 122 936 l 324 936 l 167 738 l 15 738 m 256 738 l 363 936 l 564 936 l 407 738 l 256 738 z "},"̸":{"ha":863,"x_min":54,"x_max":808,"o":"m 54 267 l 54 736 q 124 944 54 872 q 324 1017 193 1017 l 551 1017 q 808 750 808 1017 l 808 267 q 741 71 808 142 q 550 0 674 0 l 322 0 q 122 69 189 0 q 54 267 54 139 m 324 694 l 324 428 l 508 767 q 472 775 493 775 l 393 775 q 324 694 324 775 m 403 242 l 461 242 q 520 256 501 242 q 539 322 539 271 l 539 604 l 349 256 q 403 242 367 242 z "},"Ω":{"ha":1043,"x_min":50,"x_max":993,"o":"m 50 553 q 149 869 50 732 q 296 983 200 940 q 519 1026 392 1026 q 740 988 647 1026 q 883 881 832 949 q 986 546 986 744 q 958 370 986 435 q 871 232 931 306 l 993 218 l 993 0 l 621 0 l 621 233 q 696 360 675 288 q 717 499 717 433 q 713 596 717 565 q 696 662 708 626 q 663 723 683 697 q 606 767 643 749 q 522 785 569 785 q 319 528 319 785 q 340 360 319 426 q 419 233 360 293 l 419 0 l 58 0 l 58 219 l 188 233 q 50 553 50 328 z "},"π":{"ha":903,"x_min":15,"x_max":888,"o":"m 15 496 l 15 738 l 821 738 l 821 496 l 739 496 l 739 286 q 759 211 739 228 q 835 194 779 194 l 888 194 l 888 36 q 696 -7 824 -7 q 469 272 469 -7 l 469 496 l 376 496 l 376 0 l 107 0 l 107 496 l 15 496 z "},"Ḃ":{"ha":849,"x_min":63,"x_max":835,"o":"m 339 1139 l 339 1269 q 372 1304 339 1304 l 497 1304 q 522 1294 513 1304 q 531 1269 531 1285 l 531 1139 q 497 1107 531 1107 l 372 1107 q 349 1116 358 1107 q 339 1139 339 1125 m 63 0 l 63 1017 l 504 1017 q 810 739 810 1017 q 770 599 810 665 q 661 528 731 533 q 786 453 738 515 q 835 311 835 392 q 756 72 835 144 q 511 0 676 0 l 63 0 m 332 228 l 497 228 q 550 252 535 228 q 565 325 565 276 q 497 425 565 425 l 332 425 l 332 228 m 332 639 l 483 639 q 530 659 514 639 q 546 710 546 679 q 483 789 546 789 l 332 789 l 332 639 z "},"ḃ":{"ha":776,"x_min":33,"x_max":725,"o":"m 72 1206 l 72 1336 q 106 1371 72 1371 l 231 1371 q 263 1336 263 1371 l 263 1206 q 231 1174 263 1174 l 106 1174 q 72 1206 72 1174 m 33 0 l 33 1090 l 303 1090 l 303 707 q 486 749 382 749 q 677 662 629 749 q 725 371 725 575 q 668 79 725 167 q 486 -8 611 -8 q 390 10 429 -8 q 304 68 351 29 l 264 0 l 33 0 m 394 210 q 442 242 428 210 q 456 381 456 274 q 442 522 456 489 q 394 556 428 556 q 304 535 324 556 l 304 240 q 394 210 322 210 z "},"Ḋ":{"ha":926,"x_min":63,"x_max":885,"o":"m 339 1139 l 339 1269 q 372 1304 339 1304 l 497 1304 q 529 1269 529 1304 l 529 1139 q 497 1107 529 1107 l 372 1107 q 339 1139 339 1107 m 63 0 l 63 1017 l 539 1017 q 875 669 832 1017 q 885 504 885 596 q 800 120 885 240 q 539 0 715 0 l 63 0 m 332 228 l 511 228 q 592 292 569 228 q 615 491 615 356 q 602 690 615 626 q 568 772 589 754 q 511 789 547 789 l 332 789 l 332 228 z "},"ḋ":{"ha":776,"x_min":39,"x_max":731,"o":"m 503 1206 l 503 1336 q 536 1371 503 1371 l 661 1371 q 693 1336 693 1371 l 693 1206 q 661 1174 693 1174 l 536 1174 q 503 1206 503 1174 m 278 -8 q 95 76 151 -8 q 39 370 39 160 q 86 665 39 581 q 278 749 133 749 q 461 707 382 749 l 461 1090 l 731 1090 l 731 0 l 500 0 l 460 68 q 374 10 413 29 q 278 -8 335 -8 m 369 556 q 322 522 336 556 q 308 381 308 489 q 322 242 308 274 q 369 210 336 210 q 460 240 442 210 l 460 535 q 369 556 440 556 z "},"Ḟ":{"ha":788,"x_min":56,"x_max":768,"o":"m 339 1139 l 339 1269 q 372 1304 339 1304 l 497 1304 q 529 1269 529 1304 l 529 1139 q 497 1107 529 1107 l 372 1107 q 339 1139 339 1107 m 56 0 l 56 775 q 142 968 56 911 q 314 1017 214 1017 q 768 994 606 1017 l 768 768 l 397 768 q 347 755 364 768 q 327 728 329 742 q 325 690 325 715 l 325 629 l 699 614 l 699 390 l 325 378 l 325 0 l 56 0 z "},"ḟ":{"ha":565,"x_min":15,"x_max":550,"o":"m 232 1207 l 232 1338 q 265 1372 232 1372 l 390 1372 q 422 1338 422 1372 l 422 1207 q 390 1175 422 1175 l 265 1175 q 232 1207 232 1175 m 15 551 l 15 714 l 115 738 l 115 875 q 177 1044 115 996 q 362 1092 239 1092 q 550 1058 485 1092 l 550 904 l 449 906 q 412 902 425 906 q 392 883 399 899 q 385 792 385 867 l 385 738 l 521 738 l 521 551 l 385 551 l 385 0 l 115 0 l 115 551 l 15 551 z "},"Ṁ":{"ha":1231,"x_min":43,"x_max":1189,"o":"m 519 1139 l 519 1269 q 553 1304 519 1304 l 678 1304 q 702 1294 693 1304 q 711 1269 711 1285 l 711 1139 q 678 1107 711 1107 l 553 1107 q 529 1116 539 1107 q 519 1139 519 1125 m 43 0 l 151 1017 l 526 1017 l 613 446 l 704 1017 l 1079 1017 l 1189 0 l 924 0 l 854 554 l 769 0 l 461 0 l 372 554 l 308 0 l 43 0 z "},"ṁ":{"ha":1190,"x_min":47,"x_max":1153,"o":"m 492 865 l 492 996 q 525 1031 492 1031 l 650 1031 q 682 996 682 1031 l 682 865 q 650 833 682 833 l 525 833 q 492 865 492 833 m 732 508 l 733 472 l 733 0 l 464 0 l 464 478 q 453 535 464 519 q 418 550 442 550 q 317 499 339 550 l 317 0 l 47 0 l 47 738 l 272 738 l 317 665 q 368 709 350 696 q 426 736 386 722 q 519 750 467 750 q 700 665 653 750 q 768 706 743 693 q 841 735 793 719 q 949 750 889 750 q 1053 730 1008 750 q 1118 668 1097 710 q 1146 583 1139 626 q 1153 472 1153 539 l 1153 0 l 883 0 l 883 478 q 872 535 883 519 q 838 550 861 550 q 732 508 758 550 z "},"Ṗ":{"ha":861,"x_min":61,"x_max":828,"o":"m 286 1139 l 286 1269 q 319 1304 286 1304 l 444 1304 q 476 1269 476 1304 l 476 1139 q 444 1107 476 1107 l 319 1107 q 286 1139 286 1107 m 61 0 l 61 1017 l 514 1017 q 758 931 685 1017 q 808 835 789 897 q 828 683 828 772 q 807 526 828 594 q 755 423 786 458 q 678 368 724 388 q 604 346 633 349 q 554 343 575 343 q 504 345 533 343 q 406 358 475 347 q 331 372 336 369 l 331 0 l 61 0 m 331 572 l 486 572 q 557 680 557 572 q 486 788 557 788 l 331 788 l 331 572 z "},"ṗ":{"ha":776,"x_min":47,"x_max":739,"o":"m 299 861 l 299 992 q 332 1026 299 1026 l 457 1026 q 489 992 489 1026 l 489 861 q 457 829 489 829 l 332 829 q 299 861 299 829 m 47 -375 l 47 738 l 278 738 l 318 669 q 404 727 365 708 q 500 746 443 746 q 682 658 625 746 q 739 372 739 569 q 718 156 739 224 q 671 56 697 88 q 505 -11 614 -11 q 317 31 396 -11 l 317 -375 l 47 -375 m 408 182 q 456 215 442 182 q 469 356 469 249 q 456 496 469 464 q 408 528 442 528 q 318 497 336 528 l 318 203 q 408 182 338 182 z "},"Ṡ":{"ha":828,"x_min":51,"x_max":794,"o":"m 308 1142 l 308 1272 q 342 1307 308 1307 l 467 1307 q 499 1272 499 1307 l 499 1142 q 467 1110 499 1110 l 342 1110 q 308 1142 308 1110 m 51 665 l 51 750 q 127 949 51 881 q 326 1025 203 1017 q 432 1029 381 1029 q 757 979 622 1029 l 757 769 q 424 783 631 783 q 342 774 363 783 q 321 722 321 764 l 321 707 q 336 656 321 671 q 404 640 351 640 l 535 640 q 764 497 700 640 q 794 346 794 428 l 794 300 q 513 -11 794 -11 q 247 -5 310 -11 q 83 36 185 1 l 83 246 q 443 231 236 231 q 506 244 488 231 q 525 288 525 257 l 525 310 q 510 356 525 342 q 451 371 494 371 l 326 371 q 197 396 251 371 q 115 454 142 421 q 72 533 89 488 q 51 665 51 597 z "},"ṡ":{"ha":710,"x_min":31,"x_max":678,"o":"m 260 860 l 260 990 q 293 1025 260 1025 l 418 1025 q 450 990 450 1025 l 450 860 q 418 828 450 828 l 293 828 q 260 860 260 828 m 31 469 l 31 533 q 76 686 31 628 q 222 744 122 744 q 553 732 486 744 q 642 694 621 719 l 642 536 l 331 536 q 305 530 310 536 q 300 511 300 524 l 300 503 q 314 481 300 483 q 331 481 319 481 l 469 481 q 628 426 579 481 q 678 281 678 371 l 678 199 q 625 43 678 93 q 497 -7 572 -7 q 406 -7 481 -7 q 272 -6 331 -7 q 148 8 214 -4 q 61 44 82 19 l 61 203 l 383 203 q 404 208 400 203 q 408 226 408 214 l 408 233 q 403 253 408 247 q 383 258 399 258 l 250 258 q 90 312 149 258 q 31 469 31 365 z "},"Ṫ":{"ha":843,"x_min":28,"x_max":817,"o":"m 328 1139 l 328 1269 q 361 1304 328 1304 l 486 1304 q 508 1294 500 1304 q 517 1269 517 1285 l 517 1139 q 486 1107 517 1107 l 361 1107 q 337 1116 346 1107 q 328 1139 328 1125 m 28 775 l 28 1017 l 817 1017 l 817 775 l 553 775 l 553 0 l 283 0 l 283 775 l 28 775 z "},"ṫ":{"ha":535,"x_min":15,"x_max":513,"o":"m 158 1060 l 158 1190 q 192 1225 158 1225 l 317 1225 q 341 1215 332 1225 q 350 1190 350 1206 l 350 1060 q 317 1028 350 1028 l 192 1028 q 168 1037 178 1028 q 158 1060 158 1046 m 15 553 l 15 686 l 119 739 l 158 944 l 389 944 l 389 739 l 513 739 l 513 553 l 389 553 l 389 319 q 401 225 389 251 q 439 185 413 199 q 507 156 497 156 l 507 -1 l 299 -1 q 165 60 211 -1 q 119 264 119 122 l 119 553 l 15 553 z "},"Ẁ":{"ha":1414,"x_min":35,"x_max":1396,"o":"m 483 1306 l 683 1306 l 792 1107 l 639 1107 l 483 1306 m 35 1017 l 318 1017 l 486 331 l 613 1017 l 896 1017 l 844 806 l 986 331 l 1113 1017 l 1396 1017 l 1147 0 l 822 0 l 729 332 l 647 0 l 322 0 l 35 1017 z "},"ẁ":{"ha":1176,"x_min":15,"x_max":1163,"o":"m 358 1026 l 560 1026 l 667 828 l 515 828 l 358 1026 m 15 738 l 301 738 l 392 290 l 475 738 l 736 738 l 704 569 l 794 290 l 875 738 l 1163 738 l 960 0 l 649 0 l 582 190 l 529 0 l 218 0 l 15 738 z "},"Ẃ":{"ha":1414,"x_min":35,"x_max":1396,"o":"m 639 1107 l 747 1306 l 947 1306 l 792 1107 l 639 1107 m 35 1017 l 318 1017 l 486 331 l 613 1017 l 896 1017 l 844 806 l 986 331 l 1113 1017 l 1396 1017 l 1147 0 l 822 0 l 729 332 l 647 0 l 322 0 l 35 1017 z "},"ẃ":{"ha":1176,"x_min":15,"x_max":1163,"o":"m 515 828 l 622 1026 l 824 1026 l 667 828 l 515 828 m 15 738 l 301 738 l 392 290 l 475 738 l 736 738 l 704 569 l 794 290 l 875 738 l 1163 738 l 960 0 l 649 0 l 582 190 l 529 0 l 218 0 l 15 738 z "},"Ẅ":{"ha":1414,"x_min":35,"x_max":1396,"o":"m 465 1134 q 451 1148 465 1134 q 438 1199 438 1161 q 465 1263 438 1236 q 529 1289 492 1289 q 593 1263 567 1289 q 619 1199 619 1236 q 593 1134 619 1161 q 529 1107 567 1107 q 465 1134 492 1107 m 819 1134 q 805 1148 819 1134 q 792 1199 792 1161 q 819 1263 792 1236 q 883 1289 846 1289 q 947 1263 921 1289 q 974 1199 974 1236 q 947 1134 974 1161 q 883 1107 921 1107 q 819 1134 846 1107 m 35 1017 l 318 1017 l 486 331 l 613 1017 l 896 1017 l 844 806 l 986 331 l 1113 1017 l 1396 1017 l 1147 0 l 822 0 l 729 332 l 647 0 l 322 0 l 35 1017 z "},"ẅ":{"ha":1176,"x_min":15,"x_max":1163,"o":"m 352 855 q 339 868 352 855 q 325 919 325 882 q 352 983 325 957 q 417 1010 379 1010 q 481 983 454 1010 q 507 919 507 957 q 481 855 507 882 q 417 828 454 828 q 352 855 379 828 m 706 855 q 693 868 706 855 q 679 919 679 882 q 706 983 679 957 q 771 1010 733 1010 q 835 983 808 1010 q 861 919 861 957 q 835 855 861 882 q 771 828 808 828 q 706 855 733 828 m 15 738 l 301 738 l 392 290 l 475 738 l 736 738 l 704 569 l 794 290 l 875 738 l 1163 738 l 960 0 l 649 0 l 582 190 l 529 0 l 218 0 l 15 738 z "},"Ỳ":{"ha":943,"x_min":35,"x_max":924,"o":"m 247 1306 l 447 1306 l 556 1107 l 403 1107 l 247 1306 m 603 0 l 333 0 l 333 278 l 35 1017 l 328 1017 l 474 567 l 631 1017 l 924 1017 l 603 278 l 603 0 z "},"ỳ":{"ha":832,"x_min":17,"x_max":810,"o":"m 181 1026 l 382 1026 l 489 828 l 338 828 l 181 1026 m 17 738 l 296 738 l 381 271 q 440 217 390 219 l 536 738 l 810 738 l 611 -233 l 513 -375 l 313 -375 l 394 0 q 132 217 181 0 l 17 738 z "},"–":{"ha":713,"x_min":28,"x_max":685,"o":"m 28 292 l 28 507 l 685 507 l 685 292 l 28 292 z "},"—":{"ha":1022,"x_min":28,"x_max":994,"o":"m 28 294 l 28 510 l 994 510 l 994 294 l 28 294 z "},"‘":{"ha":347,"x_min":63,"x_max":285,"o":"m 63 893 q 225 1035 63 1035 q 256 1032 242 1035 l 278 1028 l 278 928 q 235 885 235 928 l 235 864 l 250 864 q 285 829 285 864 l 285 671 q 250 633 285 633 l 96 633 q 63 671 63 633 l 63 893 z "},"’":{"ha":347,"x_min":63,"x_max":285,"o":"m 285 774 q 122 632 285 632 q 92 635 106 632 l 69 639 l 69 739 q 113 782 113 739 l 113 803 l 97 803 q 63 838 63 803 l 63 996 q 97 1033 63 1033 l 251 1033 q 285 996 285 1033 l 285 774 z "},"‚":{"ha":347,"x_min":63,"x_max":285,"o":"m 285 -29 q 122 -171 285 -171 q 92 -168 106 -171 l 69 -164 l 69 -64 q 113 -21 113 -64 l 113 0 l 97 0 q 63 35 63 0 l 63 193 q 97 231 63 231 l 251 231 q 285 193 285 231 l 285 -29 z "},"“":{"ha":600,"x_min":57,"x_max":544,"o":"m 322 890 q 485 1032 322 1032 q 515 1029 501 1032 l 538 1025 l 538 925 q 494 882 494 925 l 494 861 l 510 861 q 544 826 544 861 l 544 668 q 510 631 544 631 l 356 631 q 322 668 322 631 l 322 890 m 57 890 q 219 1032 57 1032 q 250 1029 236 1032 l 272 1025 l 272 925 q 229 882 229 925 l 229 861 l 244 861 q 279 826 279 861 l 279 668 q 244 631 279 631 l 90 631 q 57 668 57 631 l 57 890 z "},"”":{"ha":600,"x_min":57,"x_max":544,"o":"m 279 771 q 117 629 279 629 q 86 632 100 629 l 64 636 l 64 736 q 107 779 107 736 l 107 800 l 92 800 q 57 835 57 800 l 57 993 q 92 1031 57 1031 l 246 1031 q 279 993 279 1031 l 279 771 m 544 771 q 382 629 544 629 q 351 632 365 629 l 329 636 l 329 736 q 372 779 372 736 l 372 800 l 357 800 q 322 835 322 800 l 322 993 q 357 1031 322 1031 l 511 1031 q 544 993 544 1031 l 544 771 z "},"„":{"ha":600,"x_min":57,"x_max":544,"o":"m 279 -29 q 117 -171 279 -171 q 86 -168 100 -171 l 64 -164 l 64 -64 q 107 -21 107 -64 l 107 0 l 92 0 q 57 35 57 0 l 57 193 q 92 231 57 231 l 246 231 q 279 193 279 231 l 279 -29 m 544 -29 q 382 -171 544 -171 q 351 -168 365 -171 l 329 -164 l 329 -64 q 372 -21 372 -64 l 372 0 l 357 0 q 322 35 322 0 l 322 193 q 357 231 322 231 l 511 231 q 544 193 544 231 l 544 -29 z "},"†":{"ha":675,"x_min":15,"x_max":660,"o":"m 15 589 l 15 796 l 200 817 l 218 1069 l 458 1069 l 476 817 l 660 796 l 660 589 l 476 568 l 457 -100 l 217 -100 l 200 568 l 15 589 z "},"‡":{"ha":690,"x_min":15,"x_max":660,"o":"m 15 172 l 15 379 l 204 406 l 200 568 l 15 589 l 15 796 l 200 817 l 218 1069 l 458 1069 l 476 817 l 660 796 l 660 589 l 476 568 l 472 404 l 660 379 l 660 172 l 464 149 l 457 -100 l 217 -100 l 211 146 l 15 172 z "},"•":{"ha":426,"x_min":67,"x_max":361,"o":"m 67 425 l 67 633 q 113 682 67 682 l 313 682 q 361 633 361 682 l 361 425 q 313 381 361 381 l 113 381 q 67 425 67 381 z "},"…":{"ha":1113,"x_min":33,"x_max":1014,"o":"m 33 32 l 33 194 q 67 229 33 229 l 224 229 q 258 194 258 229 l 258 32 q 224 0 258 0 l 67 0 q 33 32 33 0 m 411 32 l 411 194 q 444 229 411 229 l 601 229 q 636 194 636 229 l 636 32 q 601 0 636 0 l 444 0 q 411 32 411 0 m 789 32 l 789 194 q 822 229 789 229 l 979 229 q 1014 194 1014 229 l 1014 32 q 979 0 1014 0 l 822 0 q 789 32 789 0 z "},"‰":{"ha":1914,"x_min":33,"x_max":1882,"o":"m 33 672 l 33 829 q 79 969 33 921 q 226 1017 125 1017 l 367 1017 q 557 829 557 1017 l 557 672 q 511 533 557 581 q 364 485 465 485 l 224 485 q 33 672 33 485 m 207 714 q 217 672 207 686 q 258 658 226 658 l 329 658 q 372 673 361 658 q 383 714 383 688 l 383 788 q 372 832 383 821 q 332 843 360 843 l 261 843 q 221 832 235 843 q 207 788 207 821 l 207 714 m 267 0 l 897 1017 l 1069 1017 l 449 0 l 267 0 m 789 192 l 789 349 q 834 488 789 440 q 981 536 879 536 l 1122 536 q 1313 349 1313 536 l 1313 192 q 1267 52 1313 100 q 1119 4 1221 4 l 978 4 q 789 192 789 4 m 963 233 q 972 192 963 206 q 1014 178 982 178 l 1083 178 q 1139 233 1139 178 l 1139 307 q 1126 351 1139 340 q 1086 363 1114 363 l 1017 363 q 976 351 990 363 q 963 307 963 340 l 963 233 m 1358 192 l 1358 349 q 1404 488 1358 440 q 1551 536 1450 536 l 1692 536 q 1882 349 1882 536 l 1882 192 q 1836 52 1882 100 q 1689 4 1790 4 l 1549 4 q 1358 192 1358 4 m 1532 233 q 1542 192 1532 206 q 1583 178 1551 178 l 1654 178 q 1697 192 1686 178 q 1708 233 1708 207 l 1708 307 q 1697 351 1708 340 q 1657 363 1685 363 l 1586 363 q 1546 351 1560 363 q 1532 307 1532 340 l 1532 233 z "},"‹":{"ha":494,"x_min":39,"x_max":461,"o":"m 39 492 l 325 774 l 460 642 l 307 492 l 461 339 l 332 203 l 39 492 z "},"›":{"ha":494,"x_min":39,"x_max":461,"o":"m 39 339 l 193 492 l 40 642 l 175 774 l 461 492 l 168 203 l 39 339 z "},"⁄":{"ha":549,"x_min":-71,"x_max":619,"o":"m -71 0 l 438 1069 l 619 1069 l 111 0 l -71 0 z "},"⁰":{"ha":642,"x_min":47,"x_max":596,"o":"m 47 671 l 47 983 q 98 1122 47 1074 q 243 1169 149 1169 l 408 1169 q 596 992 596 1169 l 596 671 q 547 540 596 588 q 408 493 499 493 l 242 493 q 96 540 144 493 q 47 671 47 586 m 250 724 q 303 675 250 675 l 342 675 q 381 683 369 675 q 393 722 393 692 l 393 940 q 349 988 393 988 l 296 988 q 260 978 269 988 q 251 964 251 969 q 250 956 250 958 l 250 724 z "},"⁴":{"ha":614,"x_min":13,"x_max":603,"o":"m 344 790 l 344 911 l 374 982 l 547 982 l 547 790 l 603 790 l 603 635 l 547 629 l 547 496 l 344 496 l 344 604 l 44 604 l 13 694 l 208 1169 l 407 1169 l 256 790 l 344 790 z "},"⁵":{"ha":575,"x_min":43,"x_max":544,"o":"m 43 675 l 288 675 q 339 689 332 675 q 342 713 343 697 l 342 733 q 332 762 342 753 q 297 771 322 771 l 257 771 q 217 739 217 771 l 44 739 l 65 1169 l 513 1169 l 513 988 l 239 988 l 236 921 q 335 944 274 944 q 376 942 354 944 q 503 885 461 935 q 544 757 544 836 l 544 668 q 487 533 544 578 q 349 489 429 489 q 43 514 182 489 l 43 675 z "},"⁶":{"ha":608,"x_min":42,"x_max":576,"o":"m 42 849 q 215 1172 42 1149 q 335 1179 258 1179 q 551 1153 413 1179 l 551 999 l 335 999 q 256 971 271 999 q 244 906 244 950 q 390 928 285 928 q 535 881 494 928 q 576 749 576 835 l 576 663 q 383 493 576 493 l 243 493 q 135 520 176 493 q 67 628 93 547 q 42 849 42 708 m 244 757 q 258 690 244 704 q 318 675 272 675 l 333 675 q 365 681 357 675 q 374 706 374 688 l 374 719 q 369 750 374 743 q 339 757 364 757 l 244 757 z "},"⁷":{"ha":588,"x_min":11,"x_max":575,"o":"m 11 988 l 11 1169 l 525 1169 l 575 1088 l 319 493 l 100 493 l 313 988 l 11 988 z "},"⁸":{"ha":642,"x_min":51,"x_max":592,"o":"m 51 658 l 51 707 q 70 778 51 747 q 129 814 89 808 q 61 876 74 839 q 51 954 51 906 l 51 1014 q 250 1175 51 1175 l 407 1175 q 546 1138 500 1175 q 592 1017 592 1101 l 592 976 q 568 902 592 929 q 514 871 544 875 q 592 738 592 857 l 592 667 q 543 528 592 563 q 407 493 494 493 l 250 493 q 67 575 100 493 q 51 658 51 611 m 254 697 q 264 672 254 679 q 297 664 274 664 l 346 664 q 381 672 374 664 q 389 697 389 681 l 389 726 q 381 751 389 743 q 347 760 372 760 l 297 760 q 263 751 271 760 q 254 726 254 743 l 254 697 m 254 950 q 263 925 254 931 q 297 919 272 919 l 346 919 q 381 926 374 919 q 389 950 389 932 l 389 971 q 378 999 389 993 q 346 1004 368 1004 l 297 1004 q 264 999 274 1004 q 254 971 254 993 l 254 950 z "},"⁹":{"ha":608,"x_min":35,"x_max":569,"o":"m 35 919 l 35 1007 q 229 1181 35 1181 l 368 1181 q 453 1165 418 1181 q 514 1111 488 1150 q 569 835 569 1031 q 522 567 569 640 q 396 482 475 494 q 276 475 353 475 q 60 501 199 475 l 60 657 l 276 657 q 356 686 342 657 q 367 758 367 710 q 222 736 326 736 q 76 784 118 736 q 35 919 35 832 m 238 950 q 243 916 238 924 q 274 908 249 908 l 367 908 q 353 983 367 967 q 293 999 339 999 l 278 999 q 246 992 254 999 q 238 964 238 985 l 238 950 z "},"₀":{"ha":642,"x_min":47,"x_max":596,"o":"m 47 -100 l 47 213 q 98 351 47 303 q 243 399 149 399 l 408 399 q 596 221 596 399 l 596 -100 q 547 -231 596 -183 q 408 -278 499 -278 l 242 -278 q 96 -231 144 -278 q 47 -100 47 -185 m 250 -47 q 303 -96 250 -96 l 342 -96 q 381 -87 369 -96 q 393 -49 393 -79 l 393 169 q 349 217 393 217 l 296 217 q 260 208 269 217 q 251 193 251 199 q 250 183 250 188 l 250 -47 z "},"₁":{"ha":375,"x_min":13,"x_max":325,"o":"m 325 399 l 325 -278 l 122 -278 l 122 229 l 13 211 l 13 322 l 125 399 l 325 399 z "},"₂":{"ha":579,"x_min":24,"x_max":547,"o":"m 24 226 l 24 378 q 322 408 160 408 q 490 351 433 408 q 547 196 547 293 q 329 -96 547 71 l 547 -96 l 547 -278 l 29 -278 l 29 -103 q 228 38 113 -54 q 344 169 344 131 q 321 217 344 207 q 235 226 297 226 l 24 226 z "},"₃":{"ha":579,"x_min":24,"x_max":533,"o":"m 240 -285 q 29 -256 117 -285 l 31 -103 l 238 -103 q 314 -99 297 -103 q 331 -72 331 -94 l 331 -67 q 312 -40 331 -46 q 243 -33 293 -35 l 88 -26 l 88 138 l 243 149 q 331 164 322 149 q 333 181 333 169 l 333 186 q 312 214 333 208 q 243 219 290 219 l 24 219 l 24 371 q 289 403 108 403 q 347 401 317 403 q 482 355 431 400 q 533 229 533 310 l 533 193 q 446 58 533 88 q 533 -85 533 35 l 533 -111 q 483 -240 533 -194 q 340 -285 432 -285 q 240 -285 290 -285 z "},"₄":{"ha":622,"x_min":13,"x_max":611,"o":"m 353 19 l 353 140 l 382 211 l 556 211 l 556 19 l 611 19 l 611 -136 l 556 -142 l 556 -275 l 353 -275 l 353 -167 l 44 -167 l 13 -76 l 208 399 l 415 399 l 269 19 l 353 19 z "},"₅":{"ha":581,"x_min":43,"x_max":550,"o":"m 518 399 l 518 217 l 242 217 l 238 150 q 338 174 275 174 q 381 171 358 174 q 508 115 465 164 q 550 -14 550 65 l 550 -103 q 491 -237 550 -193 q 351 -282 432 -282 q 43 -257 183 -282 l 43 -96 l 292 -96 q 347 -76 343 -96 q 347 -69 347 -72 l 347 -37 q 338 -9 347 -18 q 303 0 328 0 l 261 0 q 219 -15 219 0 l 44 -15 l 65 399 l 518 399 z "},"₆":{"ha":608,"x_min":42,"x_max":576,"o":"m 42 78 q 215 401 42 378 q 335 408 258 408 q 551 382 413 408 l 551 228 l 335 228 q 256 200 271 228 q 244 135 244 179 q 390 157 285 157 q 535 110 494 157 q 576 -22 576 64 l 576 -108 q 383 -278 576 -278 l 243 -278 q 135 -251 176 -278 q 67 -143 93 -224 q 42 78 42 -62 m 244 -14 q 258 -81 244 -67 q 318 -96 272 -96 l 333 -96 q 365 -90 357 -96 q 374 -65 374 -83 l 374 -51 q 369 -21 374 -28 q 339 -14 364 -14 l 244 -14 z "},"₇":{"ha":588,"x_min":11,"x_max":575,"o":"m 11 217 l 11 399 l 525 399 l 575 317 l 319 -278 l 100 -278 l 313 217 l 11 217 z "},"₈":{"ha":642,"x_min":51,"x_max":592,"o":"m 51 -64 q 129 43 51 32 q 61 106 74 68 q 51 183 51 135 l 51 243 q 250 404 51 404 l 407 404 q 546 367 500 404 q 592 246 592 331 l 592 206 q 568 132 592 160 q 514 100 544 104 q 592 -33 592 86 l 592 -104 q 543 -243 592 -208 q 407 -278 494 -278 l 250 -278 q 67 -194 100 -278 q 51 -112 51 -160 l 51 -64 m 254 -44 l 254 -74 q 264 -99 254 -92 q 297 -107 274 -107 l 346 -107 q 381 -99 374 -107 q 389 -74 389 -90 l 389 -44 q 381 -19 389 -28 q 347 -11 372 -11 l 297 -11 q 263 -19 271 -11 q 254 -44 254 -28 m 254 179 q 263 154 254 160 q 297 149 272 149 l 346 149 q 381 155 374 149 q 389 179 389 161 l 389 200 q 378 228 389 222 q 346 233 368 233 l 297 233 q 264 228 274 233 q 254 200 254 222 l 254 179 z "},"₉":{"ha":608,"x_min":35,"x_max":569,"o":"m 35 149 l 35 236 q 229 410 35 410 l 368 410 q 476 382 435 410 q 544 272 518 354 q 569 46 569 190 q 396 -285 569 -258 q 282 -292 357 -292 q 60 -269 207 -292 l 60 -114 l 276 -114 q 356 -83 342 -114 q 367 -12 367 -61 q 222 -35 326 -35 q 76 13 118 -35 q 35 149 35 61 m 238 179 q 243 145 238 153 q 274 138 249 138 l 367 138 q 353 212 367 196 q 293 228 339 228 l 278 228 q 246 221 254 228 q 238 193 238 214 l 238 179 z "},"€":{"ha":865,"x_min":15,"x_max":850,"o":"m 192 931 q 209 950 192 931 q 297 999 226 969 q 453 1028 367 1028 q 653 1015 540 1028 q 844 972 765 1001 l 844 779 q 572 800 660 800 q 449 794 483 800 q 399 767 414 788 q 382 728 385 746 q 379 667 379 711 l 704 657 l 704 538 l 379 528 l 379 471 l 704 461 l 704 340 q 519 336 661 340 q 379 331 378 332 q 414 232 379 264 q 497 206 438 208 q 556 206 513 206 q 800 233 646 206 l 850 243 l 850 54 q 695 4 785 17 q 513 -8 606 -8 q 383 -3 421 -8 q 293 22 346 1 q 202 76 240 42 q 137 176 164 110 q 110 331 110 242 l 15 340 l 15 461 l 110 471 l 110 528 l 15 539 l 15 654 l 110 667 q 113 744 110 708 q 137 835 117 779 q 192 931 157 892 z "},"ℓ":{"ha":728,"x_min":24,"x_max":681,"o":"m 103 767 q 426 1026 103 1026 q 605 963 529 1026 q 681 761 681 899 q 648 624 681 692 q 564 503 615 556 q 372 353 469 407 l 372 347 q 376 290 372 311 q 393 243 379 269 q 533 174 421 190 q 617 158 607 158 l 617 1 l 328 1 q 161 57 219 1 q 103 246 103 113 l 103 257 q 56 229 90 247 l 24 358 q 103 436 58 390 l 103 767 m 458 779 q 432 819 458 806 q 406 826 419 826 q 383 812 393 826 q 372 776 372 797 l 372 606 q 457 764 436 678 q 458 779 458 772 z "},"№":{"ha":1588,"x_min":56,"x_max":1556,"o":"m 56 0 l 56 790 q 94 921 56 865 q 338 1031 174 1031 q 567 939 482 1031 q 618 824 611 890 l 678 253 q 688 237 679 240 q 703 240 696 233 q 711 257 711 247 l 711 785 q 775 963 711 907 q 944 1019 839 1019 l 1358 1019 q 1511 965 1467 1019 q 1556 774 1556 910 q 1506 586 1556 638 q 1331 529 1457 535 l 1294 529 q 1190 540 1225 532 q 1123 574 1154 547 q 1081 654 1092 601 q 1069 799 1069 707 l 1267 799 q 1272 726 1267 739 q 1303 713 1278 713 l 1322 713 q 1353 720 1349 713 q 1358 761 1358 728 q 1358 803 1358 794 q 1351 820 1357 811 q 1336 831 1346 829 q 1210 833 1315 833 q 1084 833 1104 833 q 1038 827 1064 832 q 1003 813 1013 822 q 981 738 981 788 l 981 229 q 942 104 981 158 q 693 -7 863 -7 q 475 85 553 -7 q 422 213 429 138 l 361 790 q 342 803 358 808 q 326 781 326 797 l 326 0 l 56 0 z "},"™":{"ha":994,"x_min":15,"x_max":983,"o":"m 15 886 l 15 1017 l 431 1017 l 431 886 l 303 886 l 303 532 l 144 532 l 144 886 l 15 886 m 429 532 l 494 1017 l 663 1017 l 708 768 l 739 1017 l 913 1017 l 983 532 l 825 532 l 797 768 l 779 532 l 636 532 l 608 765 l 588 532 l 429 532 z "},"℮":{"ha":929,"x_min":47,"x_max":883,"o":"m 883 358 q 206 358 544 358 q 201 343 201 358 l 201 158 q 280 76 201 124 q 450 29 358 29 q 613 62 542 29 q 731 146 685 94 l 808 146 q 649 31 728 61 q 465 0 571 0 q 160 105 274 0 q 47 368 47 210 q 164 636 47 526 q 458 740 281 740 q 756 648 636 740 q 883 358 875 556 m 201 394 q 214 382 201 382 l 710 382 q 719 382 714 382 q 728 392 728 388 l 728 576 q 640 667 728 621 q 474 714 553 714 q 331 688 394 714 q 234 632 267 661 q 201 585 201 603 l 201 394 z "},"∂":{"ha":868,"x_min":44,"x_max":804,"o":"m 147 76 q 95 118 147 76 q 44 315 44 160 q 129 558 44 471 q 356 646 214 646 q 465 626 415 646 q 533 567 515 607 q 503 733 533 679 q 401 786 472 786 q 256 765 331 786 q 138 715 182 743 l 106 919 q 410 1028 271 1028 q 706 899 607 1028 q 804 538 804 769 q 396 -7 804 -7 q 147 76 249 -7 m 311 319 q 339 253 311 276 q 414 231 367 231 q 485 284 461 231 q 510 386 510 338 q 414 408 471 408 q 311 319 311 408 z "},"∆":{"ha":981,"x_min":15,"x_max":965,"o":"m 15 0 l 447 1017 l 550 1017 l 965 0 l 15 0 m 371 228 l 679 228 l 522 599 l 371 228 z "},"∏":{"ha":911,"x_min":15,"x_max":896,"o":"m 15 775 l 15 1017 l 896 1017 l 896 775 l 803 775 l 803 0 l 533 0 l 533 775 l 376 775 l 376 0 l 107 0 l 107 775 l 15 775 z "},"∑":{"ha":776,"x_min":31,"x_max":761,"o":"m 31 1017 l 761 1017 l 761 775 l 364 775 l 658 375 l 364 -32 l 761 -32 l 761 -278 l 31 -278 l 31 -32 l 328 375 l 31 775 l 31 1017 z "},"−":{"ha":633,"x_min":28,"x_max":606,"o":"m 28 388 l 28 601 l 606 601 l 606 388 l 28 388 z "},"√":{"ha":951,"x_min":15,"x_max":936,"o":"m 15 283 l 15 525 l 279 525 l 344 365 l 640 1111 l 936 1111 l 499 0 l 231 0 l 88 283 l 15 283 z "},"∞":{"ha":1031,"x_min":39,"x_max":992,"o":"m 39 474 q 269 714 39 714 q 403 685 347 714 q 510 593 460 657 q 761 714 579 714 q 992 474 992 714 q 938 301 992 367 q 761 235 885 235 q 623 258 683 235 q 507 354 563 282 q 408 258 460 281 q 269 235 356 235 q 92 301 146 235 q 39 474 39 367 m 224 474 q 288 406 224 406 q 389 474 343 406 q 343 522 371 501 q 281 543 315 543 q 235 526 246 543 q 224 474 224 510 m 740 406 q 807 474 807 406 q 794 526 807 508 q 740 543 781 543 q 636 472 682 543 q 740 406 681 406 z "},"∫":{"ha":615,"x_min":15,"x_max":600,"o":"m 15 -83 l 71 -83 q 158 -15 140 -83 q 172 122 172 40 l 172 703 q 231 999 172 888 q 407 1111 290 1111 q 567 1090 515 1111 q 586 1083 574 1088 q 600 1076 599 1078 l 600 911 l 547 911 q 462 860 482 911 q 442 703 442 810 l 442 122 q 387 -181 442 -78 q 211 -283 332 -283 q 15 -249 68 -283 l 15 -83 z "},"≈":{"ha":683,"x_min":39,"x_max":644,"o":"m 243 471 q 347 445 285 471 q 453 419 408 419 q 530 431 497 419 q 607 474 563 443 l 644 364 q 447 260 551 260 q 351 286 418 260 q 247 313 285 313 q 182 304 208 313 q 124 281 156 296 q 68 260 92 267 l 39 372 q 243 471 140 471 m 243 726 q 347 701 285 726 q 453 675 408 675 q 530 687 497 675 q 607 729 563 699 l 644 619 q 447 515 551 515 q 351 542 418 515 q 247 568 285 568 q 182 560 208 568 q 124 537 156 551 q 68 515 92 522 l 39 628 q 243 726 140 726 z "},"≠":{"ha":624,"x_min":15,"x_max":608,"o":"m 15 225 l 15 439 l 228 439 l 279 529 l 15 529 l 15 743 l 401 743 l 447 824 l 560 824 l 514 743 l 608 743 l 608 529 l 392 529 l 340 439 l 608 439 l 608 225 l 219 225 l 165 129 l 53 129 l 107 225 l 15 225 z "},"≤":{"ha":597,"x_min":39,"x_max":560,"o":"m 39 88 l 39 274 l 558 274 l 558 88 l 39 88 m 39 481 l 39 717 l 560 869 l 560 633 l 303 601 l 560 556 l 560 319 l 39 481 z "},"≥":{"ha":597,"x_min":39,"x_max":560,"o":"m 39 88 l 39 274 l 560 274 l 560 88 l 39 88 m 39 319 l 39 556 l 296 601 l 39 633 l 39 869 l 560 717 l 560 481 l 39 319 z "},"◊":{"ha":700,"x_min":15,"x_max":685,"o":"m 15 518 l 303 1017 l 406 1017 l 685 518 l 406 0 l 303 0 l 15 518 m 264 518 l 354 344 l 438 518 l 354 679 l 264 518 z "},"ﬀ":{"ha":1121,"x_min":15,"x_max":1106,"o":"m 15 551 l 15 714 l 153 738 l 153 861 q 208 1013 153 947 q 383 1078 264 1078 q 574 1044 503 1078 l 574 889 l 486 890 q 482 890 483 890 q 433 868 443 890 q 422 788 422 846 l 422 738 l 671 738 l 671 875 q 733 1044 671 996 q 917 1092 794 1092 q 1106 1058 1040 1092 l 1106 904 l 1004 906 q 967 902 981 906 q 947 883 954 899 q 940 792 940 867 l 940 738 l 1076 738 l 1076 551 l 940 551 l 940 0 l 671 0 l 671 551 l 419 551 l 419 0 l 150 0 l 150 551 l 15 551 z "},"ﬁ":{"ha":894,"x_min":15,"x_max":851,"o":"m 15 551 l 15 714 l 115 738 l 115 778 q 203 997 115 908 q 464 1092 296 1092 q 657 1084 536 1092 q 814 1058 778 1076 l 814 904 l 546 906 q 400 839 432 906 q 385 764 385 810 l 385 738 l 851 724 l 851 0 l 582 0 l 582 551 l 385 551 l 385 0 l 115 0 l 115 551 l 15 551 z "},"ﬂ":{"ha":1008,"x_min":15,"x_max":993,"o":"m 15 551 l 15 714 l 115 738 l 115 792 q 210 1039 115 976 q 306 1081 256 1069 q 426 1092 357 1092 l 874 1088 l 874 318 q 897 206 874 232 q 945 176 907 196 q 993 157 983 157 l 993 0 l 801 0 q 652 60 700 0 q 604 263 604 119 l 604 904 l 476 906 q 405 881 425 906 q 385 792 385 857 l 385 738 l 521 738 l 521 551 l 385 551 l 385 0 l 115 0 l 115 551 l 15 551 z "},"ﬃ":{"ha":1440,"x_min":15,"x_max":1394,"o":"m 15 551 l 15 714 l 153 738 l 153 861 q 208 1013 153 947 q 383 1078 264 1078 q 574 1044 503 1078 l 574 889 l 486 890 q 483 890 485 890 q 428 853 438 890 q 421 788 424 839 l 421 738 l 658 738 l 658 778 q 747 997 658 908 q 1007 1092 839 1092 q 1200 1084 1079 1092 q 1357 1058 1321 1076 l 1357 904 l 1089 906 q 942 839 975 906 q 928 764 928 810 l 928 738 l 1394 724 l 1394 0 l 1125 0 l 1125 551 l 928 551 l 928 0 l 658 0 l 658 551 l 421 551 l 421 0 l 150 0 l 150 551 l 15 551 z "},"ﬄ":{"ha":1557,"x_min":15,"x_max":1543,"o":"m 15 551 l 15 714 l 153 738 l 153 861 q 208 1013 153 947 q 383 1078 264 1078 q 574 1044 503 1078 l 574 889 l 486 890 q 481 890 483 890 q 433 869 443 890 q 421 788 422 847 l 421 738 l 665 738 l 665 792 q 760 1039 665 976 q 856 1081 806 1069 q 976 1092 907 1092 l 1424 1088 l 1424 318 q 1447 206 1424 232 q 1495 176 1457 196 q 1543 157 1533 157 l 1543 0 l 1351 0 q 1202 60 1250 0 q 1154 263 1154 119 l 1154 904 l 1026 906 q 955 881 975 906 q 935 792 935 857 l 935 738 l 1071 738 l 1071 551 l 935 551 l 935 0 l 665 0 l 665 551 l 421 551 l 421 0 l 150 0 l 150 551 l 15 551 z "},"ﬆ":{"ha":1236,"x_min":31,"x_max":1218,"o":"m 497 -7 l 449 -7 q 61 44 106 -7 l 61 203 l 383 203 q 404 208 400 203 q 408 226 408 214 l 408 233 q 403 253 408 247 q 383 258 399 258 l 250 258 q 90 312 149 258 q 31 469 31 365 l 31 533 q 82 681 31 624 q 236 738 133 738 l 825 738 l 864 943 l 1094 943 l 1094 738 l 1218 738 l 1218 551 l 1094 551 l 1094 318 q 1106 224 1094 250 q 1144 183 1118 197 q 1213 154 1203 154 l 1213 -3 l 1004 -3 q 871 59 917 -3 q 825 263 825 121 l 825 536 l 331 536 q 305 530 310 536 q 300 511 300 524 l 300 503 q 314 481 300 483 q 331 481 319 481 l 469 481 q 628 426 579 481 q 678 281 678 371 l 678 199 q 625 43 678 93 q 497 -7 572 -7 z "}}}
